G04 #@! TF.GenerationSoftware,KiCad,Pcbnew,(5.0.0)*
G04 #@! TF.CreationDate,2018-10-20T19:08:45+01:00*
G04 #@! TF.ProjectId,AD9833FunctionGenerator,41443938333346756E6374696F6E4765,rev?*
G04 #@! TF.SameCoordinates,Original*
G04 #@! TF.FileFunction,Legend,Top*
G04 #@! TF.FilePolarity,Positive*
%FSLAX46Y46*%
G04 Gerber Fmt 4.6, Leading zero omitted, Abs format (unit mm)*
G04 Created by KiCad (PCBNEW (5.0.0)) date 10/20/18 19:08:45*
%MOMM*%
%LPD*%
G01*
G04 APERTURE LIST*
%ADD10C,0.200000*%
%ADD11C,0.300000*%
%ADD12C,0.250000*%
%ADD13C,1.000000*%
%ADD14C,0.120000*%
%ADD15C,0.150000*%
%ADD16C,0.050000*%
G04 APERTURE END LIST*
D10*
X88392000Y-206502000D02*
X81280000Y-217170000D01*
D11*
X89372857Y-161958571D02*
X89372857Y-160458571D01*
X89730000Y-160458571D01*
X89944285Y-160530000D01*
X90087142Y-160672857D01*
X90158571Y-160815714D01*
X90230000Y-161101428D01*
X90230000Y-161315714D01*
X90158571Y-161601428D01*
X90087142Y-161744285D01*
X89944285Y-161887142D01*
X89730000Y-161958571D01*
X89372857Y-161958571D01*
X90872857Y-161958571D02*
X90872857Y-160458571D01*
X91230000Y-160458571D01*
X91444285Y-160530000D01*
X91587142Y-160672857D01*
X91658571Y-160815714D01*
X91730000Y-161101428D01*
X91730000Y-161315714D01*
X91658571Y-161601428D01*
X91587142Y-161744285D01*
X91444285Y-161887142D01*
X91230000Y-161958571D01*
X90872857Y-161958571D01*
X92301428Y-161887142D02*
X92515714Y-161958571D01*
X92872857Y-161958571D01*
X93015714Y-161887142D01*
X93087142Y-161815714D01*
X93158571Y-161672857D01*
X93158571Y-161530000D01*
X93087142Y-161387142D01*
X93015714Y-161315714D01*
X92872857Y-161244285D01*
X92587142Y-161172857D01*
X92444285Y-161101428D01*
X92372857Y-161030000D01*
X92301428Y-160887142D01*
X92301428Y-160744285D01*
X92372857Y-160601428D01*
X92444285Y-160530000D01*
X92587142Y-160458571D01*
X92944285Y-160458571D01*
X93158571Y-160530000D01*
X94730000Y-160458571D02*
X95230000Y-161958571D01*
X95730000Y-160458571D01*
X97087142Y-161815714D02*
X97015714Y-161887142D01*
X96801428Y-161958571D01*
X96658571Y-161958571D01*
X96444285Y-161887142D01*
X96301428Y-161744285D01*
X96230000Y-161601428D01*
X96158571Y-161315714D01*
X96158571Y-161101428D01*
X96230000Y-160815714D01*
X96301428Y-160672857D01*
X96444285Y-160530000D01*
X96658571Y-160458571D01*
X96801428Y-160458571D01*
X97015714Y-160530000D01*
X97087142Y-160601428D01*
X98015714Y-160458571D02*
X98301428Y-160458571D01*
X98444285Y-160530000D01*
X98587142Y-160672857D01*
X98658571Y-160958571D01*
X98658571Y-161458571D01*
X98587142Y-161744285D01*
X98444285Y-161887142D01*
X98301428Y-161958571D01*
X98015714Y-161958571D01*
X97872857Y-161887142D01*
X97730000Y-161744285D01*
X97658571Y-161458571D01*
X97658571Y-160958571D01*
X97730000Y-160672857D01*
X97872857Y-160530000D01*
X98015714Y-160458571D01*
X88158571Y-164365714D02*
X88087142Y-164437142D01*
X87872857Y-164508571D01*
X87730000Y-164508571D01*
X87515714Y-164437142D01*
X87372857Y-164294285D01*
X87301428Y-164151428D01*
X87230000Y-163865714D01*
X87230000Y-163651428D01*
X87301428Y-163365714D01*
X87372857Y-163222857D01*
X87515714Y-163080000D01*
X87730000Y-163008571D01*
X87872857Y-163008571D01*
X88087142Y-163080000D01*
X88158571Y-163151428D01*
X88801428Y-164508571D02*
X88801428Y-163008571D01*
X89444285Y-164508571D02*
X89444285Y-163722857D01*
X89372857Y-163580000D01*
X89230000Y-163508571D01*
X89015714Y-163508571D01*
X88872857Y-163580000D01*
X88801428Y-163651428D01*
X90158571Y-164508571D02*
X90158571Y-163508571D01*
X90158571Y-163794285D02*
X90230000Y-163651428D01*
X90301428Y-163580000D01*
X90444285Y-163508571D01*
X90587142Y-163508571D01*
X91087142Y-164508571D02*
X91087142Y-163508571D01*
X91087142Y-163008571D02*
X91015714Y-163080000D01*
X91087142Y-163151428D01*
X91158571Y-163080000D01*
X91087142Y-163008571D01*
X91087142Y-163151428D01*
X91730000Y-164437142D02*
X91872857Y-164508571D01*
X92158571Y-164508571D01*
X92301428Y-164437142D01*
X92372857Y-164294285D01*
X92372857Y-164222857D01*
X92301428Y-164080000D01*
X92158571Y-164008571D01*
X91944285Y-164008571D01*
X91801428Y-163937142D01*
X91730000Y-163794285D01*
X91730000Y-163722857D01*
X91801428Y-163580000D01*
X91944285Y-163508571D01*
X92158571Y-163508571D01*
X92301428Y-163580000D01*
X94087142Y-164437142D02*
X94301428Y-164508571D01*
X94658571Y-164508571D01*
X94801428Y-164437142D01*
X94872857Y-164365714D01*
X94944285Y-164222857D01*
X94944285Y-164080000D01*
X94872857Y-163937142D01*
X94801428Y-163865714D01*
X94658571Y-163794285D01*
X94372857Y-163722857D01*
X94230000Y-163651428D01*
X94158571Y-163580000D01*
X94087142Y-163437142D01*
X94087142Y-163294285D01*
X94158571Y-163151428D01*
X94230000Y-163080000D01*
X94372857Y-163008571D01*
X94730000Y-163008571D01*
X94944285Y-163080000D01*
X96230000Y-163508571D02*
X96230000Y-164508571D01*
X95587142Y-163508571D02*
X95587142Y-164294285D01*
X95658571Y-164437142D01*
X95801428Y-164508571D01*
X96015714Y-164508571D01*
X96158571Y-164437142D01*
X96230000Y-164365714D01*
X96730000Y-163508571D02*
X97301428Y-163508571D01*
X96944285Y-163008571D02*
X96944285Y-164294285D01*
X97015714Y-164437142D01*
X97158571Y-164508571D01*
X97301428Y-164508571D01*
X97587142Y-163508571D02*
X98158571Y-163508571D01*
X97801428Y-163008571D02*
X97801428Y-164294285D01*
X97872857Y-164437142D01*
X98015714Y-164508571D01*
X98158571Y-164508571D01*
X98872857Y-164508571D02*
X98730000Y-164437142D01*
X98658571Y-164365714D01*
X98587142Y-164222857D01*
X98587142Y-163794285D01*
X98658571Y-163651428D01*
X98730000Y-163580000D01*
X98872857Y-163508571D01*
X99087142Y-163508571D01*
X99230000Y-163580000D01*
X99301428Y-163651428D01*
X99372857Y-163794285D01*
X99372857Y-164222857D01*
X99301428Y-164365714D01*
X99230000Y-164437142D01*
X99087142Y-164508571D01*
X98872857Y-164508571D01*
X100015714Y-163508571D02*
X100015714Y-164508571D01*
X100015714Y-163651428D02*
X100087142Y-163580000D01*
X100230000Y-163508571D01*
X100444285Y-163508571D01*
X100587142Y-163580000D01*
X100658571Y-163722857D01*
X100658571Y-164508571D01*
X85872857Y-167058571D02*
X85372857Y-166344285D01*
X85015714Y-167058571D02*
X85015714Y-165558571D01*
X85587142Y-165558571D01*
X85730000Y-165630000D01*
X85801428Y-165701428D01*
X85872857Y-165844285D01*
X85872857Y-166058571D01*
X85801428Y-166201428D01*
X85730000Y-166272857D01*
X85587142Y-166344285D01*
X85015714Y-166344285D01*
X87087142Y-166987142D02*
X86944285Y-167058571D01*
X86658571Y-167058571D01*
X86515714Y-166987142D01*
X86444285Y-166844285D01*
X86444285Y-166272857D01*
X86515714Y-166130000D01*
X86658571Y-166058571D01*
X86944285Y-166058571D01*
X87087142Y-166130000D01*
X87158571Y-166272857D01*
X87158571Y-166415714D01*
X86444285Y-166558571D01*
X87658571Y-166058571D02*
X88015714Y-167058571D01*
X88372857Y-166058571D01*
X88872857Y-166630000D02*
X89587142Y-166630000D01*
X88730000Y-167058571D02*
X89230000Y-165558571D01*
X89730000Y-167058571D01*
X91301428Y-165701428D02*
X91372857Y-165630000D01*
X91515714Y-165558571D01*
X91872857Y-165558571D01*
X92015714Y-165630000D01*
X92087142Y-165701428D01*
X92158571Y-165844285D01*
X92158571Y-165987142D01*
X92087142Y-166201428D01*
X91230000Y-167058571D01*
X92158571Y-167058571D01*
X93087142Y-165558571D02*
X93230000Y-165558571D01*
X93372857Y-165630000D01*
X93444285Y-165701428D01*
X93515714Y-165844285D01*
X93587142Y-166130000D01*
X93587142Y-166487142D01*
X93515714Y-166772857D01*
X93444285Y-166915714D01*
X93372857Y-166987142D01*
X93230000Y-167058571D01*
X93087142Y-167058571D01*
X92944285Y-166987142D01*
X92872857Y-166915714D01*
X92801428Y-166772857D01*
X92730000Y-166487142D01*
X92730000Y-166130000D01*
X92801428Y-165844285D01*
X92872857Y-165701428D01*
X92944285Y-165630000D01*
X93087142Y-165558571D01*
X94230000Y-166487142D02*
X95372857Y-166487142D01*
X96872857Y-167058571D02*
X96015714Y-167058571D01*
X96444285Y-167058571D02*
X96444285Y-165558571D01*
X96301428Y-165772857D01*
X96158571Y-165915714D01*
X96015714Y-165987142D01*
X97801428Y-165558571D02*
X97944285Y-165558571D01*
X98087142Y-165630000D01*
X98158571Y-165701428D01*
X98230000Y-165844285D01*
X98301428Y-166130000D01*
X98301428Y-166487142D01*
X98230000Y-166772857D01*
X98158571Y-166915714D01*
X98087142Y-166987142D01*
X97944285Y-167058571D01*
X97801428Y-167058571D01*
X97658571Y-166987142D01*
X97587142Y-166915714D01*
X97515714Y-166772857D01*
X97444285Y-166487142D01*
X97444285Y-166130000D01*
X97515714Y-165844285D01*
X97587142Y-165701428D01*
X97658571Y-165630000D01*
X97801428Y-165558571D01*
X98944285Y-166487142D02*
X100087142Y-166487142D01*
X101587142Y-167058571D02*
X100730000Y-167058571D01*
X101158571Y-167058571D02*
X101158571Y-165558571D01*
X101015714Y-165772857D01*
X100872857Y-165915714D01*
X100730000Y-165987142D01*
X102444285Y-166201428D02*
X102301428Y-166130000D01*
X102230000Y-166058571D01*
X102158571Y-165915714D01*
X102158571Y-165844285D01*
X102230000Y-165701428D01*
X102301428Y-165630000D01*
X102444285Y-165558571D01*
X102730000Y-165558571D01*
X102872857Y-165630000D01*
X102944285Y-165701428D01*
X103015714Y-165844285D01*
X103015714Y-165915714D01*
X102944285Y-166058571D01*
X102872857Y-166130000D01*
X102730000Y-166201428D01*
X102444285Y-166201428D01*
X102301428Y-166272857D01*
X102230000Y-166344285D01*
X102158571Y-166487142D01*
X102158571Y-166772857D01*
X102230000Y-166915714D01*
X102301428Y-166987142D01*
X102444285Y-167058571D01*
X102730000Y-167058571D01*
X102872857Y-166987142D01*
X102944285Y-166915714D01*
X103015714Y-166772857D01*
X103015714Y-166487142D01*
X102944285Y-166344285D01*
X102872857Y-166272857D01*
X102730000Y-166201428D01*
D12*
X71644000Y-216622380D02*
X71834476Y-216622380D01*
X71929714Y-216670000D01*
X72024952Y-216765238D01*
X72072571Y-216955714D01*
X72072571Y-217289047D01*
X72024952Y-217479523D01*
X71929714Y-217574761D01*
X71834476Y-217622380D01*
X71644000Y-217622380D01*
X71548761Y-217574761D01*
X71453523Y-217479523D01*
X71405904Y-217289047D01*
X71405904Y-216955714D01*
X71453523Y-216765238D01*
X71548761Y-216670000D01*
X71644000Y-216622380D01*
X72501142Y-216622380D02*
X72501142Y-217431904D01*
X72548761Y-217527142D01*
X72596380Y-217574761D01*
X72691619Y-217622380D01*
X72882095Y-217622380D01*
X72977333Y-217574761D01*
X73024952Y-217527142D01*
X73072571Y-217431904D01*
X73072571Y-216622380D01*
X73405904Y-216622380D02*
X73977333Y-216622380D01*
X73691619Y-217622380D02*
X73691619Y-216622380D01*
D10*
X74930000Y-217170000D02*
X76200000Y-218440000D01*
X74930000Y-217170000D02*
X76200000Y-215900000D01*
X81280000Y-217170000D02*
X74930000Y-217170000D01*
X91440000Y-208026000D02*
X91440000Y-210566000D01*
D12*
X64278666Y-76525380D02*
X64278666Y-75525380D01*
X64612000Y-76239666D01*
X64945333Y-75525380D01*
X64945333Y-76525380D01*
X65612000Y-75525380D02*
X65802476Y-75525380D01*
X65897714Y-75573000D01*
X65992952Y-75668238D01*
X66040571Y-75858714D01*
X66040571Y-76192047D01*
X65992952Y-76382523D01*
X65897714Y-76477761D01*
X65802476Y-76525380D01*
X65612000Y-76525380D01*
X65516761Y-76477761D01*
X65421523Y-76382523D01*
X65373904Y-76192047D01*
X65373904Y-75858714D01*
X65421523Y-75668238D01*
X65516761Y-75573000D01*
X65612000Y-75525380D01*
X66469142Y-75525380D02*
X66469142Y-76334904D01*
X66516761Y-76430142D01*
X66564380Y-76477761D01*
X66659619Y-76525380D01*
X66850095Y-76525380D01*
X66945333Y-76477761D01*
X66992952Y-76430142D01*
X67040571Y-76334904D01*
X67040571Y-75525380D01*
X67516761Y-76525380D02*
X67516761Y-75525380D01*
X68088190Y-76525380D01*
X68088190Y-75525380D01*
X68421523Y-75525380D02*
X68992952Y-75525380D01*
X68707238Y-76525380D02*
X68707238Y-75525380D01*
X69945333Y-75525380D02*
X70516761Y-75525380D01*
X70231047Y-76525380D02*
X70231047Y-75525380D01*
X70850095Y-76525380D02*
X70850095Y-75525380D01*
X70850095Y-76001571D02*
X71421523Y-76001571D01*
X71421523Y-76525380D02*
X71421523Y-75525380D01*
X71897714Y-76525380D02*
X71897714Y-75525380D01*
X72326285Y-76477761D02*
X72469142Y-76525380D01*
X72707238Y-76525380D01*
X72802476Y-76477761D01*
X72850095Y-76430142D01*
X72897714Y-76334904D01*
X72897714Y-76239666D01*
X72850095Y-76144428D01*
X72802476Y-76096809D01*
X72707238Y-76049190D01*
X72516761Y-76001571D01*
X72421523Y-75953952D01*
X72373904Y-75906333D01*
X72326285Y-75811095D01*
X72326285Y-75715857D01*
X72373904Y-75620619D01*
X72421523Y-75573000D01*
X72516761Y-75525380D01*
X72754857Y-75525380D01*
X72897714Y-75573000D01*
X74040571Y-76477761D02*
X74183428Y-76525380D01*
X74421523Y-76525380D01*
X74516761Y-76477761D01*
X74564380Y-76430142D01*
X74612000Y-76334904D01*
X74612000Y-76239666D01*
X74564380Y-76144428D01*
X74516761Y-76096809D01*
X74421523Y-76049190D01*
X74231047Y-76001571D01*
X74135809Y-75953952D01*
X74088190Y-75906333D01*
X74040571Y-75811095D01*
X74040571Y-75715857D01*
X74088190Y-75620619D01*
X74135809Y-75573000D01*
X74231047Y-75525380D01*
X74469142Y-75525380D01*
X74612000Y-75573000D01*
X75040571Y-76525380D02*
X75040571Y-75525380D01*
X75516761Y-76525380D02*
X75516761Y-75525380D01*
X75754857Y-75525380D01*
X75897714Y-75573000D01*
X75992952Y-75668238D01*
X76040571Y-75763476D01*
X76088190Y-75953952D01*
X76088190Y-76096809D01*
X76040571Y-76287285D01*
X75992952Y-76382523D01*
X75897714Y-76477761D01*
X75754857Y-76525380D01*
X75516761Y-76525380D01*
X76516761Y-76001571D02*
X76850095Y-76001571D01*
X76992952Y-76525380D02*
X76516761Y-76525380D01*
X76516761Y-75525380D01*
X76992952Y-75525380D01*
X93035380Y-107211095D02*
X92035380Y-107211095D01*
X92035380Y-106830142D01*
X92083000Y-106734904D01*
X92130619Y-106687285D01*
X92225857Y-106639666D01*
X92368714Y-106639666D01*
X92463952Y-106687285D01*
X92511571Y-106734904D01*
X92559190Y-106830142D01*
X92559190Y-107211095D01*
X93035380Y-105734904D02*
X93035380Y-106211095D01*
X92035380Y-106211095D01*
X92035380Y-105401571D02*
X92844904Y-105401571D01*
X92940142Y-105353952D01*
X92987761Y-105306333D01*
X93035380Y-105211095D01*
X93035380Y-105020619D01*
X92987761Y-104925380D01*
X92940142Y-104877761D01*
X92844904Y-104830142D01*
X92035380Y-104830142D01*
X92083000Y-103830142D02*
X92035380Y-103925380D01*
X92035380Y-104068238D01*
X92083000Y-104211095D01*
X92178238Y-104306333D01*
X92273476Y-104353952D01*
X92463952Y-104401571D01*
X92606809Y-104401571D01*
X92797285Y-104353952D01*
X92892523Y-104306333D01*
X92987761Y-104211095D01*
X93035380Y-104068238D01*
X93035380Y-103973000D01*
X92987761Y-103830142D01*
X92940142Y-103782523D01*
X92606809Y-103782523D01*
X92606809Y-103973000D01*
X92035380Y-102734904D02*
X92035380Y-102163476D01*
X93035380Y-102449190D02*
X92035380Y-102449190D01*
X93035380Y-101830142D02*
X92035380Y-101830142D01*
X92511571Y-101830142D02*
X92511571Y-101258714D01*
X93035380Y-101258714D02*
X92035380Y-101258714D01*
X93035380Y-100782523D02*
X92035380Y-100782523D01*
X92987761Y-100353952D02*
X93035380Y-100211095D01*
X93035380Y-99973000D01*
X92987761Y-99877761D01*
X92940142Y-99830142D01*
X92844904Y-99782523D01*
X92749666Y-99782523D01*
X92654428Y-99830142D01*
X92606809Y-99877761D01*
X92559190Y-99973000D01*
X92511571Y-100163476D01*
X92463952Y-100258714D01*
X92416333Y-100306333D01*
X92321095Y-100353952D01*
X92225857Y-100353952D01*
X92130619Y-100306333D01*
X92083000Y-100258714D01*
X92035380Y-100163476D01*
X92035380Y-99925380D01*
X92083000Y-99782523D01*
X92987761Y-98639666D02*
X93035380Y-98496809D01*
X93035380Y-98258714D01*
X92987761Y-98163476D01*
X92940142Y-98115857D01*
X92844904Y-98068238D01*
X92749666Y-98068238D01*
X92654428Y-98115857D01*
X92606809Y-98163476D01*
X92559190Y-98258714D01*
X92511571Y-98449190D01*
X92463952Y-98544428D01*
X92416333Y-98592047D01*
X92321095Y-98639666D01*
X92225857Y-98639666D01*
X92130619Y-98592047D01*
X92083000Y-98544428D01*
X92035380Y-98449190D01*
X92035380Y-98211095D01*
X92083000Y-98068238D01*
X93035380Y-97639666D02*
X92035380Y-97639666D01*
X93035380Y-97163476D02*
X92035380Y-97163476D01*
X92035380Y-96925380D01*
X92083000Y-96782523D01*
X92178238Y-96687285D01*
X92273476Y-96639666D01*
X92463952Y-96592047D01*
X92606809Y-96592047D01*
X92797285Y-96639666D01*
X92892523Y-96687285D01*
X92987761Y-96782523D01*
X93035380Y-96925380D01*
X93035380Y-97163476D01*
X92511571Y-96163476D02*
X92511571Y-95830142D01*
X93035380Y-95687285D02*
X93035380Y-96163476D01*
X92035380Y-96163476D01*
X92035380Y-95687285D01*
D10*
X83820000Y-221488000D02*
X76708000Y-221488000D01*
X109924407Y-183649772D02*
X127958407Y-183649772D01*
D12*
X116784380Y-176767333D02*
X115784380Y-176767333D01*
X116498666Y-176434000D01*
X115784380Y-176100666D01*
X116784380Y-176100666D01*
X115784380Y-175434000D02*
X115784380Y-175243523D01*
X115832000Y-175148285D01*
X115927238Y-175053047D01*
X116117714Y-175005428D01*
X116451047Y-175005428D01*
X116641523Y-175053047D01*
X116736761Y-175148285D01*
X116784380Y-175243523D01*
X116784380Y-175434000D01*
X116736761Y-175529238D01*
X116641523Y-175624476D01*
X116451047Y-175672095D01*
X116117714Y-175672095D01*
X115927238Y-175624476D01*
X115832000Y-175529238D01*
X115784380Y-175434000D01*
X115784380Y-174576857D02*
X116593904Y-174576857D01*
X116689142Y-174529238D01*
X116736761Y-174481619D01*
X116784380Y-174386380D01*
X116784380Y-174195904D01*
X116736761Y-174100666D01*
X116689142Y-174053047D01*
X116593904Y-174005428D01*
X115784380Y-174005428D01*
X116784380Y-173529238D02*
X115784380Y-173529238D01*
X116784380Y-172957809D01*
X115784380Y-172957809D01*
X115784380Y-172624476D02*
X115784380Y-172053047D01*
X116784380Y-172338761D02*
X115784380Y-172338761D01*
X115784380Y-171100666D02*
X115784380Y-170529238D01*
X116784380Y-170814952D02*
X115784380Y-170814952D01*
X116784380Y-170195904D02*
X115784380Y-170195904D01*
X116260571Y-170195904D02*
X116260571Y-169624476D01*
X116784380Y-169624476D02*
X115784380Y-169624476D01*
X116784380Y-169148285D02*
X115784380Y-169148285D01*
X116736761Y-168719714D02*
X116784380Y-168576857D01*
X116784380Y-168338761D01*
X116736761Y-168243523D01*
X116689142Y-168195904D01*
X116593904Y-168148285D01*
X116498666Y-168148285D01*
X116403428Y-168195904D01*
X116355809Y-168243523D01*
X116308190Y-168338761D01*
X116260571Y-168529238D01*
X116212952Y-168624476D01*
X116165333Y-168672095D01*
X116070095Y-168719714D01*
X115974857Y-168719714D01*
X115879619Y-168672095D01*
X115832000Y-168624476D01*
X115784380Y-168529238D01*
X115784380Y-168291142D01*
X115832000Y-168148285D01*
X116736761Y-167005428D02*
X116784380Y-166862571D01*
X116784380Y-166624476D01*
X116736761Y-166529238D01*
X116689142Y-166481619D01*
X116593904Y-166434000D01*
X116498666Y-166434000D01*
X116403428Y-166481619D01*
X116355809Y-166529238D01*
X116308190Y-166624476D01*
X116260571Y-166814952D01*
X116212952Y-166910190D01*
X116165333Y-166957809D01*
X116070095Y-167005428D01*
X115974857Y-167005428D01*
X115879619Y-166957809D01*
X115832000Y-166910190D01*
X115784380Y-166814952D01*
X115784380Y-166576857D01*
X115832000Y-166434000D01*
X116784380Y-166005428D02*
X115784380Y-166005428D01*
X116784380Y-165529238D02*
X115784380Y-165529238D01*
X115784380Y-165291142D01*
X115832000Y-165148285D01*
X115927238Y-165053047D01*
X116022476Y-165005428D01*
X116212952Y-164957809D01*
X116355809Y-164957809D01*
X116546285Y-165005428D01*
X116641523Y-165053047D01*
X116736761Y-165148285D01*
X116784380Y-165291142D01*
X116784380Y-165529238D01*
X116260571Y-164529238D02*
X116260571Y-164195904D01*
X116784380Y-164053047D02*
X116784380Y-164529238D01*
X115784380Y-164529238D01*
X115784380Y-164053047D01*
D10*
X116713000Y-93218000D02*
X117856000Y-91948000D01*
X116713000Y-93218000D02*
X115570000Y-91948000D01*
X116713000Y-89408000D02*
X116713000Y-93218000D01*
D12*
X119086380Y-92447904D02*
X119895904Y-92447904D01*
X119991142Y-92400285D01*
X120038761Y-92352666D01*
X120086380Y-92257428D01*
X120086380Y-92066952D01*
X120038761Y-91971714D01*
X119991142Y-91924095D01*
X119895904Y-91876476D01*
X119086380Y-91876476D01*
X120038761Y-91447904D02*
X120086380Y-91305047D01*
X120086380Y-91066952D01*
X120038761Y-90971714D01*
X119991142Y-90924095D01*
X119895904Y-90876476D01*
X119800666Y-90876476D01*
X119705428Y-90924095D01*
X119657809Y-90971714D01*
X119610190Y-91066952D01*
X119562571Y-91257428D01*
X119514952Y-91352666D01*
X119467333Y-91400285D01*
X119372095Y-91447904D01*
X119276857Y-91447904D01*
X119181619Y-91400285D01*
X119134000Y-91352666D01*
X119086380Y-91257428D01*
X119086380Y-91019333D01*
X119134000Y-90876476D01*
X119562571Y-90114571D02*
X119610190Y-89971714D01*
X119657809Y-89924095D01*
X119753047Y-89876476D01*
X119895904Y-89876476D01*
X119991142Y-89924095D01*
X120038761Y-89971714D01*
X120086380Y-90066952D01*
X120086380Y-90447904D01*
X119086380Y-90447904D01*
X119086380Y-90114571D01*
X119134000Y-90019333D01*
X119181619Y-89971714D01*
X119276857Y-89924095D01*
X119372095Y-89924095D01*
X119467333Y-89971714D01*
X119514952Y-90019333D01*
X119562571Y-90114571D01*
X119562571Y-90447904D01*
X118054380Y-116061333D02*
X117054380Y-116061333D01*
X117768666Y-115728000D01*
X117054380Y-115394666D01*
X118054380Y-115394666D01*
X117054380Y-114728000D02*
X117054380Y-114537523D01*
X117102000Y-114442285D01*
X117197238Y-114347047D01*
X117387714Y-114299428D01*
X117721047Y-114299428D01*
X117911523Y-114347047D01*
X118006761Y-114442285D01*
X118054380Y-114537523D01*
X118054380Y-114728000D01*
X118006761Y-114823238D01*
X117911523Y-114918476D01*
X117721047Y-114966095D01*
X117387714Y-114966095D01*
X117197238Y-114918476D01*
X117102000Y-114823238D01*
X117054380Y-114728000D01*
X117054380Y-113870857D02*
X117863904Y-113870857D01*
X117959142Y-113823238D01*
X118006761Y-113775619D01*
X118054380Y-113680380D01*
X118054380Y-113489904D01*
X118006761Y-113394666D01*
X117959142Y-113347047D01*
X117863904Y-113299428D01*
X117054380Y-113299428D01*
X118054380Y-112823238D02*
X117054380Y-112823238D01*
X118054380Y-112251809D01*
X117054380Y-112251809D01*
X117054380Y-111918476D02*
X117054380Y-111347047D01*
X118054380Y-111632761D02*
X117054380Y-111632761D01*
X117054380Y-110394666D02*
X117054380Y-109823238D01*
X118054380Y-110108952D02*
X117054380Y-110108952D01*
X118054380Y-109489904D02*
X117054380Y-109489904D01*
X117530571Y-109489904D02*
X117530571Y-108918476D01*
X118054380Y-108918476D02*
X117054380Y-108918476D01*
X118054380Y-108442285D02*
X117054380Y-108442285D01*
X118006761Y-108013714D02*
X118054380Y-107870857D01*
X118054380Y-107632761D01*
X118006761Y-107537523D01*
X117959142Y-107489904D01*
X117863904Y-107442285D01*
X117768666Y-107442285D01*
X117673428Y-107489904D01*
X117625809Y-107537523D01*
X117578190Y-107632761D01*
X117530571Y-107823238D01*
X117482952Y-107918476D01*
X117435333Y-107966095D01*
X117340095Y-108013714D01*
X117244857Y-108013714D01*
X117149619Y-107966095D01*
X117102000Y-107918476D01*
X117054380Y-107823238D01*
X117054380Y-107585142D01*
X117102000Y-107442285D01*
X118006761Y-106299428D02*
X118054380Y-106156571D01*
X118054380Y-105918476D01*
X118006761Y-105823238D01*
X117959142Y-105775619D01*
X117863904Y-105728000D01*
X117768666Y-105728000D01*
X117673428Y-105775619D01*
X117625809Y-105823238D01*
X117578190Y-105918476D01*
X117530571Y-106108952D01*
X117482952Y-106204190D01*
X117435333Y-106251809D01*
X117340095Y-106299428D01*
X117244857Y-106299428D01*
X117149619Y-106251809D01*
X117102000Y-106204190D01*
X117054380Y-106108952D01*
X117054380Y-105870857D01*
X117102000Y-105728000D01*
X118054380Y-105299428D02*
X117054380Y-105299428D01*
X118054380Y-104823238D02*
X117054380Y-104823238D01*
X117054380Y-104585142D01*
X117102000Y-104442285D01*
X117197238Y-104347047D01*
X117292476Y-104299428D01*
X117482952Y-104251809D01*
X117625809Y-104251809D01*
X117816285Y-104299428D01*
X117911523Y-104347047D01*
X118006761Y-104442285D01*
X118054380Y-104585142D01*
X118054380Y-104823238D01*
X117530571Y-103823238D02*
X117530571Y-103489904D01*
X118054380Y-103347047D02*
X118054380Y-103823238D01*
X117054380Y-103823238D01*
X117054380Y-103347047D01*
D13*
X95250000Y-109728000D02*
X100330000Y-109728000D01*
D10*
X109924407Y-157741772D02*
X109924407Y-183649772D01*
X127958407Y-157741772D02*
X109924407Y-157741772D01*
X127958407Y-183649772D02*
X127958407Y-157741772D01*
X56527629Y-71765464D02*
X56527629Y-98689464D01*
X84467629Y-71765464D02*
X56527629Y-71765464D01*
X84467629Y-98689464D02*
X84467629Y-71765464D01*
X56527629Y-98689464D02*
X84467629Y-98689464D01*
D14*
G04 #@! TO.C,RV_UPOFF1*
X84670075Y-204453137D02*
G75*
G02X84314000Y-205995000I-3270075J-56863D01*
G01*
X82885202Y-207423387D02*
G75*
G02X79916000Y-207424000I-1485202J2913387D01*
G01*
X78486171Y-205993968D02*
G75*
G02X80336000Y-201418000I2913829J1483968D01*
G01*
X82464608Y-201418154D02*
G75*
G02X84670000Y-204510000I-1064608J-3091846D01*
G01*
G04 #@! TO.C,A1*
X108455000Y-132210000D02*
X126495000Y-132210000D01*
X108455000Y-88770000D02*
X108455000Y-132210000D01*
X126495000Y-88770000D02*
X108455000Y-88770000D01*
X123825000Y-91440000D02*
X126495000Y-91440000D01*
X123825000Y-127000000D02*
X123825000Y-91440000D01*
X123825000Y-127000000D02*
X126495000Y-127000000D01*
X111125000Y-91440000D02*
X108455000Y-91440000D01*
X111125000Y-129540000D02*
X111125000Y-91440000D01*
X111125000Y-129540000D02*
X108455000Y-129540000D01*
X126495000Y-132210000D02*
X126495000Y-129540000D01*
X126495000Y-127000000D02*
X126495000Y-88770000D01*
X123825000Y-129540000D02*
X126495000Y-129540000D01*
X123825000Y-127000000D02*
X123825000Y-129540000D01*
D15*
G04 #@! TO.C,RV_FREQ1*
X67310000Y-147066000D02*
X67310000Y-137414000D01*
X67310000Y-137414000D02*
X79375000Y-137414000D01*
X79375000Y-137414000D02*
X79375000Y-147066000D01*
X79375000Y-147066000D02*
X67310000Y-147066000D01*
X67310000Y-146812000D02*
X57150000Y-146812000D01*
X57150000Y-146812000D02*
X57150000Y-137668000D01*
X57150000Y-137668000D02*
X67310000Y-137668000D01*
X57150000Y-145288000D02*
X46990000Y-145288000D01*
X46990000Y-145288000D02*
X46990000Y-139192000D01*
X46990000Y-139192000D02*
X57150000Y-139192000D01*
X46990000Y-144018000D02*
X36830000Y-144018000D01*
X36830000Y-144018000D02*
X36830000Y-140462000D01*
X36830000Y-140462000D02*
X46990000Y-140462000D01*
D14*
G04 #@! TO.C,RG1*
X95242748Y-182932000D02*
X95765252Y-182932000D01*
X95242748Y-184352000D02*
X95765252Y-184352000D01*
G04 #@! TO.C,RF1*
X95242748Y-189940000D02*
X95765252Y-189940000D01*
X95242748Y-188520000D02*
X95765252Y-188520000D01*
D15*
G04 #@! TO.C,SW_PWR1*
X80264000Y-116840000D02*
X69342000Y-116840000D01*
X69342000Y-116840000D02*
X69342000Y-127000000D01*
X69342000Y-127000000D02*
X80264000Y-127000000D01*
X80264000Y-126492000D02*
X94234000Y-126492000D01*
X94234000Y-126365000D02*
X94234000Y-117475000D01*
X94234000Y-117348000D02*
X80264000Y-117348000D01*
X80264000Y-117348000D02*
X80264000Y-116840000D01*
X80264000Y-126492000D02*
X80264000Y-127000000D01*
X69342000Y-125730000D02*
X66294000Y-125730000D01*
X66294000Y-126238000D02*
X66294000Y-117602000D01*
X66294000Y-118110000D02*
X69342000Y-118110000D01*
X66040000Y-120396000D02*
X56896000Y-120396000D01*
X66040000Y-123444000D02*
X56896000Y-123444000D01*
X56896000Y-120396000D02*
X56896000Y-123444000D01*
X66040000Y-126238000D02*
X66040000Y-117602000D01*
X66040000Y-117602000D02*
X66294000Y-117602000D01*
X66294000Y-126238000D02*
X66040000Y-126238000D01*
D14*
G04 #@! TO.C,J_OUT1*
X91694000Y-205800000D02*
X91694000Y-203140000D01*
X91694000Y-205800000D02*
X94294000Y-205800000D01*
X94294000Y-205800000D02*
X94294000Y-203140000D01*
X91694000Y-203140000D02*
X94294000Y-203140000D01*
X89094000Y-203140000D02*
X90424000Y-203140000D01*
X89094000Y-204470000D02*
X89094000Y-203140000D01*
G04 #@! TO.C,J_PWR1*
X95190000Y-108010000D02*
X100390000Y-108010000D01*
X95190000Y-97790000D02*
X95190000Y-108010000D01*
X100390000Y-95190000D02*
X100390000Y-108010000D01*
X95190000Y-97790000D02*
X97790000Y-97790000D01*
X97790000Y-97790000D02*
X97790000Y-95190000D01*
X97790000Y-95190000D02*
X100390000Y-95190000D01*
X95190000Y-96520000D02*
X95190000Y-95190000D01*
X95190000Y-95190000D02*
X96520000Y-95190000D01*
D15*
G04 #@! TO.C,U_POT1*
X110787000Y-202570000D02*
X110787000Y-202545000D01*
X106637000Y-202570000D02*
X106637000Y-202455000D01*
X106637000Y-193670000D02*
X106637000Y-193785000D01*
X110787000Y-193670000D02*
X110787000Y-193785000D01*
X110787000Y-202570000D02*
X106637000Y-202570000D01*
X110787000Y-193670000D02*
X106637000Y-193670000D01*
X110787000Y-202545000D02*
X112162000Y-202545000D01*
D14*
G04 #@! TO.C,R_LOFF1*
X73398748Y-210110000D02*
X73921252Y-210110000D01*
X73398748Y-211530000D02*
X73921252Y-211530000D01*
G04 #@! TO.C,C1*
X95960000Y-89654748D02*
X95960000Y-90177252D01*
X94540000Y-89654748D02*
X94540000Y-90177252D01*
G04 #@! TO.C,C2*
X99620000Y-89654748D02*
X99620000Y-90177252D01*
X101040000Y-89654748D02*
X101040000Y-90177252D01*
G04 #@! TO.C,J_AD9833*
X111194407Y-161491772D02*
X112524407Y-161491772D01*
X112524407Y-161491772D02*
X112524407Y-162821772D01*
X112524407Y-164091772D02*
X112524407Y-179391772D01*
X109864407Y-179391772D02*
X112524407Y-179391772D01*
X109864407Y-164091772D02*
X109864407Y-179391772D01*
X109864407Y-164091772D02*
X112524407Y-164091772D01*
G04 #@! TO.C,J_AUX2MAIN2*
X84461681Y-73817698D02*
X79261681Y-73817698D01*
X84461681Y-84037698D02*
X84461681Y-73817698D01*
X79261681Y-86637698D02*
X79261681Y-73817698D01*
X84461681Y-84037698D02*
X81861681Y-84037698D01*
X81861681Y-84037698D02*
X81861681Y-86637698D01*
X81861681Y-86637698D02*
X79261681Y-86637698D01*
X84461681Y-85307698D02*
X84461681Y-86637698D01*
X84461681Y-86637698D02*
X83131681Y-86637698D01*
G04 #@! TO.C,J_MAIN2AUX1*
X128330000Y-69790000D02*
X123130000Y-69790000D01*
X128330000Y-80010000D02*
X128330000Y-69790000D01*
X123130000Y-82610000D02*
X123130000Y-69790000D01*
X128330000Y-80010000D02*
X125730000Y-80010000D01*
X125730000Y-80010000D02*
X125730000Y-82610000D01*
X125730000Y-82610000D02*
X123130000Y-82610000D01*
X128330000Y-81280000D02*
X128330000Y-82610000D01*
X128330000Y-82610000D02*
X127000000Y-82610000D01*
G04 #@! TO.C,J_OLEDCONNECTOR1*
X67995646Y-74523447D02*
X67995646Y-71863447D01*
X67995646Y-74523447D02*
X75675646Y-74523447D01*
X75675646Y-74523447D02*
X75675646Y-71863447D01*
X67995646Y-71863447D02*
X75675646Y-71863447D01*
X65395646Y-71863447D02*
X66725646Y-71863447D01*
X65395646Y-73193447D02*
X65395646Y-71863447D01*
G04 #@! TO.C,R_ISO1*
X89714000Y-209415748D02*
X89714000Y-209938252D01*
X91134000Y-209415748D02*
X91134000Y-209938252D01*
G04 #@! TO.C,R_MIX1*
X82176252Y-193750000D02*
X81653748Y-193750000D01*
X82176252Y-192330000D02*
X81653748Y-192330000D01*
G04 #@! TO.C,R_MIX2*
X74160748Y-186130000D02*
X74683252Y-186130000D01*
X74160748Y-184710000D02*
X74683252Y-184710000D01*
G04 #@! TO.C,R_VEL1*
X72592000Y-160266748D02*
X72592000Y-160789252D01*
X71172000Y-160266748D02*
X71172000Y-160789252D01*
G04 #@! TO.C,SW_FUNC1*
X61179681Y-105452698D02*
X61179681Y-103952698D01*
X59929681Y-101452698D02*
X55429681Y-101452698D01*
X54179681Y-103952698D02*
X54179681Y-105452698D01*
X55429681Y-107952698D02*
X59929681Y-107952698D01*
G04 #@! TO.C,SW_MODE1*
X68129681Y-107952698D02*
X72629681Y-107952698D01*
X66879681Y-103952698D02*
X66879681Y-105452698D01*
X72629681Y-101452698D02*
X68129681Y-101452698D01*
X73879681Y-105452698D02*
X73879681Y-103952698D01*
G04 #@! TO.C,SW_RANGE1*
X80575681Y-107952698D02*
X85075681Y-107952698D01*
X79325681Y-103952698D02*
X79325681Y-105452698D01*
X85075681Y-101452698D02*
X80575681Y-101452698D01*
X86325681Y-105452698D02*
X86325681Y-103952698D01*
G04 #@! TO.C,U1*
X92670000Y-82328000D02*
X102910000Y-82328000D01*
X92670000Y-86969000D02*
X102910000Y-86969000D01*
X92670000Y-82328000D02*
X92670000Y-86969000D01*
X102910000Y-82328000D02*
X102910000Y-86969000D01*
X92670000Y-83838000D02*
X102910000Y-83838000D01*
X95940000Y-82328000D02*
X95940000Y-83838000D01*
X99641000Y-82328000D02*
X99641000Y-83838000D01*
G04 #@! TO.C,C_GAIN1*
X100405000Y-216908748D02*
X100405000Y-217431252D01*
X98985000Y-216908748D02*
X98985000Y-217431252D01*
G04 #@! TO.C,R_HIOFF1*
X81541252Y-210110000D02*
X81018748Y-210110000D01*
X81541252Y-211530000D02*
X81018748Y-211530000D01*
G04 #@! TO.C,TP_OFF1*
X76130000Y-180340000D02*
G75*
G03X76130000Y-180340000I-1200000J0D01*
G01*
G04 #@! TO.C,R_MIX3*
X113590000Y-194825252D02*
X113590000Y-194302748D01*
X115010000Y-194825252D02*
X115010000Y-194302748D01*
G04 #@! TO.C,RF2*
X95623748Y-215190000D02*
X96146252Y-215190000D01*
X95623748Y-216610000D02*
X96146252Y-216610000D01*
G04 #@! TO.C,ROFF1*
X108846252Y-203760000D02*
X108323748Y-203760000D01*
X108846252Y-205180000D02*
X108323748Y-205180000D01*
G04 #@! TO.C,ROFF2*
X116892000Y-194302748D02*
X116892000Y-194825252D01*
X118312000Y-194302748D02*
X118312000Y-194825252D01*
G04 #@! TO.C,CF2*
X95623748Y-217730000D02*
X96146252Y-217730000D01*
X95623748Y-219150000D02*
X96146252Y-219150000D01*
D15*
G04 #@! TO.C,U_BUFF1*
X97579000Y-196200000D02*
X98979000Y-196200000D01*
X97579000Y-191100000D02*
X93429000Y-191100000D01*
X97579000Y-196250000D02*
X93429000Y-196250000D01*
X97579000Y-191100000D02*
X97579000Y-191245000D01*
X93429000Y-191100000D02*
X93429000Y-191245000D01*
X93429000Y-196250000D02*
X93429000Y-196105000D01*
X97579000Y-196250000D02*
X97579000Y-196200000D01*
G04 #@! TO.C,U_MIX1*
X97960000Y-214030000D02*
X97960000Y-213980000D01*
X93810000Y-214030000D02*
X93810000Y-213885000D01*
X93810000Y-208880000D02*
X93810000Y-209025000D01*
X97960000Y-208880000D02*
X97960000Y-209025000D01*
X97960000Y-214030000D02*
X93810000Y-214030000D01*
X97960000Y-208880000D02*
X93810000Y-208880000D01*
X97960000Y-213980000D02*
X99360000Y-213980000D01*
D14*
G04 #@! TO.C,R_PHASE1*
X77926000Y-160266748D02*
X77926000Y-160789252D01*
X76506000Y-160266748D02*
X76506000Y-160789252D01*
D15*
G04 #@! TO.C,RV_AMP1*
X67310000Y-197866000D02*
X67310000Y-188214000D01*
X67310000Y-188214000D02*
X79375000Y-188214000D01*
X79375000Y-188214000D02*
X79375000Y-197866000D01*
X79375000Y-197866000D02*
X67310000Y-197866000D01*
X67310000Y-197612000D02*
X57150000Y-197612000D01*
X57150000Y-197612000D02*
X57150000Y-188468000D01*
X57150000Y-188468000D02*
X67310000Y-188468000D01*
X57150000Y-196088000D02*
X46990000Y-196088000D01*
X46990000Y-196088000D02*
X46990000Y-189992000D01*
X46990000Y-189992000D02*
X57150000Y-189992000D01*
X46990000Y-194818000D02*
X36830000Y-194818000D01*
X36830000Y-194818000D02*
X36830000Y-191262000D01*
X36830000Y-191262000D02*
X46990000Y-191262000D01*
G04 #@! TO.C,RV_TIME1*
X36830000Y-165862000D02*
X46990000Y-165862000D01*
X36830000Y-169418000D02*
X36830000Y-165862000D01*
X46990000Y-169418000D02*
X36830000Y-169418000D01*
X46990000Y-164592000D02*
X57150000Y-164592000D01*
X46990000Y-170688000D02*
X46990000Y-164592000D01*
X57150000Y-170688000D02*
X46990000Y-170688000D01*
X57150000Y-163068000D02*
X67310000Y-163068000D01*
X57150000Y-172212000D02*
X57150000Y-163068000D01*
X67310000Y-172212000D02*
X57150000Y-172212000D01*
X79375000Y-172466000D02*
X67310000Y-172466000D01*
X79375000Y-162814000D02*
X79375000Y-172466000D01*
X67310000Y-162814000D02*
X79375000Y-162814000D01*
X67310000Y-172466000D02*
X67310000Y-162814000D01*
D14*
G04 #@! TO.C,RV_LOWOFF1*
X74764608Y-201418154D02*
G75*
G02X76970000Y-204510000I-1064608J-3091846D01*
G01*
X70786171Y-205993968D02*
G75*
G02X72636000Y-201418000I2913829J1483968D01*
G01*
X75185202Y-207423387D02*
G75*
G02X72216000Y-207424000I-1485202J2913387D01*
G01*
X76970075Y-204453137D02*
G75*
G02X76614000Y-205995000I-3270075J-56863D01*
G01*
G04 #@! TO.C,CF1*
X95242748Y-185726000D02*
X95765252Y-185726000D01*
X95242748Y-187146000D02*
X95765252Y-187146000D01*
G04 #@! TO.C,RV_UPOFF1*
D16*
X79669523Y-200124190D02*
X79502857Y-199886095D01*
X79383809Y-200124190D02*
X79383809Y-199624190D01*
X79574285Y-199624190D01*
X79621904Y-199648000D01*
X79645714Y-199671809D01*
X79669523Y-199719428D01*
X79669523Y-199790857D01*
X79645714Y-199838476D01*
X79621904Y-199862285D01*
X79574285Y-199886095D01*
X79383809Y-199886095D01*
X79812380Y-199624190D02*
X79979047Y-200124190D01*
X80145714Y-199624190D01*
X80193333Y-200171809D02*
X80574285Y-200171809D01*
X80693333Y-199624190D02*
X80693333Y-200028952D01*
X80717142Y-200076571D01*
X80740952Y-200100380D01*
X80788571Y-200124190D01*
X80883809Y-200124190D01*
X80931428Y-200100380D01*
X80955238Y-200076571D01*
X80979047Y-200028952D01*
X80979047Y-199624190D01*
X81217142Y-200124190D02*
X81217142Y-199624190D01*
X81407619Y-199624190D01*
X81455238Y-199648000D01*
X81479047Y-199671809D01*
X81502857Y-199719428D01*
X81502857Y-199790857D01*
X81479047Y-199838476D01*
X81455238Y-199862285D01*
X81407619Y-199886095D01*
X81217142Y-199886095D01*
X81812380Y-199624190D02*
X81907619Y-199624190D01*
X81955238Y-199648000D01*
X82002857Y-199695619D01*
X82026666Y-199790857D01*
X82026666Y-199957523D01*
X82002857Y-200052761D01*
X81955238Y-200100380D01*
X81907619Y-200124190D01*
X81812380Y-200124190D01*
X81764761Y-200100380D01*
X81717142Y-200052761D01*
X81693333Y-199957523D01*
X81693333Y-199790857D01*
X81717142Y-199695619D01*
X81764761Y-199648000D01*
X81812380Y-199624190D01*
X82407619Y-199862285D02*
X82240952Y-199862285D01*
X82240952Y-200124190D02*
X82240952Y-199624190D01*
X82479047Y-199624190D01*
X82836190Y-199862285D02*
X82669523Y-199862285D01*
X82669523Y-200124190D02*
X82669523Y-199624190D01*
X82907619Y-199624190D01*
X83360000Y-200124190D02*
X83074285Y-200124190D01*
X83217142Y-200124190D02*
X83217142Y-199624190D01*
X83169523Y-199695619D01*
X83121904Y-199743238D01*
X83074285Y-199767047D01*
G04 #@! TO.C,A1*
X109116857Y-87967333D02*
X109354952Y-87967333D01*
X109069238Y-88110190D02*
X109235904Y-87610190D01*
X109402571Y-88110190D01*
X109831142Y-88110190D02*
X109545428Y-88110190D01*
X109688285Y-88110190D02*
X109688285Y-87610190D01*
X109640666Y-87681619D01*
X109593047Y-87729238D01*
X109545428Y-87753047D01*
G04 #@! TO.C,RV_FREQ1*
X76537523Y-136878190D02*
X76370857Y-136640095D01*
X76251809Y-136878190D02*
X76251809Y-136378190D01*
X76442285Y-136378190D01*
X76489904Y-136402000D01*
X76513714Y-136425809D01*
X76537523Y-136473428D01*
X76537523Y-136544857D01*
X76513714Y-136592476D01*
X76489904Y-136616285D01*
X76442285Y-136640095D01*
X76251809Y-136640095D01*
X76680380Y-136378190D02*
X76847047Y-136878190D01*
X77013714Y-136378190D01*
X77061333Y-136925809D02*
X77442285Y-136925809D01*
X77728000Y-136616285D02*
X77561333Y-136616285D01*
X77561333Y-136878190D02*
X77561333Y-136378190D01*
X77799428Y-136378190D01*
X78275619Y-136878190D02*
X78108952Y-136640095D01*
X77989904Y-136878190D02*
X77989904Y-136378190D01*
X78180380Y-136378190D01*
X78228000Y-136402000D01*
X78251809Y-136425809D01*
X78275619Y-136473428D01*
X78275619Y-136544857D01*
X78251809Y-136592476D01*
X78228000Y-136616285D01*
X78180380Y-136640095D01*
X77989904Y-136640095D01*
X78489904Y-136616285D02*
X78656571Y-136616285D01*
X78728000Y-136878190D02*
X78489904Y-136878190D01*
X78489904Y-136378190D01*
X78728000Y-136378190D01*
X79275619Y-136925809D02*
X79228000Y-136902000D01*
X79180380Y-136854380D01*
X79108952Y-136782952D01*
X79061333Y-136759142D01*
X79013714Y-136759142D01*
X79037523Y-136878190D02*
X78989904Y-136854380D01*
X78942285Y-136806761D01*
X78918476Y-136711523D01*
X78918476Y-136544857D01*
X78942285Y-136449619D01*
X78989904Y-136402000D01*
X79037523Y-136378190D01*
X79132761Y-136378190D01*
X79180380Y-136402000D01*
X79228000Y-136449619D01*
X79251809Y-136544857D01*
X79251809Y-136711523D01*
X79228000Y-136806761D01*
X79180380Y-136854380D01*
X79132761Y-136878190D01*
X79037523Y-136878190D01*
X79728000Y-136878190D02*
X79442285Y-136878190D01*
X79585142Y-136878190D02*
X79585142Y-136378190D01*
X79537523Y-136449619D01*
X79489904Y-136497238D01*
X79442285Y-136521047D01*
G04 #@! TO.C,RG1*
X92122666Y-183868190D02*
X91956000Y-183630095D01*
X91836952Y-183868190D02*
X91836952Y-183368190D01*
X92027428Y-183368190D01*
X92075047Y-183392000D01*
X92098857Y-183415809D01*
X92122666Y-183463428D01*
X92122666Y-183534857D01*
X92098857Y-183582476D01*
X92075047Y-183606285D01*
X92027428Y-183630095D01*
X91836952Y-183630095D01*
X92598857Y-183392000D02*
X92551238Y-183368190D01*
X92479809Y-183368190D01*
X92408380Y-183392000D01*
X92360761Y-183439619D01*
X92336952Y-183487238D01*
X92313142Y-183582476D01*
X92313142Y-183653904D01*
X92336952Y-183749142D01*
X92360761Y-183796761D01*
X92408380Y-183844380D01*
X92479809Y-183868190D01*
X92527428Y-183868190D01*
X92598857Y-183844380D01*
X92622666Y-183820571D01*
X92622666Y-183653904D01*
X92527428Y-183653904D01*
X93098857Y-183868190D02*
X92813142Y-183868190D01*
X92956000Y-183868190D02*
X92956000Y-183368190D01*
X92908380Y-183439619D01*
X92860761Y-183487238D01*
X92813142Y-183511047D01*
G04 #@! TO.C,RF1*
X92158380Y-189456190D02*
X91991714Y-189218095D01*
X91872666Y-189456190D02*
X91872666Y-188956190D01*
X92063142Y-188956190D01*
X92110761Y-188980000D01*
X92134571Y-189003809D01*
X92158380Y-189051428D01*
X92158380Y-189122857D01*
X92134571Y-189170476D01*
X92110761Y-189194285D01*
X92063142Y-189218095D01*
X91872666Y-189218095D01*
X92539333Y-189194285D02*
X92372666Y-189194285D01*
X92372666Y-189456190D02*
X92372666Y-188956190D01*
X92610761Y-188956190D01*
X93063142Y-189456190D02*
X92777428Y-189456190D01*
X92920285Y-189456190D02*
X92920285Y-188956190D01*
X92872666Y-189027619D01*
X92825047Y-189075238D01*
X92777428Y-189099047D01*
G04 #@! TO.C,SW_PWR1*
X69985142Y-128091380D02*
X70056571Y-128115190D01*
X70175619Y-128115190D01*
X70223238Y-128091380D01*
X70247047Y-128067571D01*
X70270857Y-128019952D01*
X70270857Y-127972333D01*
X70247047Y-127924714D01*
X70223238Y-127900904D01*
X70175619Y-127877095D01*
X70080380Y-127853285D01*
X70032761Y-127829476D01*
X70008952Y-127805666D01*
X69985142Y-127758047D01*
X69985142Y-127710428D01*
X70008952Y-127662809D01*
X70032761Y-127639000D01*
X70080380Y-127615190D01*
X70199428Y-127615190D01*
X70270857Y-127639000D01*
X70437523Y-127615190D02*
X70556571Y-128115190D01*
X70651809Y-127758047D01*
X70747047Y-128115190D01*
X70866095Y-127615190D01*
X70937523Y-128162809D02*
X71318476Y-128162809D01*
X71437523Y-128115190D02*
X71437523Y-127615190D01*
X71628000Y-127615190D01*
X71675619Y-127639000D01*
X71699428Y-127662809D01*
X71723238Y-127710428D01*
X71723238Y-127781857D01*
X71699428Y-127829476D01*
X71675619Y-127853285D01*
X71628000Y-127877095D01*
X71437523Y-127877095D01*
X71889904Y-127615190D02*
X72008952Y-128115190D01*
X72104190Y-127758047D01*
X72199428Y-128115190D01*
X72318476Y-127615190D01*
X72794666Y-128115190D02*
X72628000Y-127877095D01*
X72508952Y-128115190D02*
X72508952Y-127615190D01*
X72699428Y-127615190D01*
X72747047Y-127639000D01*
X72770857Y-127662809D01*
X72794666Y-127710428D01*
X72794666Y-127781857D01*
X72770857Y-127829476D01*
X72747047Y-127853285D01*
X72699428Y-127877095D01*
X72508952Y-127877095D01*
X73270857Y-128115190D02*
X72985142Y-128115190D01*
X73128000Y-128115190D02*
X73128000Y-127615190D01*
X73080380Y-127686619D01*
X73032761Y-127734238D01*
X72985142Y-127758047D01*
G04 #@! TO.C,J_OUT1*
X90622571Y-206736190D02*
X90622571Y-207093333D01*
X90598761Y-207164761D01*
X90551142Y-207212380D01*
X90479714Y-207236190D01*
X90432095Y-207236190D01*
X90741619Y-207283809D02*
X91122571Y-207283809D01*
X91336857Y-206736190D02*
X91432095Y-206736190D01*
X91479714Y-206760000D01*
X91527333Y-206807619D01*
X91551142Y-206902857D01*
X91551142Y-207069523D01*
X91527333Y-207164761D01*
X91479714Y-207212380D01*
X91432095Y-207236190D01*
X91336857Y-207236190D01*
X91289238Y-207212380D01*
X91241619Y-207164761D01*
X91217809Y-207069523D01*
X91217809Y-206902857D01*
X91241619Y-206807619D01*
X91289238Y-206760000D01*
X91336857Y-206736190D01*
X91765428Y-206736190D02*
X91765428Y-207140952D01*
X91789238Y-207188571D01*
X91813047Y-207212380D01*
X91860666Y-207236190D01*
X91955904Y-207236190D01*
X92003523Y-207212380D01*
X92027333Y-207188571D01*
X92051142Y-207140952D01*
X92051142Y-206736190D01*
X92217809Y-206736190D02*
X92503523Y-206736190D01*
X92360666Y-207236190D02*
X92360666Y-206736190D01*
X92932095Y-207236190D02*
X92646380Y-207236190D01*
X92789238Y-207236190D02*
X92789238Y-206736190D01*
X92741619Y-206807619D01*
X92694000Y-206855238D01*
X92646380Y-206879047D01*
G04 #@! TO.C,J_PWR1*
X96774142Y-93960190D02*
X96774142Y-94317333D01*
X96750333Y-94388761D01*
X96702714Y-94436380D01*
X96631285Y-94460190D01*
X96583666Y-94460190D01*
X96893190Y-94507809D02*
X97274142Y-94507809D01*
X97393190Y-94460190D02*
X97393190Y-93960190D01*
X97583666Y-93960190D01*
X97631285Y-93984000D01*
X97655095Y-94007809D01*
X97678904Y-94055428D01*
X97678904Y-94126857D01*
X97655095Y-94174476D01*
X97631285Y-94198285D01*
X97583666Y-94222095D01*
X97393190Y-94222095D01*
X97845571Y-93960190D02*
X97964619Y-94460190D01*
X98059857Y-94103047D01*
X98155095Y-94460190D01*
X98274142Y-93960190D01*
X98750333Y-94460190D02*
X98583666Y-94222095D01*
X98464619Y-94460190D02*
X98464619Y-93960190D01*
X98655095Y-93960190D01*
X98702714Y-93984000D01*
X98726523Y-94007809D01*
X98750333Y-94055428D01*
X98750333Y-94126857D01*
X98726523Y-94174476D01*
X98702714Y-94198285D01*
X98655095Y-94222095D01*
X98464619Y-94222095D01*
X99226523Y-94460190D02*
X98940809Y-94460190D01*
X99083666Y-94460190D02*
X99083666Y-93960190D01*
X99036047Y-94031619D01*
X98988428Y-94079238D01*
X98940809Y-94103047D01*
G04 #@! TO.C,U_POT1*
X107692190Y-192258190D02*
X107692190Y-192662952D01*
X107716000Y-192710571D01*
X107739809Y-192734380D01*
X107787428Y-192758190D01*
X107882666Y-192758190D01*
X107930285Y-192734380D01*
X107954095Y-192710571D01*
X107977904Y-192662952D01*
X107977904Y-192258190D01*
X108096952Y-192805809D02*
X108477904Y-192805809D01*
X108596952Y-192758190D02*
X108596952Y-192258190D01*
X108787428Y-192258190D01*
X108835047Y-192282000D01*
X108858857Y-192305809D01*
X108882666Y-192353428D01*
X108882666Y-192424857D01*
X108858857Y-192472476D01*
X108835047Y-192496285D01*
X108787428Y-192520095D01*
X108596952Y-192520095D01*
X109192190Y-192258190D02*
X109287428Y-192258190D01*
X109335047Y-192282000D01*
X109382666Y-192329619D01*
X109406476Y-192424857D01*
X109406476Y-192591523D01*
X109382666Y-192686761D01*
X109335047Y-192734380D01*
X109287428Y-192758190D01*
X109192190Y-192758190D01*
X109144571Y-192734380D01*
X109096952Y-192686761D01*
X109073142Y-192591523D01*
X109073142Y-192424857D01*
X109096952Y-192329619D01*
X109144571Y-192282000D01*
X109192190Y-192258190D01*
X109549333Y-192258190D02*
X109835047Y-192258190D01*
X109692190Y-192758190D02*
X109692190Y-192258190D01*
X110263619Y-192758190D02*
X109977904Y-192758190D01*
X110120761Y-192758190D02*
X110120761Y-192258190D01*
X110073142Y-192329619D01*
X110025523Y-192377238D01*
X109977904Y-192401047D01*
G04 #@! TO.C,R_LOFF1*
X72239333Y-212570190D02*
X72072666Y-212332095D01*
X71953619Y-212570190D02*
X71953619Y-212070190D01*
X72144095Y-212070190D01*
X72191714Y-212094000D01*
X72215523Y-212117809D01*
X72239333Y-212165428D01*
X72239333Y-212236857D01*
X72215523Y-212284476D01*
X72191714Y-212308285D01*
X72144095Y-212332095D01*
X71953619Y-212332095D01*
X72334571Y-212617809D02*
X72715523Y-212617809D01*
X73072666Y-212570190D02*
X72834571Y-212570190D01*
X72834571Y-212070190D01*
X73334571Y-212070190D02*
X73429809Y-212070190D01*
X73477428Y-212094000D01*
X73525047Y-212141619D01*
X73548857Y-212236857D01*
X73548857Y-212403523D01*
X73525047Y-212498761D01*
X73477428Y-212546380D01*
X73429809Y-212570190D01*
X73334571Y-212570190D01*
X73286952Y-212546380D01*
X73239333Y-212498761D01*
X73215523Y-212403523D01*
X73215523Y-212236857D01*
X73239333Y-212141619D01*
X73286952Y-212094000D01*
X73334571Y-212070190D01*
X73929809Y-212308285D02*
X73763142Y-212308285D01*
X73763142Y-212570190D02*
X73763142Y-212070190D01*
X74001238Y-212070190D01*
X74358380Y-212308285D02*
X74191714Y-212308285D01*
X74191714Y-212570190D02*
X74191714Y-212070190D01*
X74429809Y-212070190D01*
X74882190Y-212570190D02*
X74596476Y-212570190D01*
X74739333Y-212570190D02*
X74739333Y-212070190D01*
X74691714Y-212141619D01*
X74644095Y-212189238D01*
X74596476Y-212213047D01*
G04 #@! TO.C,C1*
X95166666Y-92507571D02*
X95142857Y-92531380D01*
X95071428Y-92555190D01*
X95023809Y-92555190D01*
X94952380Y-92531380D01*
X94904761Y-92483761D01*
X94880952Y-92436142D01*
X94857142Y-92340904D01*
X94857142Y-92269476D01*
X94880952Y-92174238D01*
X94904761Y-92126619D01*
X94952380Y-92079000D01*
X95023809Y-92055190D01*
X95071428Y-92055190D01*
X95142857Y-92079000D01*
X95166666Y-92102809D01*
X95642857Y-92555190D02*
X95357142Y-92555190D01*
X95500000Y-92555190D02*
X95500000Y-92055190D01*
X95452380Y-92126619D01*
X95404761Y-92174238D01*
X95357142Y-92198047D01*
G04 #@! TO.C,C2*
X100246666Y-92507571D02*
X100222857Y-92531380D01*
X100151428Y-92555190D01*
X100103809Y-92555190D01*
X100032380Y-92531380D01*
X99984761Y-92483761D01*
X99960952Y-92436142D01*
X99937142Y-92340904D01*
X99937142Y-92269476D01*
X99960952Y-92174238D01*
X99984761Y-92126619D01*
X100032380Y-92079000D01*
X100103809Y-92055190D01*
X100151428Y-92055190D01*
X100222857Y-92079000D01*
X100246666Y-92102809D01*
X100437142Y-92102809D02*
X100460952Y-92079000D01*
X100508571Y-92055190D01*
X100627619Y-92055190D01*
X100675238Y-92079000D01*
X100699047Y-92102809D01*
X100722857Y-92150428D01*
X100722857Y-92198047D01*
X100699047Y-92269476D01*
X100413333Y-92555190D01*
X100722857Y-92555190D01*
G04 #@! TO.C,J_AD9833*
X110478285Y-156444190D02*
X110478285Y-156801333D01*
X110454476Y-156872761D01*
X110406857Y-156920380D01*
X110335428Y-156944190D01*
X110287809Y-156944190D01*
X110597333Y-156991809D02*
X110978285Y-156991809D01*
X111073523Y-156801333D02*
X111311619Y-156801333D01*
X111025904Y-156944190D02*
X111192571Y-156444190D01*
X111359238Y-156944190D01*
X111525904Y-156944190D02*
X111525904Y-156444190D01*
X111644952Y-156444190D01*
X111716380Y-156468000D01*
X111764000Y-156515619D01*
X111787809Y-156563238D01*
X111811619Y-156658476D01*
X111811619Y-156729904D01*
X111787809Y-156825142D01*
X111764000Y-156872761D01*
X111716380Y-156920380D01*
X111644952Y-156944190D01*
X111525904Y-156944190D01*
X112049714Y-156944190D02*
X112144952Y-156944190D01*
X112192571Y-156920380D01*
X112216380Y-156896571D01*
X112264000Y-156825142D01*
X112287809Y-156729904D01*
X112287809Y-156539428D01*
X112264000Y-156491809D01*
X112240190Y-156468000D01*
X112192571Y-156444190D01*
X112097333Y-156444190D01*
X112049714Y-156468000D01*
X112025904Y-156491809D01*
X112002095Y-156539428D01*
X112002095Y-156658476D01*
X112025904Y-156706095D01*
X112049714Y-156729904D01*
X112097333Y-156753714D01*
X112192571Y-156753714D01*
X112240190Y-156729904D01*
X112264000Y-156706095D01*
X112287809Y-156658476D01*
X112573523Y-156658476D02*
X112525904Y-156634666D01*
X112502095Y-156610857D01*
X112478285Y-156563238D01*
X112478285Y-156539428D01*
X112502095Y-156491809D01*
X112525904Y-156468000D01*
X112573523Y-156444190D01*
X112668761Y-156444190D01*
X112716380Y-156468000D01*
X112740190Y-156491809D01*
X112764000Y-156539428D01*
X112764000Y-156563238D01*
X112740190Y-156610857D01*
X112716380Y-156634666D01*
X112668761Y-156658476D01*
X112573523Y-156658476D01*
X112525904Y-156682285D01*
X112502095Y-156706095D01*
X112478285Y-156753714D01*
X112478285Y-156848952D01*
X112502095Y-156896571D01*
X112525904Y-156920380D01*
X112573523Y-156944190D01*
X112668761Y-156944190D01*
X112716380Y-156920380D01*
X112740190Y-156896571D01*
X112764000Y-156848952D01*
X112764000Y-156753714D01*
X112740190Y-156706095D01*
X112716380Y-156682285D01*
X112668761Y-156658476D01*
X112930666Y-156444190D02*
X113240190Y-156444190D01*
X113073523Y-156634666D01*
X113144952Y-156634666D01*
X113192571Y-156658476D01*
X113216380Y-156682285D01*
X113240190Y-156729904D01*
X113240190Y-156848952D01*
X113216380Y-156896571D01*
X113192571Y-156920380D01*
X113144952Y-156944190D01*
X113002095Y-156944190D01*
X112954476Y-156920380D01*
X112930666Y-156896571D01*
X113406857Y-156444190D02*
X113716380Y-156444190D01*
X113549714Y-156634666D01*
X113621142Y-156634666D01*
X113668761Y-156658476D01*
X113692571Y-156682285D01*
X113716380Y-156729904D01*
X113716380Y-156848952D01*
X113692571Y-156896571D01*
X113668761Y-156920380D01*
X113621142Y-156944190D01*
X113478285Y-156944190D01*
X113430666Y-156920380D01*
X113406857Y-156896571D01*
G04 #@! TO.C,J_AUX2MAIN2*
X79544204Y-72841888D02*
X79544204Y-73199031D01*
X79520395Y-73270459D01*
X79472776Y-73318078D01*
X79401347Y-73341888D01*
X79353728Y-73341888D01*
X79663252Y-73389507D02*
X80044204Y-73389507D01*
X80139442Y-73199031D02*
X80377538Y-73199031D01*
X80091823Y-73341888D02*
X80258490Y-72841888D01*
X80425157Y-73341888D01*
X80591823Y-72841888D02*
X80591823Y-73246650D01*
X80615633Y-73294269D01*
X80639442Y-73318078D01*
X80687061Y-73341888D01*
X80782300Y-73341888D01*
X80829919Y-73318078D01*
X80853728Y-73294269D01*
X80877538Y-73246650D01*
X80877538Y-72841888D01*
X81068014Y-72841888D02*
X81401347Y-73341888D01*
X81401347Y-72841888D02*
X81068014Y-73341888D01*
X81568014Y-72889507D02*
X81591823Y-72865698D01*
X81639442Y-72841888D01*
X81758490Y-72841888D01*
X81806109Y-72865698D01*
X81829919Y-72889507D01*
X81853728Y-72937126D01*
X81853728Y-72984745D01*
X81829919Y-73056174D01*
X81544204Y-73341888D01*
X81853728Y-73341888D01*
X82068014Y-73341888D02*
X82068014Y-72841888D01*
X82234681Y-73199031D01*
X82401347Y-72841888D01*
X82401347Y-73341888D01*
X82615633Y-73199031D02*
X82853728Y-73199031D01*
X82568014Y-73341888D02*
X82734681Y-72841888D01*
X82901347Y-73341888D01*
X83068014Y-73341888D02*
X83068014Y-72841888D01*
X83306109Y-73341888D02*
X83306109Y-72841888D01*
X83591823Y-73341888D01*
X83591823Y-72841888D01*
X83806109Y-72889507D02*
X83829919Y-72865698D01*
X83877538Y-72841888D01*
X83996585Y-72841888D01*
X84044204Y-72865698D01*
X84068014Y-72889507D01*
X84091823Y-72937126D01*
X84091823Y-72984745D01*
X84068014Y-73056174D01*
X83782300Y-73341888D01*
X84091823Y-73341888D01*
G04 #@! TO.C,J_MAIN2AUX1*
X123666523Y-68433190D02*
X123666523Y-68790333D01*
X123642714Y-68861761D01*
X123595095Y-68909380D01*
X123523666Y-68933190D01*
X123476047Y-68933190D01*
X123785571Y-68980809D02*
X124166523Y-68980809D01*
X124285571Y-68933190D02*
X124285571Y-68433190D01*
X124452238Y-68790333D01*
X124618904Y-68433190D01*
X124618904Y-68933190D01*
X124833190Y-68790333D02*
X125071285Y-68790333D01*
X124785571Y-68933190D02*
X124952238Y-68433190D01*
X125118904Y-68933190D01*
X125285571Y-68933190D02*
X125285571Y-68433190D01*
X125523666Y-68933190D02*
X125523666Y-68433190D01*
X125809380Y-68933190D01*
X125809380Y-68433190D01*
X126023666Y-68480809D02*
X126047476Y-68457000D01*
X126095095Y-68433190D01*
X126214142Y-68433190D01*
X126261761Y-68457000D01*
X126285571Y-68480809D01*
X126309380Y-68528428D01*
X126309380Y-68576047D01*
X126285571Y-68647476D01*
X125999857Y-68933190D01*
X126309380Y-68933190D01*
X126499857Y-68790333D02*
X126737952Y-68790333D01*
X126452238Y-68933190D02*
X126618904Y-68433190D01*
X126785571Y-68933190D01*
X126952238Y-68433190D02*
X126952238Y-68837952D01*
X126976047Y-68885571D01*
X126999857Y-68909380D01*
X127047476Y-68933190D01*
X127142714Y-68933190D01*
X127190333Y-68909380D01*
X127214142Y-68885571D01*
X127237952Y-68837952D01*
X127237952Y-68433190D01*
X127428428Y-68433190D02*
X127761761Y-68933190D01*
X127761761Y-68433190D02*
X127428428Y-68933190D01*
X128214142Y-68933190D02*
X127928428Y-68933190D01*
X128071285Y-68933190D02*
X128071285Y-68433190D01*
X128023666Y-68504619D01*
X127976047Y-68552238D01*
X127928428Y-68576047D01*
G04 #@! TO.C,J_OLEDCONNECTOR1*
X67300776Y-70809888D02*
X67300776Y-71167031D01*
X67276966Y-71238459D01*
X67229347Y-71286078D01*
X67157919Y-71309888D01*
X67110300Y-71309888D01*
X67419823Y-71357507D02*
X67800776Y-71357507D01*
X68015061Y-70809888D02*
X68110300Y-70809888D01*
X68157919Y-70833698D01*
X68205538Y-70881317D01*
X68229347Y-70976555D01*
X68229347Y-71143221D01*
X68205538Y-71238459D01*
X68157919Y-71286078D01*
X68110300Y-71309888D01*
X68015061Y-71309888D01*
X67967442Y-71286078D01*
X67919823Y-71238459D01*
X67896014Y-71143221D01*
X67896014Y-70976555D01*
X67919823Y-70881317D01*
X67967442Y-70833698D01*
X68015061Y-70809888D01*
X68681728Y-71309888D02*
X68443633Y-71309888D01*
X68443633Y-70809888D01*
X68848395Y-71047983D02*
X69015061Y-71047983D01*
X69086490Y-71309888D02*
X68848395Y-71309888D01*
X68848395Y-70809888D01*
X69086490Y-70809888D01*
X69300776Y-71309888D02*
X69300776Y-70809888D01*
X69419823Y-70809888D01*
X69491252Y-70833698D01*
X69538871Y-70881317D01*
X69562681Y-70928936D01*
X69586490Y-71024174D01*
X69586490Y-71095602D01*
X69562681Y-71190840D01*
X69538871Y-71238459D01*
X69491252Y-71286078D01*
X69419823Y-71309888D01*
X69300776Y-71309888D01*
X70086490Y-71262269D02*
X70062681Y-71286078D01*
X69991252Y-71309888D01*
X69943633Y-71309888D01*
X69872204Y-71286078D01*
X69824585Y-71238459D01*
X69800776Y-71190840D01*
X69776966Y-71095602D01*
X69776966Y-71024174D01*
X69800776Y-70928936D01*
X69824585Y-70881317D01*
X69872204Y-70833698D01*
X69943633Y-70809888D01*
X69991252Y-70809888D01*
X70062681Y-70833698D01*
X70086490Y-70857507D01*
X70396014Y-70809888D02*
X70491252Y-70809888D01*
X70538871Y-70833698D01*
X70586490Y-70881317D01*
X70610300Y-70976555D01*
X70610300Y-71143221D01*
X70586490Y-71238459D01*
X70538871Y-71286078D01*
X70491252Y-71309888D01*
X70396014Y-71309888D01*
X70348395Y-71286078D01*
X70300776Y-71238459D01*
X70276966Y-71143221D01*
X70276966Y-70976555D01*
X70300776Y-70881317D01*
X70348395Y-70833698D01*
X70396014Y-70809888D01*
X70824585Y-71309888D02*
X70824585Y-70809888D01*
X71110300Y-71309888D01*
X71110300Y-70809888D01*
X71348395Y-71309888D02*
X71348395Y-70809888D01*
X71634109Y-71309888D01*
X71634109Y-70809888D01*
X71872204Y-71047983D02*
X72038871Y-71047983D01*
X72110300Y-71309888D02*
X71872204Y-71309888D01*
X71872204Y-70809888D01*
X72110300Y-70809888D01*
X72610300Y-71262269D02*
X72586490Y-71286078D01*
X72515061Y-71309888D01*
X72467442Y-71309888D01*
X72396014Y-71286078D01*
X72348395Y-71238459D01*
X72324585Y-71190840D01*
X72300776Y-71095602D01*
X72300776Y-71024174D01*
X72324585Y-70928936D01*
X72348395Y-70881317D01*
X72396014Y-70833698D01*
X72467442Y-70809888D01*
X72515061Y-70809888D01*
X72586490Y-70833698D01*
X72610300Y-70857507D01*
X72753157Y-70809888D02*
X73038871Y-70809888D01*
X72896014Y-71309888D02*
X72896014Y-70809888D01*
X73300776Y-70809888D02*
X73396014Y-70809888D01*
X73443633Y-70833698D01*
X73491252Y-70881317D01*
X73515061Y-70976555D01*
X73515061Y-71143221D01*
X73491252Y-71238459D01*
X73443633Y-71286078D01*
X73396014Y-71309888D01*
X73300776Y-71309888D01*
X73253157Y-71286078D01*
X73205538Y-71238459D01*
X73181728Y-71143221D01*
X73181728Y-70976555D01*
X73205538Y-70881317D01*
X73253157Y-70833698D01*
X73300776Y-70809888D01*
X74015061Y-71309888D02*
X73848395Y-71071793D01*
X73729347Y-71309888D02*
X73729347Y-70809888D01*
X73919823Y-70809888D01*
X73967442Y-70833698D01*
X73991252Y-70857507D01*
X74015061Y-70905126D01*
X74015061Y-70976555D01*
X73991252Y-71024174D01*
X73967442Y-71047983D01*
X73919823Y-71071793D01*
X73729347Y-71071793D01*
X74491252Y-71309888D02*
X74205538Y-71309888D01*
X74348395Y-71309888D02*
X74348395Y-70809888D01*
X74300776Y-70881317D01*
X74253157Y-70928936D01*
X74205538Y-70952745D01*
G04 #@! TO.C,R_ISO1*
X86991142Y-209903190D02*
X86824476Y-209665095D01*
X86705428Y-209903190D02*
X86705428Y-209403190D01*
X86895904Y-209403190D01*
X86943523Y-209427000D01*
X86967333Y-209450809D01*
X86991142Y-209498428D01*
X86991142Y-209569857D01*
X86967333Y-209617476D01*
X86943523Y-209641285D01*
X86895904Y-209665095D01*
X86705428Y-209665095D01*
X87086380Y-209950809D02*
X87467333Y-209950809D01*
X87586380Y-209903190D02*
X87586380Y-209403190D01*
X87800666Y-209879380D02*
X87872095Y-209903190D01*
X87991142Y-209903190D01*
X88038761Y-209879380D01*
X88062571Y-209855571D01*
X88086380Y-209807952D01*
X88086380Y-209760333D01*
X88062571Y-209712714D01*
X88038761Y-209688904D01*
X87991142Y-209665095D01*
X87895904Y-209641285D01*
X87848285Y-209617476D01*
X87824476Y-209593666D01*
X87800666Y-209546047D01*
X87800666Y-209498428D01*
X87824476Y-209450809D01*
X87848285Y-209427000D01*
X87895904Y-209403190D01*
X88014952Y-209403190D01*
X88086380Y-209427000D01*
X88395904Y-209403190D02*
X88491142Y-209403190D01*
X88538761Y-209427000D01*
X88586380Y-209474619D01*
X88610190Y-209569857D01*
X88610190Y-209736523D01*
X88586380Y-209831761D01*
X88538761Y-209879380D01*
X88491142Y-209903190D01*
X88395904Y-209903190D01*
X88348285Y-209879380D01*
X88300666Y-209831761D01*
X88276857Y-209736523D01*
X88276857Y-209569857D01*
X88300666Y-209474619D01*
X88348285Y-209427000D01*
X88395904Y-209403190D01*
X89086380Y-209903190D02*
X88800666Y-209903190D01*
X88943523Y-209903190D02*
X88943523Y-209403190D01*
X88895904Y-209474619D01*
X88848285Y-209522238D01*
X88800666Y-209546047D01*
G04 #@! TO.C,R_MIX1*
X81125333Y-191742190D02*
X80958666Y-191504095D01*
X80839619Y-191742190D02*
X80839619Y-191242190D01*
X81030095Y-191242190D01*
X81077714Y-191266000D01*
X81101523Y-191289809D01*
X81125333Y-191337428D01*
X81125333Y-191408857D01*
X81101523Y-191456476D01*
X81077714Y-191480285D01*
X81030095Y-191504095D01*
X80839619Y-191504095D01*
X81220571Y-191789809D02*
X81601523Y-191789809D01*
X81720571Y-191742190D02*
X81720571Y-191242190D01*
X81887238Y-191599333D01*
X82053904Y-191242190D01*
X82053904Y-191742190D01*
X82292000Y-191742190D02*
X82292000Y-191242190D01*
X82482476Y-191242190D02*
X82815809Y-191742190D01*
X82815809Y-191242190D02*
X82482476Y-191742190D01*
X83268190Y-191742190D02*
X82982476Y-191742190D01*
X83125333Y-191742190D02*
X83125333Y-191242190D01*
X83077714Y-191313619D01*
X83030095Y-191361238D01*
X82982476Y-191385047D01*
G04 #@! TO.C,R_MIX2*
X73505333Y-184122190D02*
X73338666Y-183884095D01*
X73219619Y-184122190D02*
X73219619Y-183622190D01*
X73410095Y-183622190D01*
X73457714Y-183646000D01*
X73481523Y-183669809D01*
X73505333Y-183717428D01*
X73505333Y-183788857D01*
X73481523Y-183836476D01*
X73457714Y-183860285D01*
X73410095Y-183884095D01*
X73219619Y-183884095D01*
X73600571Y-184169809D02*
X73981523Y-184169809D01*
X74100571Y-184122190D02*
X74100571Y-183622190D01*
X74267238Y-183979333D01*
X74433904Y-183622190D01*
X74433904Y-184122190D01*
X74672000Y-184122190D02*
X74672000Y-183622190D01*
X74862476Y-183622190D02*
X75195809Y-184122190D01*
X75195809Y-183622190D02*
X74862476Y-184122190D01*
X75362476Y-183669809D02*
X75386285Y-183646000D01*
X75433904Y-183622190D01*
X75552952Y-183622190D01*
X75600571Y-183646000D01*
X75624380Y-183669809D01*
X75648190Y-183717428D01*
X75648190Y-183765047D01*
X75624380Y-183836476D01*
X75338666Y-184122190D01*
X75648190Y-184122190D01*
G04 #@! TO.C,R_VEL1*
X70965333Y-157325190D02*
X70798666Y-157087095D01*
X70679619Y-157325190D02*
X70679619Y-156825190D01*
X70870095Y-156825190D01*
X70917714Y-156849000D01*
X70941523Y-156872809D01*
X70965333Y-156920428D01*
X70965333Y-156991857D01*
X70941523Y-157039476D01*
X70917714Y-157063285D01*
X70870095Y-157087095D01*
X70679619Y-157087095D01*
X71060571Y-157372809D02*
X71441523Y-157372809D01*
X71489142Y-156825190D02*
X71655809Y-157325190D01*
X71822476Y-156825190D01*
X71989142Y-157063285D02*
X72155809Y-157063285D01*
X72227238Y-157325190D02*
X71989142Y-157325190D01*
X71989142Y-156825190D01*
X72227238Y-156825190D01*
X72679619Y-157325190D02*
X72441523Y-157325190D01*
X72441523Y-156825190D01*
X73108190Y-157325190D02*
X72822476Y-157325190D01*
X72965333Y-157325190D02*
X72965333Y-156825190D01*
X72917714Y-156896619D01*
X72870095Y-156944238D01*
X72822476Y-156968047D01*
G04 #@! TO.C,SW_FUNC1*
X55834442Y-100655078D02*
X55905871Y-100678888D01*
X56024919Y-100678888D01*
X56072538Y-100655078D01*
X56096347Y-100631269D01*
X56120157Y-100583650D01*
X56120157Y-100536031D01*
X56096347Y-100488412D01*
X56072538Y-100464602D01*
X56024919Y-100440793D01*
X55929681Y-100416983D01*
X55882061Y-100393174D01*
X55858252Y-100369364D01*
X55834442Y-100321745D01*
X55834442Y-100274126D01*
X55858252Y-100226507D01*
X55882061Y-100202698D01*
X55929681Y-100178888D01*
X56048728Y-100178888D01*
X56120157Y-100202698D01*
X56286823Y-100178888D02*
X56405871Y-100678888D01*
X56501109Y-100321745D01*
X56596347Y-100678888D01*
X56715395Y-100178888D01*
X56786823Y-100726507D02*
X57167776Y-100726507D01*
X57453490Y-100416983D02*
X57286823Y-100416983D01*
X57286823Y-100678888D02*
X57286823Y-100178888D01*
X57524919Y-100178888D01*
X57715395Y-100178888D02*
X57715395Y-100583650D01*
X57739204Y-100631269D01*
X57763014Y-100655078D01*
X57810633Y-100678888D01*
X57905871Y-100678888D01*
X57953490Y-100655078D01*
X57977300Y-100631269D01*
X58001109Y-100583650D01*
X58001109Y-100178888D01*
X58239204Y-100678888D02*
X58239204Y-100178888D01*
X58524919Y-100678888D01*
X58524919Y-100178888D01*
X59048728Y-100631269D02*
X59024919Y-100655078D01*
X58953490Y-100678888D01*
X58905871Y-100678888D01*
X58834442Y-100655078D01*
X58786823Y-100607459D01*
X58763014Y-100559840D01*
X58739204Y-100464602D01*
X58739204Y-100393174D01*
X58763014Y-100297936D01*
X58786823Y-100250317D01*
X58834442Y-100202698D01*
X58905871Y-100178888D01*
X58953490Y-100178888D01*
X59024919Y-100202698D01*
X59048728Y-100226507D01*
X59524919Y-100678888D02*
X59239204Y-100678888D01*
X59382061Y-100678888D02*
X59382061Y-100178888D01*
X59334442Y-100250317D01*
X59286823Y-100297936D01*
X59239204Y-100321745D01*
G04 #@! TO.C,SW_MODE1*
X68498728Y-100655078D02*
X68570157Y-100678888D01*
X68689204Y-100678888D01*
X68736823Y-100655078D01*
X68760633Y-100631269D01*
X68784442Y-100583650D01*
X68784442Y-100536031D01*
X68760633Y-100488412D01*
X68736823Y-100464602D01*
X68689204Y-100440793D01*
X68593966Y-100416983D01*
X68546347Y-100393174D01*
X68522538Y-100369364D01*
X68498728Y-100321745D01*
X68498728Y-100274126D01*
X68522538Y-100226507D01*
X68546347Y-100202698D01*
X68593966Y-100178888D01*
X68713014Y-100178888D01*
X68784442Y-100202698D01*
X68951109Y-100178888D02*
X69070157Y-100678888D01*
X69165395Y-100321745D01*
X69260633Y-100678888D01*
X69379681Y-100178888D01*
X69451109Y-100726507D02*
X69832061Y-100726507D01*
X69951109Y-100678888D02*
X69951109Y-100178888D01*
X70117776Y-100536031D01*
X70284442Y-100178888D01*
X70284442Y-100678888D01*
X70617776Y-100178888D02*
X70713014Y-100178888D01*
X70760633Y-100202698D01*
X70808252Y-100250317D01*
X70832061Y-100345555D01*
X70832061Y-100512221D01*
X70808252Y-100607459D01*
X70760633Y-100655078D01*
X70713014Y-100678888D01*
X70617776Y-100678888D01*
X70570157Y-100655078D01*
X70522538Y-100607459D01*
X70498728Y-100512221D01*
X70498728Y-100345555D01*
X70522538Y-100250317D01*
X70570157Y-100202698D01*
X70617776Y-100178888D01*
X71046347Y-100678888D02*
X71046347Y-100178888D01*
X71165395Y-100178888D01*
X71236823Y-100202698D01*
X71284442Y-100250317D01*
X71308252Y-100297936D01*
X71332061Y-100393174D01*
X71332061Y-100464602D01*
X71308252Y-100559840D01*
X71284442Y-100607459D01*
X71236823Y-100655078D01*
X71165395Y-100678888D01*
X71046347Y-100678888D01*
X71546347Y-100416983D02*
X71713014Y-100416983D01*
X71784442Y-100678888D02*
X71546347Y-100678888D01*
X71546347Y-100178888D01*
X71784442Y-100178888D01*
X72260633Y-100678888D02*
X71974919Y-100678888D01*
X72117776Y-100678888D02*
X72117776Y-100178888D01*
X72070157Y-100250317D01*
X72022538Y-100297936D01*
X71974919Y-100321745D01*
G04 #@! TO.C,SW_RANGE1*
X80766157Y-100655078D02*
X80837585Y-100678888D01*
X80956633Y-100678888D01*
X81004252Y-100655078D01*
X81028061Y-100631269D01*
X81051871Y-100583650D01*
X81051871Y-100536031D01*
X81028061Y-100488412D01*
X81004252Y-100464602D01*
X80956633Y-100440793D01*
X80861395Y-100416983D01*
X80813776Y-100393174D01*
X80789966Y-100369364D01*
X80766157Y-100321745D01*
X80766157Y-100274126D01*
X80789966Y-100226507D01*
X80813776Y-100202698D01*
X80861395Y-100178888D01*
X80980442Y-100178888D01*
X81051871Y-100202698D01*
X81218538Y-100178888D02*
X81337585Y-100678888D01*
X81432823Y-100321745D01*
X81528061Y-100678888D01*
X81647109Y-100178888D01*
X81718538Y-100726507D02*
X82099490Y-100726507D01*
X82504252Y-100678888D02*
X82337585Y-100440793D01*
X82218538Y-100678888D02*
X82218538Y-100178888D01*
X82409014Y-100178888D01*
X82456633Y-100202698D01*
X82480442Y-100226507D01*
X82504252Y-100274126D01*
X82504252Y-100345555D01*
X82480442Y-100393174D01*
X82456633Y-100416983D01*
X82409014Y-100440793D01*
X82218538Y-100440793D01*
X82694728Y-100536031D02*
X82932823Y-100536031D01*
X82647109Y-100678888D02*
X82813776Y-100178888D01*
X82980442Y-100678888D01*
X83147109Y-100678888D02*
X83147109Y-100178888D01*
X83432823Y-100678888D01*
X83432823Y-100178888D01*
X83932823Y-100202698D02*
X83885204Y-100178888D01*
X83813776Y-100178888D01*
X83742347Y-100202698D01*
X83694728Y-100250317D01*
X83670919Y-100297936D01*
X83647109Y-100393174D01*
X83647109Y-100464602D01*
X83670919Y-100559840D01*
X83694728Y-100607459D01*
X83742347Y-100655078D01*
X83813776Y-100678888D01*
X83861395Y-100678888D01*
X83932823Y-100655078D01*
X83956633Y-100631269D01*
X83956633Y-100464602D01*
X83861395Y-100464602D01*
X84170919Y-100416983D02*
X84337585Y-100416983D01*
X84409014Y-100678888D02*
X84170919Y-100678888D01*
X84170919Y-100178888D01*
X84409014Y-100178888D01*
X84885204Y-100678888D02*
X84599490Y-100678888D01*
X84742347Y-100678888D02*
X84742347Y-100178888D01*
X84694728Y-100250317D01*
X84647109Y-100297936D01*
X84599490Y-100321745D01*
G04 #@! TO.C,U1*
X91313047Y-86594190D02*
X91313047Y-86998952D01*
X91336857Y-87046571D01*
X91360666Y-87070380D01*
X91408285Y-87094190D01*
X91503523Y-87094190D01*
X91551142Y-87070380D01*
X91574952Y-87046571D01*
X91598761Y-86998952D01*
X91598761Y-86594190D01*
X92098761Y-87094190D02*
X91813047Y-87094190D01*
X91955904Y-87094190D02*
X91955904Y-86594190D01*
X91908285Y-86665619D01*
X91860666Y-86713238D01*
X91813047Y-86737047D01*
G04 #@! TO.C,C_GAIN1*
X101750952Y-216459571D02*
X101727142Y-216483380D01*
X101655714Y-216507190D01*
X101608095Y-216507190D01*
X101536666Y-216483380D01*
X101489047Y-216435761D01*
X101465238Y-216388142D01*
X101441428Y-216292904D01*
X101441428Y-216221476D01*
X101465238Y-216126238D01*
X101489047Y-216078619D01*
X101536666Y-216031000D01*
X101608095Y-216007190D01*
X101655714Y-216007190D01*
X101727142Y-216031000D01*
X101750952Y-216054809D01*
X101846190Y-216554809D02*
X102227142Y-216554809D01*
X102608095Y-216031000D02*
X102560476Y-216007190D01*
X102489047Y-216007190D01*
X102417619Y-216031000D01*
X102370000Y-216078619D01*
X102346190Y-216126238D01*
X102322380Y-216221476D01*
X102322380Y-216292904D01*
X102346190Y-216388142D01*
X102370000Y-216435761D01*
X102417619Y-216483380D01*
X102489047Y-216507190D01*
X102536666Y-216507190D01*
X102608095Y-216483380D01*
X102631904Y-216459571D01*
X102631904Y-216292904D01*
X102536666Y-216292904D01*
X102822380Y-216364333D02*
X103060476Y-216364333D01*
X102774761Y-216507190D02*
X102941428Y-216007190D01*
X103108095Y-216507190D01*
X103274761Y-216507190D02*
X103274761Y-216007190D01*
X103512857Y-216507190D02*
X103512857Y-216007190D01*
X103798571Y-216507190D01*
X103798571Y-216007190D01*
X104298571Y-216507190D02*
X104012857Y-216507190D01*
X104155714Y-216507190D02*
X104155714Y-216007190D01*
X104108095Y-216078619D01*
X104060476Y-216126238D01*
X104012857Y-216150047D01*
G04 #@! TO.C,R_HIOFF1*
X79934761Y-212570190D02*
X79768095Y-212332095D01*
X79649047Y-212570190D02*
X79649047Y-212070190D01*
X79839523Y-212070190D01*
X79887142Y-212094000D01*
X79910952Y-212117809D01*
X79934761Y-212165428D01*
X79934761Y-212236857D01*
X79910952Y-212284476D01*
X79887142Y-212308285D01*
X79839523Y-212332095D01*
X79649047Y-212332095D01*
X80030000Y-212617809D02*
X80410952Y-212617809D01*
X80530000Y-212570190D02*
X80530000Y-212070190D01*
X80530000Y-212308285D02*
X80815714Y-212308285D01*
X80815714Y-212570190D02*
X80815714Y-212070190D01*
X81053809Y-212570190D02*
X81053809Y-212070190D01*
X81387142Y-212070190D02*
X81482380Y-212070190D01*
X81530000Y-212094000D01*
X81577619Y-212141619D01*
X81601428Y-212236857D01*
X81601428Y-212403523D01*
X81577619Y-212498761D01*
X81530000Y-212546380D01*
X81482380Y-212570190D01*
X81387142Y-212570190D01*
X81339523Y-212546380D01*
X81291904Y-212498761D01*
X81268095Y-212403523D01*
X81268095Y-212236857D01*
X81291904Y-212141619D01*
X81339523Y-212094000D01*
X81387142Y-212070190D01*
X81982380Y-212308285D02*
X81815714Y-212308285D01*
X81815714Y-212570190D02*
X81815714Y-212070190D01*
X82053809Y-212070190D01*
X82410952Y-212308285D02*
X82244285Y-212308285D01*
X82244285Y-212570190D02*
X82244285Y-212070190D01*
X82482380Y-212070190D01*
X82934761Y-212570190D02*
X82649047Y-212570190D01*
X82791904Y-212570190D02*
X82791904Y-212070190D01*
X82744285Y-212141619D01*
X82696666Y-212189238D01*
X82649047Y-212213047D01*
G04 #@! TO.C,TP_OFF1*
X73418095Y-178034190D02*
X73703809Y-178034190D01*
X73560952Y-178534190D02*
X73560952Y-178034190D01*
X73870476Y-178534190D02*
X73870476Y-178034190D01*
X74060952Y-178034190D01*
X74108571Y-178058000D01*
X74132380Y-178081809D01*
X74156190Y-178129428D01*
X74156190Y-178200857D01*
X74132380Y-178248476D01*
X74108571Y-178272285D01*
X74060952Y-178296095D01*
X73870476Y-178296095D01*
X74251428Y-178581809D02*
X74632380Y-178581809D01*
X74846666Y-178034190D02*
X74941904Y-178034190D01*
X74989523Y-178058000D01*
X75037142Y-178105619D01*
X75060952Y-178200857D01*
X75060952Y-178367523D01*
X75037142Y-178462761D01*
X74989523Y-178510380D01*
X74941904Y-178534190D01*
X74846666Y-178534190D01*
X74799047Y-178510380D01*
X74751428Y-178462761D01*
X74727619Y-178367523D01*
X74727619Y-178200857D01*
X74751428Y-178105619D01*
X74799047Y-178058000D01*
X74846666Y-178034190D01*
X75441904Y-178272285D02*
X75275238Y-178272285D01*
X75275238Y-178534190D02*
X75275238Y-178034190D01*
X75513333Y-178034190D01*
X75870476Y-178272285D02*
X75703809Y-178272285D01*
X75703809Y-178534190D02*
X75703809Y-178034190D01*
X75941904Y-178034190D01*
X76394285Y-178534190D02*
X76108571Y-178534190D01*
X76251428Y-178534190D02*
X76251428Y-178034190D01*
X76203809Y-178105619D01*
X76156190Y-178153238D01*
X76108571Y-178177047D01*
G04 #@! TO.C,R_MIX3*
X113383333Y-191996190D02*
X113216666Y-191758095D01*
X113097619Y-191996190D02*
X113097619Y-191496190D01*
X113288095Y-191496190D01*
X113335714Y-191520000D01*
X113359523Y-191543809D01*
X113383333Y-191591428D01*
X113383333Y-191662857D01*
X113359523Y-191710476D01*
X113335714Y-191734285D01*
X113288095Y-191758095D01*
X113097619Y-191758095D01*
X113478571Y-192043809D02*
X113859523Y-192043809D01*
X113978571Y-191996190D02*
X113978571Y-191496190D01*
X114145238Y-191853333D01*
X114311904Y-191496190D01*
X114311904Y-191996190D01*
X114550000Y-191996190D02*
X114550000Y-191496190D01*
X114740476Y-191496190D02*
X115073809Y-191996190D01*
X115073809Y-191496190D02*
X114740476Y-191996190D01*
X115216666Y-191496190D02*
X115526190Y-191496190D01*
X115359523Y-191686666D01*
X115430952Y-191686666D01*
X115478571Y-191710476D01*
X115502380Y-191734285D01*
X115526190Y-191781904D01*
X115526190Y-191900952D01*
X115502380Y-191948571D01*
X115478571Y-191972380D01*
X115430952Y-191996190D01*
X115288095Y-191996190D01*
X115240476Y-191972380D01*
X115216666Y-191948571D01*
G04 #@! TO.C,RF2*
X92412380Y-216126190D02*
X92245714Y-215888095D01*
X92126666Y-216126190D02*
X92126666Y-215626190D01*
X92317142Y-215626190D01*
X92364761Y-215650000D01*
X92388571Y-215673809D01*
X92412380Y-215721428D01*
X92412380Y-215792857D01*
X92388571Y-215840476D01*
X92364761Y-215864285D01*
X92317142Y-215888095D01*
X92126666Y-215888095D01*
X92793333Y-215864285D02*
X92626666Y-215864285D01*
X92626666Y-216126190D02*
X92626666Y-215626190D01*
X92864761Y-215626190D01*
X93031428Y-215673809D02*
X93055238Y-215650000D01*
X93102857Y-215626190D01*
X93221904Y-215626190D01*
X93269523Y-215650000D01*
X93293333Y-215673809D01*
X93317142Y-215721428D01*
X93317142Y-215769047D01*
X93293333Y-215840476D01*
X93007619Y-216126190D01*
X93317142Y-216126190D01*
G04 #@! TO.C,ROFF1*
X107684190Y-206474190D02*
X107517523Y-206236095D01*
X107398476Y-206474190D02*
X107398476Y-205974190D01*
X107588952Y-205974190D01*
X107636571Y-205998000D01*
X107660380Y-206021809D01*
X107684190Y-206069428D01*
X107684190Y-206140857D01*
X107660380Y-206188476D01*
X107636571Y-206212285D01*
X107588952Y-206236095D01*
X107398476Y-206236095D01*
X107993714Y-205974190D02*
X108088952Y-205974190D01*
X108136571Y-205998000D01*
X108184190Y-206045619D01*
X108208000Y-206140857D01*
X108208000Y-206307523D01*
X108184190Y-206402761D01*
X108136571Y-206450380D01*
X108088952Y-206474190D01*
X107993714Y-206474190D01*
X107946095Y-206450380D01*
X107898476Y-206402761D01*
X107874666Y-206307523D01*
X107874666Y-206140857D01*
X107898476Y-206045619D01*
X107946095Y-205998000D01*
X107993714Y-205974190D01*
X108588952Y-206212285D02*
X108422285Y-206212285D01*
X108422285Y-206474190D02*
X108422285Y-205974190D01*
X108660380Y-205974190D01*
X109017523Y-206212285D02*
X108850857Y-206212285D01*
X108850857Y-206474190D02*
X108850857Y-205974190D01*
X109088952Y-205974190D01*
X109541333Y-206474190D02*
X109255619Y-206474190D01*
X109398476Y-206474190D02*
X109398476Y-205974190D01*
X109350857Y-206045619D01*
X109303238Y-206093238D01*
X109255619Y-206117047D01*
G04 #@! TO.C,ROFF2*
X117082190Y-191996190D02*
X116915523Y-191758095D01*
X116796476Y-191996190D02*
X116796476Y-191496190D01*
X116986952Y-191496190D01*
X117034571Y-191520000D01*
X117058380Y-191543809D01*
X117082190Y-191591428D01*
X117082190Y-191662857D01*
X117058380Y-191710476D01*
X117034571Y-191734285D01*
X116986952Y-191758095D01*
X116796476Y-191758095D01*
X117391714Y-191496190D02*
X117486952Y-191496190D01*
X117534571Y-191520000D01*
X117582190Y-191567619D01*
X117606000Y-191662857D01*
X117606000Y-191829523D01*
X117582190Y-191924761D01*
X117534571Y-191972380D01*
X117486952Y-191996190D01*
X117391714Y-191996190D01*
X117344095Y-191972380D01*
X117296476Y-191924761D01*
X117272666Y-191829523D01*
X117272666Y-191662857D01*
X117296476Y-191567619D01*
X117344095Y-191520000D01*
X117391714Y-191496190D01*
X117986952Y-191734285D02*
X117820285Y-191734285D01*
X117820285Y-191996190D02*
X117820285Y-191496190D01*
X118058380Y-191496190D01*
X118415523Y-191734285D02*
X118248857Y-191734285D01*
X118248857Y-191996190D02*
X118248857Y-191496190D01*
X118486952Y-191496190D01*
X118653619Y-191543809D02*
X118677428Y-191520000D01*
X118725047Y-191496190D01*
X118844095Y-191496190D01*
X118891714Y-191520000D01*
X118915523Y-191543809D01*
X118939333Y-191591428D01*
X118939333Y-191639047D01*
X118915523Y-191710476D01*
X118629809Y-191996190D01*
X118939333Y-191996190D01*
G04 #@! TO.C,CF2*
X92412380Y-218618571D02*
X92388571Y-218642380D01*
X92317142Y-218666190D01*
X92269523Y-218666190D01*
X92198095Y-218642380D01*
X92150476Y-218594761D01*
X92126666Y-218547142D01*
X92102857Y-218451904D01*
X92102857Y-218380476D01*
X92126666Y-218285238D01*
X92150476Y-218237619D01*
X92198095Y-218190000D01*
X92269523Y-218166190D01*
X92317142Y-218166190D01*
X92388571Y-218190000D01*
X92412380Y-218213809D01*
X92793333Y-218404285D02*
X92626666Y-218404285D01*
X92626666Y-218666190D02*
X92626666Y-218166190D01*
X92864761Y-218166190D01*
X93031428Y-218213809D02*
X93055238Y-218190000D01*
X93102857Y-218166190D01*
X93221904Y-218166190D01*
X93269523Y-218190000D01*
X93293333Y-218213809D01*
X93317142Y-218261428D01*
X93317142Y-218309047D01*
X93293333Y-218380476D01*
X93007619Y-218666190D01*
X93317142Y-218666190D01*
G04 #@! TO.C,U_BUFF1*
X93992095Y-196830190D02*
X93992095Y-197234952D01*
X94015904Y-197282571D01*
X94039714Y-197306380D01*
X94087333Y-197330190D01*
X94182571Y-197330190D01*
X94230190Y-197306380D01*
X94254000Y-197282571D01*
X94277809Y-197234952D01*
X94277809Y-196830190D01*
X94396857Y-197377809D02*
X94777809Y-197377809D01*
X95063523Y-197068285D02*
X95134952Y-197092095D01*
X95158761Y-197115904D01*
X95182571Y-197163523D01*
X95182571Y-197234952D01*
X95158761Y-197282571D01*
X95134952Y-197306380D01*
X95087333Y-197330190D01*
X94896857Y-197330190D01*
X94896857Y-196830190D01*
X95063523Y-196830190D01*
X95111142Y-196854000D01*
X95134952Y-196877809D01*
X95158761Y-196925428D01*
X95158761Y-196973047D01*
X95134952Y-197020666D01*
X95111142Y-197044476D01*
X95063523Y-197068285D01*
X94896857Y-197068285D01*
X95396857Y-196830190D02*
X95396857Y-197234952D01*
X95420666Y-197282571D01*
X95444476Y-197306380D01*
X95492095Y-197330190D01*
X95587333Y-197330190D01*
X95634952Y-197306380D01*
X95658761Y-197282571D01*
X95682571Y-197234952D01*
X95682571Y-196830190D01*
X96087333Y-197068285D02*
X95920666Y-197068285D01*
X95920666Y-197330190D02*
X95920666Y-196830190D01*
X96158761Y-196830190D01*
X96515904Y-197068285D02*
X96349238Y-197068285D01*
X96349238Y-197330190D02*
X96349238Y-196830190D01*
X96587333Y-196830190D01*
X97039714Y-197330190D02*
X96754000Y-197330190D01*
X96896857Y-197330190D02*
X96896857Y-196830190D01*
X96849238Y-196901619D01*
X96801619Y-196949238D01*
X96754000Y-196973047D01*
G04 #@! TO.C,U_MIX1*
X94543714Y-207879190D02*
X94543714Y-208283952D01*
X94567523Y-208331571D01*
X94591333Y-208355380D01*
X94638952Y-208379190D01*
X94734190Y-208379190D01*
X94781809Y-208355380D01*
X94805619Y-208331571D01*
X94829428Y-208283952D01*
X94829428Y-207879190D01*
X94948476Y-208426809D02*
X95329428Y-208426809D01*
X95448476Y-208379190D02*
X95448476Y-207879190D01*
X95615142Y-208236333D01*
X95781809Y-207879190D01*
X95781809Y-208379190D01*
X96019904Y-208379190D02*
X96019904Y-207879190D01*
X96210380Y-207879190D02*
X96543714Y-208379190D01*
X96543714Y-207879190D02*
X96210380Y-208379190D01*
X96996095Y-208379190D02*
X96710380Y-208379190D01*
X96853238Y-208379190D02*
X96853238Y-207879190D01*
X96805619Y-207950619D01*
X96758000Y-207998238D01*
X96710380Y-208022047D01*
G04 #@! TO.C,R_PHASE1*
X75878714Y-157198190D02*
X75712047Y-156960095D01*
X75593000Y-157198190D02*
X75593000Y-156698190D01*
X75783476Y-156698190D01*
X75831095Y-156722000D01*
X75854904Y-156745809D01*
X75878714Y-156793428D01*
X75878714Y-156864857D01*
X75854904Y-156912476D01*
X75831095Y-156936285D01*
X75783476Y-156960095D01*
X75593000Y-156960095D01*
X75973952Y-157245809D02*
X76354904Y-157245809D01*
X76473952Y-157198190D02*
X76473952Y-156698190D01*
X76664428Y-156698190D01*
X76712047Y-156722000D01*
X76735857Y-156745809D01*
X76759666Y-156793428D01*
X76759666Y-156864857D01*
X76735857Y-156912476D01*
X76712047Y-156936285D01*
X76664428Y-156960095D01*
X76473952Y-156960095D01*
X76973952Y-157198190D02*
X76973952Y-156698190D01*
X76973952Y-156936285D02*
X77259666Y-156936285D01*
X77259666Y-157198190D02*
X77259666Y-156698190D01*
X77473952Y-157055333D02*
X77712047Y-157055333D01*
X77426333Y-157198190D02*
X77593000Y-156698190D01*
X77759666Y-157198190D01*
X77902523Y-157174380D02*
X77973952Y-157198190D01*
X78093000Y-157198190D01*
X78140619Y-157174380D01*
X78164428Y-157150571D01*
X78188238Y-157102952D01*
X78188238Y-157055333D01*
X78164428Y-157007714D01*
X78140619Y-156983904D01*
X78093000Y-156960095D01*
X77997761Y-156936285D01*
X77950142Y-156912476D01*
X77926333Y-156888666D01*
X77902523Y-156841047D01*
X77902523Y-156793428D01*
X77926333Y-156745809D01*
X77950142Y-156722000D01*
X77997761Y-156698190D01*
X78116809Y-156698190D01*
X78188238Y-156722000D01*
X78402523Y-156936285D02*
X78569190Y-156936285D01*
X78640619Y-157198190D02*
X78402523Y-157198190D01*
X78402523Y-156698190D01*
X78640619Y-156698190D01*
X79116809Y-157198190D02*
X78831095Y-157198190D01*
X78973952Y-157198190D02*
X78973952Y-156698190D01*
X78926333Y-156769619D01*
X78878714Y-156817238D01*
X78831095Y-156841047D01*
G04 #@! TO.C,RV_AMP1*
X76739904Y-187678190D02*
X76573238Y-187440095D01*
X76454190Y-187678190D02*
X76454190Y-187178190D01*
X76644666Y-187178190D01*
X76692285Y-187202000D01*
X76716095Y-187225809D01*
X76739904Y-187273428D01*
X76739904Y-187344857D01*
X76716095Y-187392476D01*
X76692285Y-187416285D01*
X76644666Y-187440095D01*
X76454190Y-187440095D01*
X76882761Y-187178190D02*
X77049428Y-187678190D01*
X77216095Y-187178190D01*
X77263714Y-187725809D02*
X77644666Y-187725809D01*
X77739904Y-187535333D02*
X77978000Y-187535333D01*
X77692285Y-187678190D02*
X77858952Y-187178190D01*
X78025619Y-187678190D01*
X78192285Y-187678190D02*
X78192285Y-187178190D01*
X78358952Y-187535333D01*
X78525619Y-187178190D01*
X78525619Y-187678190D01*
X78763714Y-187678190D02*
X78763714Y-187178190D01*
X78954190Y-187178190D01*
X79001809Y-187202000D01*
X79025619Y-187225809D01*
X79049428Y-187273428D01*
X79049428Y-187344857D01*
X79025619Y-187392476D01*
X79001809Y-187416285D01*
X78954190Y-187440095D01*
X78763714Y-187440095D01*
X79525619Y-187678190D02*
X79239904Y-187678190D01*
X79382761Y-187678190D02*
X79382761Y-187178190D01*
X79335142Y-187249619D01*
X79287523Y-187297238D01*
X79239904Y-187321047D01*
G04 #@! TO.C,RV_TIME1*
X76287476Y-173454190D02*
X76120809Y-173216095D01*
X76001761Y-173454190D02*
X76001761Y-172954190D01*
X76192238Y-172954190D01*
X76239857Y-172978000D01*
X76263666Y-173001809D01*
X76287476Y-173049428D01*
X76287476Y-173120857D01*
X76263666Y-173168476D01*
X76239857Y-173192285D01*
X76192238Y-173216095D01*
X76001761Y-173216095D01*
X76430333Y-172954190D02*
X76597000Y-173454190D01*
X76763666Y-172954190D01*
X76811285Y-173501809D02*
X77192238Y-173501809D01*
X77239857Y-172954190D02*
X77525571Y-172954190D01*
X77382714Y-173454190D02*
X77382714Y-172954190D01*
X77692238Y-173454190D02*
X77692238Y-172954190D01*
X77930333Y-173454190D02*
X77930333Y-172954190D01*
X78097000Y-173311333D01*
X78263666Y-172954190D01*
X78263666Y-173454190D01*
X78501761Y-173192285D02*
X78668428Y-173192285D01*
X78739857Y-173454190D02*
X78501761Y-173454190D01*
X78501761Y-172954190D01*
X78739857Y-172954190D01*
X79216047Y-173454190D02*
X78930333Y-173454190D01*
X79073190Y-173454190D02*
X79073190Y-172954190D01*
X79025571Y-173025619D01*
X78977952Y-173073238D01*
X78930333Y-173097047D01*
G04 #@! TO.C,RV_LOWOFF1*
X71858428Y-200124190D02*
X71691761Y-199886095D01*
X71572714Y-200124190D02*
X71572714Y-199624190D01*
X71763190Y-199624190D01*
X71810809Y-199648000D01*
X71834619Y-199671809D01*
X71858428Y-199719428D01*
X71858428Y-199790857D01*
X71834619Y-199838476D01*
X71810809Y-199862285D01*
X71763190Y-199886095D01*
X71572714Y-199886095D01*
X72001285Y-199624190D02*
X72167952Y-200124190D01*
X72334619Y-199624190D01*
X72382238Y-200171809D02*
X72763190Y-200171809D01*
X73120333Y-200124190D02*
X72882238Y-200124190D01*
X72882238Y-199624190D01*
X73382238Y-199624190D02*
X73477476Y-199624190D01*
X73525095Y-199648000D01*
X73572714Y-199695619D01*
X73596523Y-199790857D01*
X73596523Y-199957523D01*
X73572714Y-200052761D01*
X73525095Y-200100380D01*
X73477476Y-200124190D01*
X73382238Y-200124190D01*
X73334619Y-200100380D01*
X73287000Y-200052761D01*
X73263190Y-199957523D01*
X73263190Y-199790857D01*
X73287000Y-199695619D01*
X73334619Y-199648000D01*
X73382238Y-199624190D01*
X73763190Y-199624190D02*
X73882238Y-200124190D01*
X73977476Y-199767047D01*
X74072714Y-200124190D01*
X74191761Y-199624190D01*
X74477476Y-199624190D02*
X74572714Y-199624190D01*
X74620333Y-199648000D01*
X74667952Y-199695619D01*
X74691761Y-199790857D01*
X74691761Y-199957523D01*
X74667952Y-200052761D01*
X74620333Y-200100380D01*
X74572714Y-200124190D01*
X74477476Y-200124190D01*
X74429857Y-200100380D01*
X74382238Y-200052761D01*
X74358428Y-199957523D01*
X74358428Y-199790857D01*
X74382238Y-199695619D01*
X74429857Y-199648000D01*
X74477476Y-199624190D01*
X75072714Y-199862285D02*
X74906047Y-199862285D01*
X74906047Y-200124190D02*
X74906047Y-199624190D01*
X75144142Y-199624190D01*
X75501285Y-199862285D02*
X75334619Y-199862285D01*
X75334619Y-200124190D02*
X75334619Y-199624190D01*
X75572714Y-199624190D01*
X76025095Y-200124190D02*
X75739380Y-200124190D01*
X75882238Y-200124190D02*
X75882238Y-199624190D01*
X75834619Y-199695619D01*
X75787000Y-199743238D01*
X75739380Y-199767047D01*
G04 #@! TO.C,CF1*
X92158380Y-186614571D02*
X92134571Y-186638380D01*
X92063142Y-186662190D01*
X92015523Y-186662190D01*
X91944095Y-186638380D01*
X91896476Y-186590761D01*
X91872666Y-186543142D01*
X91848857Y-186447904D01*
X91848857Y-186376476D01*
X91872666Y-186281238D01*
X91896476Y-186233619D01*
X91944095Y-186186000D01*
X92015523Y-186162190D01*
X92063142Y-186162190D01*
X92134571Y-186186000D01*
X92158380Y-186209809D01*
X92539333Y-186400285D02*
X92372666Y-186400285D01*
X92372666Y-186662190D02*
X92372666Y-186162190D01*
X92610761Y-186162190D01*
X93063142Y-186662190D02*
X92777428Y-186662190D01*
X92920285Y-186662190D02*
X92920285Y-186162190D01*
X92872666Y-186233619D01*
X92825047Y-186281238D01*
X92777428Y-186305047D01*
G04 #@! TD*
M02*
