G04 #@! TF.GenerationSoftware,KiCad,Pcbnew,(5.0.0)*
G04 #@! TF.CreationDate,2018-10-20T19:08:45+01:00*
G04 #@! TF.ProjectId,AD9833FunctionGenerator,41443938333346756E6374696F6E4765,rev?*
G04 #@! TF.SameCoordinates,Original*
G04 #@! TF.FileFunction,Soldermask,Top*
G04 #@! TF.FilePolarity,Negative*
%FSLAX46Y46*%
G04 Gerber Fmt 4.6, Leading zero omitted, Abs format (unit mm)*
G04 Created by KiCad (PCBNEW (5.0.0)) date 10/20/18 19:08:45*
%MOMM*%
%LPD*%
G01*
G04 APERTURE LIST*
%ADD10C,2.600000*%
%ADD11C,2.020000*%
%ADD12O,2.000000X2.000000*%
%ADD13C,2.000000*%
%ADD14R,2.000000X2.000000*%
%ADD15C,2.400000*%
%ADD16C,0.100000*%
%ADD17C,1.550000*%
%ADD18C,2.900000*%
%ADD19R,2.100000X2.100000*%
%ADD20O,2.100000X2.100000*%
%ADD21R,1.900000X1.000000*%
%ADD22R,2.305000X2.400000*%
%ADD23O,2.305000X2.400000*%
%ADD24R,1.950000X1.000000*%
G04 APERTURE END LIST*
D10*
G04 #@! TO.C,REF\002A\002A*
X53794681Y-71464698D03*
G04 #@! TD*
G04 #@! TO.C,REF\002A\002A*
X86814681Y-71464698D03*
G04 #@! TD*
G04 #@! TO.C,REF\002A\002A*
X86814681Y-110834698D03*
G04 #@! TD*
D11*
G04 #@! TO.C,RV_UPOFF1*
X83900000Y-207010000D03*
X81400000Y-202010000D03*
X78900000Y-207010000D03*
G04 #@! TD*
D12*
G04 #@! TO.C,A1*
X109855000Y-92710000D03*
X125095000Y-92710000D03*
X109855000Y-128270000D03*
X125095000Y-95250000D03*
X109855000Y-125730000D03*
X125095000Y-97790000D03*
X109855000Y-123190000D03*
X125095000Y-100330000D03*
X109855000Y-120650000D03*
X125095000Y-102870000D03*
X109855000Y-118110000D03*
D13*
X125095000Y-105410000D03*
D12*
X109855000Y-115570000D03*
X125095000Y-107950000D03*
X109855000Y-113030000D03*
X125095000Y-110490000D03*
X109855000Y-110490000D03*
X125095000Y-113030000D03*
X109855000Y-107950000D03*
X125095000Y-115570000D03*
X109855000Y-105410000D03*
X125095000Y-118110000D03*
X109855000Y-102870000D03*
X125095000Y-120650000D03*
X109855000Y-100330000D03*
X125095000Y-123190000D03*
X109855000Y-97790000D03*
X125095000Y-125730000D03*
X109855000Y-95250000D03*
D14*
X125095000Y-128270000D03*
G04 #@! TD*
D15*
G04 #@! TO.C,RV_FREQ1*
X71882000Y-144780000D03*
X71882000Y-142240000D03*
X71882000Y-139700000D03*
X77216000Y-144780000D03*
X77216000Y-142240000D03*
X77216000Y-139700000D03*
G04 #@! TD*
D16*
G04 #@! TO.C,RG1*
G36*
X94950071Y-182743623D02*
X94982781Y-182748475D01*
X95014857Y-182756509D01*
X95045991Y-182767649D01*
X95075884Y-182781787D01*
X95104247Y-182798787D01*
X95130807Y-182818485D01*
X95155308Y-182840692D01*
X95177515Y-182865193D01*
X95197213Y-182891753D01*
X95214213Y-182920116D01*
X95228351Y-182950009D01*
X95239491Y-182981143D01*
X95247525Y-183013219D01*
X95252377Y-183045929D01*
X95254000Y-183078956D01*
X95254000Y-184205044D01*
X95252377Y-184238071D01*
X95247525Y-184270781D01*
X95239491Y-184302857D01*
X95228351Y-184333991D01*
X95214213Y-184363884D01*
X95197213Y-184392247D01*
X95177515Y-184418807D01*
X95155308Y-184443308D01*
X95130807Y-184465515D01*
X95104247Y-184485213D01*
X95075884Y-184502213D01*
X95045991Y-184516351D01*
X95014857Y-184527491D01*
X94982781Y-184535525D01*
X94950071Y-184540377D01*
X94917044Y-184542000D01*
X94040956Y-184542000D01*
X94007929Y-184540377D01*
X93975219Y-184535525D01*
X93943143Y-184527491D01*
X93912009Y-184516351D01*
X93882116Y-184502213D01*
X93853753Y-184485213D01*
X93827193Y-184465515D01*
X93802692Y-184443308D01*
X93780485Y-184418807D01*
X93760787Y-184392247D01*
X93743787Y-184363884D01*
X93729649Y-184333991D01*
X93718509Y-184302857D01*
X93710475Y-184270781D01*
X93705623Y-184238071D01*
X93704000Y-184205044D01*
X93704000Y-183078956D01*
X93705623Y-183045929D01*
X93710475Y-183013219D01*
X93718509Y-182981143D01*
X93729649Y-182950009D01*
X93743787Y-182920116D01*
X93760787Y-182891753D01*
X93780485Y-182865193D01*
X93802692Y-182840692D01*
X93827193Y-182818485D01*
X93853753Y-182798787D01*
X93882116Y-182781787D01*
X93912009Y-182767649D01*
X93943143Y-182756509D01*
X93975219Y-182748475D01*
X94007929Y-182743623D01*
X94040956Y-182742000D01*
X94917044Y-182742000D01*
X94950071Y-182743623D01*
X94950071Y-182743623D01*
G37*
D17*
X94479000Y-183642000D03*
D16*
G36*
X97000071Y-182743623D02*
X97032781Y-182748475D01*
X97064857Y-182756509D01*
X97095991Y-182767649D01*
X97125884Y-182781787D01*
X97154247Y-182798787D01*
X97180807Y-182818485D01*
X97205308Y-182840692D01*
X97227515Y-182865193D01*
X97247213Y-182891753D01*
X97264213Y-182920116D01*
X97278351Y-182950009D01*
X97289491Y-182981143D01*
X97297525Y-183013219D01*
X97302377Y-183045929D01*
X97304000Y-183078956D01*
X97304000Y-184205044D01*
X97302377Y-184238071D01*
X97297525Y-184270781D01*
X97289491Y-184302857D01*
X97278351Y-184333991D01*
X97264213Y-184363884D01*
X97247213Y-184392247D01*
X97227515Y-184418807D01*
X97205308Y-184443308D01*
X97180807Y-184465515D01*
X97154247Y-184485213D01*
X97125884Y-184502213D01*
X97095991Y-184516351D01*
X97064857Y-184527491D01*
X97032781Y-184535525D01*
X97000071Y-184540377D01*
X96967044Y-184542000D01*
X96090956Y-184542000D01*
X96057929Y-184540377D01*
X96025219Y-184535525D01*
X95993143Y-184527491D01*
X95962009Y-184516351D01*
X95932116Y-184502213D01*
X95903753Y-184485213D01*
X95877193Y-184465515D01*
X95852692Y-184443308D01*
X95830485Y-184418807D01*
X95810787Y-184392247D01*
X95793787Y-184363884D01*
X95779649Y-184333991D01*
X95768509Y-184302857D01*
X95760475Y-184270781D01*
X95755623Y-184238071D01*
X95754000Y-184205044D01*
X95754000Y-183078956D01*
X95755623Y-183045929D01*
X95760475Y-183013219D01*
X95768509Y-182981143D01*
X95779649Y-182950009D01*
X95793787Y-182920116D01*
X95810787Y-182891753D01*
X95830485Y-182865193D01*
X95852692Y-182840692D01*
X95877193Y-182818485D01*
X95903753Y-182798787D01*
X95932116Y-182781787D01*
X95962009Y-182767649D01*
X95993143Y-182756509D01*
X96025219Y-182748475D01*
X96057929Y-182743623D01*
X96090956Y-182742000D01*
X96967044Y-182742000D01*
X97000071Y-182743623D01*
X97000071Y-182743623D01*
G37*
D17*
X96529000Y-183642000D03*
G04 #@! TD*
D16*
G04 #@! TO.C,RF1*
G36*
X97000071Y-188331623D02*
X97032781Y-188336475D01*
X97064857Y-188344509D01*
X97095991Y-188355649D01*
X97125884Y-188369787D01*
X97154247Y-188386787D01*
X97180807Y-188406485D01*
X97205308Y-188428692D01*
X97227515Y-188453193D01*
X97247213Y-188479753D01*
X97264213Y-188508116D01*
X97278351Y-188538009D01*
X97289491Y-188569143D01*
X97297525Y-188601219D01*
X97302377Y-188633929D01*
X97304000Y-188666956D01*
X97304000Y-189793044D01*
X97302377Y-189826071D01*
X97297525Y-189858781D01*
X97289491Y-189890857D01*
X97278351Y-189921991D01*
X97264213Y-189951884D01*
X97247213Y-189980247D01*
X97227515Y-190006807D01*
X97205308Y-190031308D01*
X97180807Y-190053515D01*
X97154247Y-190073213D01*
X97125884Y-190090213D01*
X97095991Y-190104351D01*
X97064857Y-190115491D01*
X97032781Y-190123525D01*
X97000071Y-190128377D01*
X96967044Y-190130000D01*
X96090956Y-190130000D01*
X96057929Y-190128377D01*
X96025219Y-190123525D01*
X95993143Y-190115491D01*
X95962009Y-190104351D01*
X95932116Y-190090213D01*
X95903753Y-190073213D01*
X95877193Y-190053515D01*
X95852692Y-190031308D01*
X95830485Y-190006807D01*
X95810787Y-189980247D01*
X95793787Y-189951884D01*
X95779649Y-189921991D01*
X95768509Y-189890857D01*
X95760475Y-189858781D01*
X95755623Y-189826071D01*
X95754000Y-189793044D01*
X95754000Y-188666956D01*
X95755623Y-188633929D01*
X95760475Y-188601219D01*
X95768509Y-188569143D01*
X95779649Y-188538009D01*
X95793787Y-188508116D01*
X95810787Y-188479753D01*
X95830485Y-188453193D01*
X95852692Y-188428692D01*
X95877193Y-188406485D01*
X95903753Y-188386787D01*
X95932116Y-188369787D01*
X95962009Y-188355649D01*
X95993143Y-188344509D01*
X96025219Y-188336475D01*
X96057929Y-188331623D01*
X96090956Y-188330000D01*
X96967044Y-188330000D01*
X97000071Y-188331623D01*
X97000071Y-188331623D01*
G37*
D17*
X96529000Y-189230000D03*
D16*
G36*
X94950071Y-188331623D02*
X94982781Y-188336475D01*
X95014857Y-188344509D01*
X95045991Y-188355649D01*
X95075884Y-188369787D01*
X95104247Y-188386787D01*
X95130807Y-188406485D01*
X95155308Y-188428692D01*
X95177515Y-188453193D01*
X95197213Y-188479753D01*
X95214213Y-188508116D01*
X95228351Y-188538009D01*
X95239491Y-188569143D01*
X95247525Y-188601219D01*
X95252377Y-188633929D01*
X95254000Y-188666956D01*
X95254000Y-189793044D01*
X95252377Y-189826071D01*
X95247525Y-189858781D01*
X95239491Y-189890857D01*
X95228351Y-189921991D01*
X95214213Y-189951884D01*
X95197213Y-189980247D01*
X95177515Y-190006807D01*
X95155308Y-190031308D01*
X95130807Y-190053515D01*
X95104247Y-190073213D01*
X95075884Y-190090213D01*
X95045991Y-190104351D01*
X95014857Y-190115491D01*
X94982781Y-190123525D01*
X94950071Y-190128377D01*
X94917044Y-190130000D01*
X94040956Y-190130000D01*
X94007929Y-190128377D01*
X93975219Y-190123525D01*
X93943143Y-190115491D01*
X93912009Y-190104351D01*
X93882116Y-190090213D01*
X93853753Y-190073213D01*
X93827193Y-190053515D01*
X93802692Y-190031308D01*
X93780485Y-190006807D01*
X93760787Y-189980247D01*
X93743787Y-189951884D01*
X93729649Y-189921991D01*
X93718509Y-189890857D01*
X93710475Y-189858781D01*
X93705623Y-189826071D01*
X93704000Y-189793044D01*
X93704000Y-188666956D01*
X93705623Y-188633929D01*
X93710475Y-188601219D01*
X93718509Y-188569143D01*
X93729649Y-188538009D01*
X93743787Y-188508116D01*
X93760787Y-188479753D01*
X93780485Y-188453193D01*
X93802692Y-188428692D01*
X93827193Y-188406485D01*
X93853753Y-188386787D01*
X93882116Y-188369787D01*
X93912009Y-188355649D01*
X93943143Y-188344509D01*
X93975219Y-188336475D01*
X94007929Y-188331623D01*
X94040956Y-188330000D01*
X94917044Y-188330000D01*
X94950071Y-188331623D01*
X94950071Y-188331623D01*
G37*
D17*
X94479000Y-189230000D03*
G04 #@! TD*
D18*
G04 #@! TO.C,SW_PWR1*
X80264000Y-124968000D03*
X80264000Y-118968000D03*
X84264000Y-124968000D03*
X84264000Y-118968000D03*
X88264000Y-124968000D03*
X88264000Y-118968000D03*
G04 #@! TD*
D19*
G04 #@! TO.C,J_OUT1*
X90424000Y-204470000D03*
D20*
X92964000Y-204470000D03*
G04 #@! TD*
D19*
G04 #@! TO.C,J_PWR1*
X96520000Y-96520000D03*
D20*
X99060000Y-96520000D03*
X96520000Y-99060000D03*
X99060000Y-99060000D03*
X96520000Y-101600000D03*
X99060000Y-101600000D03*
X96520000Y-104140000D03*
X99060000Y-104140000D03*
X96520000Y-106680000D03*
X99060000Y-106680000D03*
G04 #@! TD*
D21*
G04 #@! TO.C,U_POT1*
X111412000Y-201930000D03*
X111412000Y-200660000D03*
X111412000Y-199390000D03*
X111412000Y-198120000D03*
X111412000Y-196850000D03*
X111412000Y-195580000D03*
X111412000Y-194310000D03*
X106012000Y-194310000D03*
X106012000Y-195580000D03*
X106012000Y-196850000D03*
X106012000Y-198120000D03*
X106012000Y-199390000D03*
X106012000Y-200660000D03*
X106012000Y-201930000D03*
G04 #@! TD*
D16*
G04 #@! TO.C,R_LOFF1*
G36*
X73106071Y-209921623D02*
X73138781Y-209926475D01*
X73170857Y-209934509D01*
X73201991Y-209945649D01*
X73231884Y-209959787D01*
X73260247Y-209976787D01*
X73286807Y-209996485D01*
X73311308Y-210018692D01*
X73333515Y-210043193D01*
X73353213Y-210069753D01*
X73370213Y-210098116D01*
X73384351Y-210128009D01*
X73395491Y-210159143D01*
X73403525Y-210191219D01*
X73408377Y-210223929D01*
X73410000Y-210256956D01*
X73410000Y-211383044D01*
X73408377Y-211416071D01*
X73403525Y-211448781D01*
X73395491Y-211480857D01*
X73384351Y-211511991D01*
X73370213Y-211541884D01*
X73353213Y-211570247D01*
X73333515Y-211596807D01*
X73311308Y-211621308D01*
X73286807Y-211643515D01*
X73260247Y-211663213D01*
X73231884Y-211680213D01*
X73201991Y-211694351D01*
X73170857Y-211705491D01*
X73138781Y-211713525D01*
X73106071Y-211718377D01*
X73073044Y-211720000D01*
X72196956Y-211720000D01*
X72163929Y-211718377D01*
X72131219Y-211713525D01*
X72099143Y-211705491D01*
X72068009Y-211694351D01*
X72038116Y-211680213D01*
X72009753Y-211663213D01*
X71983193Y-211643515D01*
X71958692Y-211621308D01*
X71936485Y-211596807D01*
X71916787Y-211570247D01*
X71899787Y-211541884D01*
X71885649Y-211511991D01*
X71874509Y-211480857D01*
X71866475Y-211448781D01*
X71861623Y-211416071D01*
X71860000Y-211383044D01*
X71860000Y-210256956D01*
X71861623Y-210223929D01*
X71866475Y-210191219D01*
X71874509Y-210159143D01*
X71885649Y-210128009D01*
X71899787Y-210098116D01*
X71916787Y-210069753D01*
X71936485Y-210043193D01*
X71958692Y-210018692D01*
X71983193Y-209996485D01*
X72009753Y-209976787D01*
X72038116Y-209959787D01*
X72068009Y-209945649D01*
X72099143Y-209934509D01*
X72131219Y-209926475D01*
X72163929Y-209921623D01*
X72196956Y-209920000D01*
X73073044Y-209920000D01*
X73106071Y-209921623D01*
X73106071Y-209921623D01*
G37*
D17*
X72635000Y-210820000D03*
D16*
G36*
X75156071Y-209921623D02*
X75188781Y-209926475D01*
X75220857Y-209934509D01*
X75251991Y-209945649D01*
X75281884Y-209959787D01*
X75310247Y-209976787D01*
X75336807Y-209996485D01*
X75361308Y-210018692D01*
X75383515Y-210043193D01*
X75403213Y-210069753D01*
X75420213Y-210098116D01*
X75434351Y-210128009D01*
X75445491Y-210159143D01*
X75453525Y-210191219D01*
X75458377Y-210223929D01*
X75460000Y-210256956D01*
X75460000Y-211383044D01*
X75458377Y-211416071D01*
X75453525Y-211448781D01*
X75445491Y-211480857D01*
X75434351Y-211511991D01*
X75420213Y-211541884D01*
X75403213Y-211570247D01*
X75383515Y-211596807D01*
X75361308Y-211621308D01*
X75336807Y-211643515D01*
X75310247Y-211663213D01*
X75281884Y-211680213D01*
X75251991Y-211694351D01*
X75220857Y-211705491D01*
X75188781Y-211713525D01*
X75156071Y-211718377D01*
X75123044Y-211720000D01*
X74246956Y-211720000D01*
X74213929Y-211718377D01*
X74181219Y-211713525D01*
X74149143Y-211705491D01*
X74118009Y-211694351D01*
X74088116Y-211680213D01*
X74059753Y-211663213D01*
X74033193Y-211643515D01*
X74008692Y-211621308D01*
X73986485Y-211596807D01*
X73966787Y-211570247D01*
X73949787Y-211541884D01*
X73935649Y-211511991D01*
X73924509Y-211480857D01*
X73916475Y-211448781D01*
X73911623Y-211416071D01*
X73910000Y-211383044D01*
X73910000Y-210256956D01*
X73911623Y-210223929D01*
X73916475Y-210191219D01*
X73924509Y-210159143D01*
X73935649Y-210128009D01*
X73949787Y-210098116D01*
X73966787Y-210069753D01*
X73986485Y-210043193D01*
X74008692Y-210018692D01*
X74033193Y-209996485D01*
X74059753Y-209976787D01*
X74088116Y-209959787D01*
X74118009Y-209945649D01*
X74149143Y-209934509D01*
X74181219Y-209926475D01*
X74213929Y-209921623D01*
X74246956Y-209920000D01*
X75123044Y-209920000D01*
X75156071Y-209921623D01*
X75156071Y-209921623D01*
G37*
D17*
X74685000Y-210820000D03*
G04 #@! TD*
D16*
G04 #@! TO.C,C1*
G36*
X95846071Y-88117623D02*
X95878781Y-88122475D01*
X95910857Y-88130509D01*
X95941991Y-88141649D01*
X95971884Y-88155787D01*
X96000247Y-88172787D01*
X96026807Y-88192485D01*
X96051308Y-88214692D01*
X96073515Y-88239193D01*
X96093213Y-88265753D01*
X96110213Y-88294116D01*
X96124351Y-88324009D01*
X96135491Y-88355143D01*
X96143525Y-88387219D01*
X96148377Y-88419929D01*
X96150000Y-88452956D01*
X96150000Y-89329044D01*
X96148377Y-89362071D01*
X96143525Y-89394781D01*
X96135491Y-89426857D01*
X96124351Y-89457991D01*
X96110213Y-89487884D01*
X96093213Y-89516247D01*
X96073515Y-89542807D01*
X96051308Y-89567308D01*
X96026807Y-89589515D01*
X96000247Y-89609213D01*
X95971884Y-89626213D01*
X95941991Y-89640351D01*
X95910857Y-89651491D01*
X95878781Y-89659525D01*
X95846071Y-89664377D01*
X95813044Y-89666000D01*
X94686956Y-89666000D01*
X94653929Y-89664377D01*
X94621219Y-89659525D01*
X94589143Y-89651491D01*
X94558009Y-89640351D01*
X94528116Y-89626213D01*
X94499753Y-89609213D01*
X94473193Y-89589515D01*
X94448692Y-89567308D01*
X94426485Y-89542807D01*
X94406787Y-89516247D01*
X94389787Y-89487884D01*
X94375649Y-89457991D01*
X94364509Y-89426857D01*
X94356475Y-89394781D01*
X94351623Y-89362071D01*
X94350000Y-89329044D01*
X94350000Y-88452956D01*
X94351623Y-88419929D01*
X94356475Y-88387219D01*
X94364509Y-88355143D01*
X94375649Y-88324009D01*
X94389787Y-88294116D01*
X94406787Y-88265753D01*
X94426485Y-88239193D01*
X94448692Y-88214692D01*
X94473193Y-88192485D01*
X94499753Y-88172787D01*
X94528116Y-88155787D01*
X94558009Y-88141649D01*
X94589143Y-88130509D01*
X94621219Y-88122475D01*
X94653929Y-88117623D01*
X94686956Y-88116000D01*
X95813044Y-88116000D01*
X95846071Y-88117623D01*
X95846071Y-88117623D01*
G37*
D17*
X95250000Y-88891000D03*
D16*
G36*
X95846071Y-90167623D02*
X95878781Y-90172475D01*
X95910857Y-90180509D01*
X95941991Y-90191649D01*
X95971884Y-90205787D01*
X96000247Y-90222787D01*
X96026807Y-90242485D01*
X96051308Y-90264692D01*
X96073515Y-90289193D01*
X96093213Y-90315753D01*
X96110213Y-90344116D01*
X96124351Y-90374009D01*
X96135491Y-90405143D01*
X96143525Y-90437219D01*
X96148377Y-90469929D01*
X96150000Y-90502956D01*
X96150000Y-91379044D01*
X96148377Y-91412071D01*
X96143525Y-91444781D01*
X96135491Y-91476857D01*
X96124351Y-91507991D01*
X96110213Y-91537884D01*
X96093213Y-91566247D01*
X96073515Y-91592807D01*
X96051308Y-91617308D01*
X96026807Y-91639515D01*
X96000247Y-91659213D01*
X95971884Y-91676213D01*
X95941991Y-91690351D01*
X95910857Y-91701491D01*
X95878781Y-91709525D01*
X95846071Y-91714377D01*
X95813044Y-91716000D01*
X94686956Y-91716000D01*
X94653929Y-91714377D01*
X94621219Y-91709525D01*
X94589143Y-91701491D01*
X94558009Y-91690351D01*
X94528116Y-91676213D01*
X94499753Y-91659213D01*
X94473193Y-91639515D01*
X94448692Y-91617308D01*
X94426485Y-91592807D01*
X94406787Y-91566247D01*
X94389787Y-91537884D01*
X94375649Y-91507991D01*
X94364509Y-91476857D01*
X94356475Y-91444781D01*
X94351623Y-91412071D01*
X94350000Y-91379044D01*
X94350000Y-90502956D01*
X94351623Y-90469929D01*
X94356475Y-90437219D01*
X94364509Y-90405143D01*
X94375649Y-90374009D01*
X94389787Y-90344116D01*
X94406787Y-90315753D01*
X94426485Y-90289193D01*
X94448692Y-90264692D01*
X94473193Y-90242485D01*
X94499753Y-90222787D01*
X94528116Y-90205787D01*
X94558009Y-90191649D01*
X94589143Y-90180509D01*
X94621219Y-90172475D01*
X94653929Y-90167623D01*
X94686956Y-90166000D01*
X95813044Y-90166000D01*
X95846071Y-90167623D01*
X95846071Y-90167623D01*
G37*
D17*
X95250000Y-90941000D03*
G04 #@! TD*
D16*
G04 #@! TO.C,C2*
G36*
X100926071Y-90167623D02*
X100958781Y-90172475D01*
X100990857Y-90180509D01*
X101021991Y-90191649D01*
X101051884Y-90205787D01*
X101080247Y-90222787D01*
X101106807Y-90242485D01*
X101131308Y-90264692D01*
X101153515Y-90289193D01*
X101173213Y-90315753D01*
X101190213Y-90344116D01*
X101204351Y-90374009D01*
X101215491Y-90405143D01*
X101223525Y-90437219D01*
X101228377Y-90469929D01*
X101230000Y-90502956D01*
X101230000Y-91379044D01*
X101228377Y-91412071D01*
X101223525Y-91444781D01*
X101215491Y-91476857D01*
X101204351Y-91507991D01*
X101190213Y-91537884D01*
X101173213Y-91566247D01*
X101153515Y-91592807D01*
X101131308Y-91617308D01*
X101106807Y-91639515D01*
X101080247Y-91659213D01*
X101051884Y-91676213D01*
X101021991Y-91690351D01*
X100990857Y-91701491D01*
X100958781Y-91709525D01*
X100926071Y-91714377D01*
X100893044Y-91716000D01*
X99766956Y-91716000D01*
X99733929Y-91714377D01*
X99701219Y-91709525D01*
X99669143Y-91701491D01*
X99638009Y-91690351D01*
X99608116Y-91676213D01*
X99579753Y-91659213D01*
X99553193Y-91639515D01*
X99528692Y-91617308D01*
X99506485Y-91592807D01*
X99486787Y-91566247D01*
X99469787Y-91537884D01*
X99455649Y-91507991D01*
X99444509Y-91476857D01*
X99436475Y-91444781D01*
X99431623Y-91412071D01*
X99430000Y-91379044D01*
X99430000Y-90502956D01*
X99431623Y-90469929D01*
X99436475Y-90437219D01*
X99444509Y-90405143D01*
X99455649Y-90374009D01*
X99469787Y-90344116D01*
X99486787Y-90315753D01*
X99506485Y-90289193D01*
X99528692Y-90264692D01*
X99553193Y-90242485D01*
X99579753Y-90222787D01*
X99608116Y-90205787D01*
X99638009Y-90191649D01*
X99669143Y-90180509D01*
X99701219Y-90172475D01*
X99733929Y-90167623D01*
X99766956Y-90166000D01*
X100893044Y-90166000D01*
X100926071Y-90167623D01*
X100926071Y-90167623D01*
G37*
D17*
X100330000Y-90941000D03*
D16*
G36*
X100926071Y-88117623D02*
X100958781Y-88122475D01*
X100990857Y-88130509D01*
X101021991Y-88141649D01*
X101051884Y-88155787D01*
X101080247Y-88172787D01*
X101106807Y-88192485D01*
X101131308Y-88214692D01*
X101153515Y-88239193D01*
X101173213Y-88265753D01*
X101190213Y-88294116D01*
X101204351Y-88324009D01*
X101215491Y-88355143D01*
X101223525Y-88387219D01*
X101228377Y-88419929D01*
X101230000Y-88452956D01*
X101230000Y-89329044D01*
X101228377Y-89362071D01*
X101223525Y-89394781D01*
X101215491Y-89426857D01*
X101204351Y-89457991D01*
X101190213Y-89487884D01*
X101173213Y-89516247D01*
X101153515Y-89542807D01*
X101131308Y-89567308D01*
X101106807Y-89589515D01*
X101080247Y-89609213D01*
X101051884Y-89626213D01*
X101021991Y-89640351D01*
X100990857Y-89651491D01*
X100958781Y-89659525D01*
X100926071Y-89664377D01*
X100893044Y-89666000D01*
X99766956Y-89666000D01*
X99733929Y-89664377D01*
X99701219Y-89659525D01*
X99669143Y-89651491D01*
X99638009Y-89640351D01*
X99608116Y-89626213D01*
X99579753Y-89609213D01*
X99553193Y-89589515D01*
X99528692Y-89567308D01*
X99506485Y-89542807D01*
X99486787Y-89516247D01*
X99469787Y-89487884D01*
X99455649Y-89457991D01*
X99444509Y-89426857D01*
X99436475Y-89394781D01*
X99431623Y-89362071D01*
X99430000Y-89329044D01*
X99430000Y-88452956D01*
X99431623Y-88419929D01*
X99436475Y-88387219D01*
X99444509Y-88355143D01*
X99455649Y-88324009D01*
X99469787Y-88294116D01*
X99486787Y-88265753D01*
X99506485Y-88239193D01*
X99528692Y-88214692D01*
X99553193Y-88192485D01*
X99579753Y-88172787D01*
X99608116Y-88155787D01*
X99638009Y-88141649D01*
X99669143Y-88130509D01*
X99701219Y-88122475D01*
X99733929Y-88117623D01*
X99766956Y-88116000D01*
X100893044Y-88116000D01*
X100926071Y-88117623D01*
X100926071Y-88117623D01*
G37*
D17*
X100330000Y-88891000D03*
G04 #@! TD*
D20*
G04 #@! TO.C,J_AD9833*
X111194407Y-178061772D03*
X111194407Y-175521772D03*
X111194407Y-172981772D03*
X111194407Y-170441772D03*
X111194407Y-167901772D03*
X111194407Y-165361772D03*
D19*
X111194407Y-162821772D03*
G04 #@! TD*
G04 #@! TO.C,J_AUX2MAIN2*
X83131681Y-85307698D03*
D20*
X80591681Y-85307698D03*
X83131681Y-82767698D03*
X80591681Y-82767698D03*
X83131681Y-80227698D03*
X80591681Y-80227698D03*
X83131681Y-77687698D03*
X80591681Y-77687698D03*
X83131681Y-75147698D03*
X80591681Y-75147698D03*
G04 #@! TD*
D19*
G04 #@! TO.C,J_MAIN2AUX1*
X127000000Y-81280000D03*
D20*
X124460000Y-81280000D03*
X127000000Y-78740000D03*
X124460000Y-78740000D03*
X127000000Y-76200000D03*
X124460000Y-76200000D03*
X127000000Y-73660000D03*
X124460000Y-73660000D03*
X127000000Y-71120000D03*
X124460000Y-71120000D03*
G04 #@! TD*
D19*
G04 #@! TO.C,J_OLEDCONNECTOR1*
X66725646Y-73193447D03*
D20*
X69265646Y-73193447D03*
X71805646Y-73193447D03*
X74345646Y-73193447D03*
G04 #@! TD*
D16*
G04 #@! TO.C,R_ISO1*
G36*
X91020071Y-209928623D02*
X91052781Y-209933475D01*
X91084857Y-209941509D01*
X91115991Y-209952649D01*
X91145884Y-209966787D01*
X91174247Y-209983787D01*
X91200807Y-210003485D01*
X91225308Y-210025692D01*
X91247515Y-210050193D01*
X91267213Y-210076753D01*
X91284213Y-210105116D01*
X91298351Y-210135009D01*
X91309491Y-210166143D01*
X91317525Y-210198219D01*
X91322377Y-210230929D01*
X91324000Y-210263956D01*
X91324000Y-211140044D01*
X91322377Y-211173071D01*
X91317525Y-211205781D01*
X91309491Y-211237857D01*
X91298351Y-211268991D01*
X91284213Y-211298884D01*
X91267213Y-211327247D01*
X91247515Y-211353807D01*
X91225308Y-211378308D01*
X91200807Y-211400515D01*
X91174247Y-211420213D01*
X91145884Y-211437213D01*
X91115991Y-211451351D01*
X91084857Y-211462491D01*
X91052781Y-211470525D01*
X91020071Y-211475377D01*
X90987044Y-211477000D01*
X89860956Y-211477000D01*
X89827929Y-211475377D01*
X89795219Y-211470525D01*
X89763143Y-211462491D01*
X89732009Y-211451351D01*
X89702116Y-211437213D01*
X89673753Y-211420213D01*
X89647193Y-211400515D01*
X89622692Y-211378308D01*
X89600485Y-211353807D01*
X89580787Y-211327247D01*
X89563787Y-211298884D01*
X89549649Y-211268991D01*
X89538509Y-211237857D01*
X89530475Y-211205781D01*
X89525623Y-211173071D01*
X89524000Y-211140044D01*
X89524000Y-210263956D01*
X89525623Y-210230929D01*
X89530475Y-210198219D01*
X89538509Y-210166143D01*
X89549649Y-210135009D01*
X89563787Y-210105116D01*
X89580787Y-210076753D01*
X89600485Y-210050193D01*
X89622692Y-210025692D01*
X89647193Y-210003485D01*
X89673753Y-209983787D01*
X89702116Y-209966787D01*
X89732009Y-209952649D01*
X89763143Y-209941509D01*
X89795219Y-209933475D01*
X89827929Y-209928623D01*
X89860956Y-209927000D01*
X90987044Y-209927000D01*
X91020071Y-209928623D01*
X91020071Y-209928623D01*
G37*
D17*
X90424000Y-210702000D03*
D16*
G36*
X91020071Y-207878623D02*
X91052781Y-207883475D01*
X91084857Y-207891509D01*
X91115991Y-207902649D01*
X91145884Y-207916787D01*
X91174247Y-207933787D01*
X91200807Y-207953485D01*
X91225308Y-207975692D01*
X91247515Y-208000193D01*
X91267213Y-208026753D01*
X91284213Y-208055116D01*
X91298351Y-208085009D01*
X91309491Y-208116143D01*
X91317525Y-208148219D01*
X91322377Y-208180929D01*
X91324000Y-208213956D01*
X91324000Y-209090044D01*
X91322377Y-209123071D01*
X91317525Y-209155781D01*
X91309491Y-209187857D01*
X91298351Y-209218991D01*
X91284213Y-209248884D01*
X91267213Y-209277247D01*
X91247515Y-209303807D01*
X91225308Y-209328308D01*
X91200807Y-209350515D01*
X91174247Y-209370213D01*
X91145884Y-209387213D01*
X91115991Y-209401351D01*
X91084857Y-209412491D01*
X91052781Y-209420525D01*
X91020071Y-209425377D01*
X90987044Y-209427000D01*
X89860956Y-209427000D01*
X89827929Y-209425377D01*
X89795219Y-209420525D01*
X89763143Y-209412491D01*
X89732009Y-209401351D01*
X89702116Y-209387213D01*
X89673753Y-209370213D01*
X89647193Y-209350515D01*
X89622692Y-209328308D01*
X89600485Y-209303807D01*
X89580787Y-209277247D01*
X89563787Y-209248884D01*
X89549649Y-209218991D01*
X89538509Y-209187857D01*
X89530475Y-209155781D01*
X89525623Y-209123071D01*
X89524000Y-209090044D01*
X89524000Y-208213956D01*
X89525623Y-208180929D01*
X89530475Y-208148219D01*
X89538509Y-208116143D01*
X89549649Y-208085009D01*
X89563787Y-208055116D01*
X89580787Y-208026753D01*
X89600485Y-208000193D01*
X89622692Y-207975692D01*
X89647193Y-207953485D01*
X89673753Y-207933787D01*
X89702116Y-207916787D01*
X89732009Y-207902649D01*
X89763143Y-207891509D01*
X89795219Y-207883475D01*
X89827929Y-207878623D01*
X89860956Y-207877000D01*
X90987044Y-207877000D01*
X91020071Y-207878623D01*
X91020071Y-207878623D01*
G37*
D17*
X90424000Y-208652000D03*
G04 #@! TD*
D16*
G04 #@! TO.C,R_MIX1*
G36*
X83411071Y-192141623D02*
X83443781Y-192146475D01*
X83475857Y-192154509D01*
X83506991Y-192165649D01*
X83536884Y-192179787D01*
X83565247Y-192196787D01*
X83591807Y-192216485D01*
X83616308Y-192238692D01*
X83638515Y-192263193D01*
X83658213Y-192289753D01*
X83675213Y-192318116D01*
X83689351Y-192348009D01*
X83700491Y-192379143D01*
X83708525Y-192411219D01*
X83713377Y-192443929D01*
X83715000Y-192476956D01*
X83715000Y-193603044D01*
X83713377Y-193636071D01*
X83708525Y-193668781D01*
X83700491Y-193700857D01*
X83689351Y-193731991D01*
X83675213Y-193761884D01*
X83658213Y-193790247D01*
X83638515Y-193816807D01*
X83616308Y-193841308D01*
X83591807Y-193863515D01*
X83565247Y-193883213D01*
X83536884Y-193900213D01*
X83506991Y-193914351D01*
X83475857Y-193925491D01*
X83443781Y-193933525D01*
X83411071Y-193938377D01*
X83378044Y-193940000D01*
X82501956Y-193940000D01*
X82468929Y-193938377D01*
X82436219Y-193933525D01*
X82404143Y-193925491D01*
X82373009Y-193914351D01*
X82343116Y-193900213D01*
X82314753Y-193883213D01*
X82288193Y-193863515D01*
X82263692Y-193841308D01*
X82241485Y-193816807D01*
X82221787Y-193790247D01*
X82204787Y-193761884D01*
X82190649Y-193731991D01*
X82179509Y-193700857D01*
X82171475Y-193668781D01*
X82166623Y-193636071D01*
X82165000Y-193603044D01*
X82165000Y-192476956D01*
X82166623Y-192443929D01*
X82171475Y-192411219D01*
X82179509Y-192379143D01*
X82190649Y-192348009D01*
X82204787Y-192318116D01*
X82221787Y-192289753D01*
X82241485Y-192263193D01*
X82263692Y-192238692D01*
X82288193Y-192216485D01*
X82314753Y-192196787D01*
X82343116Y-192179787D01*
X82373009Y-192165649D01*
X82404143Y-192154509D01*
X82436219Y-192146475D01*
X82468929Y-192141623D01*
X82501956Y-192140000D01*
X83378044Y-192140000D01*
X83411071Y-192141623D01*
X83411071Y-192141623D01*
G37*
D17*
X82940000Y-193040000D03*
D16*
G36*
X81361071Y-192141623D02*
X81393781Y-192146475D01*
X81425857Y-192154509D01*
X81456991Y-192165649D01*
X81486884Y-192179787D01*
X81515247Y-192196787D01*
X81541807Y-192216485D01*
X81566308Y-192238692D01*
X81588515Y-192263193D01*
X81608213Y-192289753D01*
X81625213Y-192318116D01*
X81639351Y-192348009D01*
X81650491Y-192379143D01*
X81658525Y-192411219D01*
X81663377Y-192443929D01*
X81665000Y-192476956D01*
X81665000Y-193603044D01*
X81663377Y-193636071D01*
X81658525Y-193668781D01*
X81650491Y-193700857D01*
X81639351Y-193731991D01*
X81625213Y-193761884D01*
X81608213Y-193790247D01*
X81588515Y-193816807D01*
X81566308Y-193841308D01*
X81541807Y-193863515D01*
X81515247Y-193883213D01*
X81486884Y-193900213D01*
X81456991Y-193914351D01*
X81425857Y-193925491D01*
X81393781Y-193933525D01*
X81361071Y-193938377D01*
X81328044Y-193940000D01*
X80451956Y-193940000D01*
X80418929Y-193938377D01*
X80386219Y-193933525D01*
X80354143Y-193925491D01*
X80323009Y-193914351D01*
X80293116Y-193900213D01*
X80264753Y-193883213D01*
X80238193Y-193863515D01*
X80213692Y-193841308D01*
X80191485Y-193816807D01*
X80171787Y-193790247D01*
X80154787Y-193761884D01*
X80140649Y-193731991D01*
X80129509Y-193700857D01*
X80121475Y-193668781D01*
X80116623Y-193636071D01*
X80115000Y-193603044D01*
X80115000Y-192476956D01*
X80116623Y-192443929D01*
X80121475Y-192411219D01*
X80129509Y-192379143D01*
X80140649Y-192348009D01*
X80154787Y-192318116D01*
X80171787Y-192289753D01*
X80191485Y-192263193D01*
X80213692Y-192238692D01*
X80238193Y-192216485D01*
X80264753Y-192196787D01*
X80293116Y-192179787D01*
X80323009Y-192165649D01*
X80354143Y-192154509D01*
X80386219Y-192146475D01*
X80418929Y-192141623D01*
X80451956Y-192140000D01*
X81328044Y-192140000D01*
X81361071Y-192141623D01*
X81361071Y-192141623D01*
G37*
D17*
X80890000Y-193040000D03*
G04 #@! TD*
D16*
G04 #@! TO.C,R_MIX2*
G36*
X75918071Y-184521623D02*
X75950781Y-184526475D01*
X75982857Y-184534509D01*
X76013991Y-184545649D01*
X76043884Y-184559787D01*
X76072247Y-184576787D01*
X76098807Y-184596485D01*
X76123308Y-184618692D01*
X76145515Y-184643193D01*
X76165213Y-184669753D01*
X76182213Y-184698116D01*
X76196351Y-184728009D01*
X76207491Y-184759143D01*
X76215525Y-184791219D01*
X76220377Y-184823929D01*
X76222000Y-184856956D01*
X76222000Y-185983044D01*
X76220377Y-186016071D01*
X76215525Y-186048781D01*
X76207491Y-186080857D01*
X76196351Y-186111991D01*
X76182213Y-186141884D01*
X76165213Y-186170247D01*
X76145515Y-186196807D01*
X76123308Y-186221308D01*
X76098807Y-186243515D01*
X76072247Y-186263213D01*
X76043884Y-186280213D01*
X76013991Y-186294351D01*
X75982857Y-186305491D01*
X75950781Y-186313525D01*
X75918071Y-186318377D01*
X75885044Y-186320000D01*
X75008956Y-186320000D01*
X74975929Y-186318377D01*
X74943219Y-186313525D01*
X74911143Y-186305491D01*
X74880009Y-186294351D01*
X74850116Y-186280213D01*
X74821753Y-186263213D01*
X74795193Y-186243515D01*
X74770692Y-186221308D01*
X74748485Y-186196807D01*
X74728787Y-186170247D01*
X74711787Y-186141884D01*
X74697649Y-186111991D01*
X74686509Y-186080857D01*
X74678475Y-186048781D01*
X74673623Y-186016071D01*
X74672000Y-185983044D01*
X74672000Y-184856956D01*
X74673623Y-184823929D01*
X74678475Y-184791219D01*
X74686509Y-184759143D01*
X74697649Y-184728009D01*
X74711787Y-184698116D01*
X74728787Y-184669753D01*
X74748485Y-184643193D01*
X74770692Y-184618692D01*
X74795193Y-184596485D01*
X74821753Y-184576787D01*
X74850116Y-184559787D01*
X74880009Y-184545649D01*
X74911143Y-184534509D01*
X74943219Y-184526475D01*
X74975929Y-184521623D01*
X75008956Y-184520000D01*
X75885044Y-184520000D01*
X75918071Y-184521623D01*
X75918071Y-184521623D01*
G37*
D17*
X75447000Y-185420000D03*
D16*
G36*
X73868071Y-184521623D02*
X73900781Y-184526475D01*
X73932857Y-184534509D01*
X73963991Y-184545649D01*
X73993884Y-184559787D01*
X74022247Y-184576787D01*
X74048807Y-184596485D01*
X74073308Y-184618692D01*
X74095515Y-184643193D01*
X74115213Y-184669753D01*
X74132213Y-184698116D01*
X74146351Y-184728009D01*
X74157491Y-184759143D01*
X74165525Y-184791219D01*
X74170377Y-184823929D01*
X74172000Y-184856956D01*
X74172000Y-185983044D01*
X74170377Y-186016071D01*
X74165525Y-186048781D01*
X74157491Y-186080857D01*
X74146351Y-186111991D01*
X74132213Y-186141884D01*
X74115213Y-186170247D01*
X74095515Y-186196807D01*
X74073308Y-186221308D01*
X74048807Y-186243515D01*
X74022247Y-186263213D01*
X73993884Y-186280213D01*
X73963991Y-186294351D01*
X73932857Y-186305491D01*
X73900781Y-186313525D01*
X73868071Y-186318377D01*
X73835044Y-186320000D01*
X72958956Y-186320000D01*
X72925929Y-186318377D01*
X72893219Y-186313525D01*
X72861143Y-186305491D01*
X72830009Y-186294351D01*
X72800116Y-186280213D01*
X72771753Y-186263213D01*
X72745193Y-186243515D01*
X72720692Y-186221308D01*
X72698485Y-186196807D01*
X72678787Y-186170247D01*
X72661787Y-186141884D01*
X72647649Y-186111991D01*
X72636509Y-186080857D01*
X72628475Y-186048781D01*
X72623623Y-186016071D01*
X72622000Y-185983044D01*
X72622000Y-184856956D01*
X72623623Y-184823929D01*
X72628475Y-184791219D01*
X72636509Y-184759143D01*
X72647649Y-184728009D01*
X72661787Y-184698116D01*
X72678787Y-184669753D01*
X72698485Y-184643193D01*
X72720692Y-184618692D01*
X72745193Y-184596485D01*
X72771753Y-184576787D01*
X72800116Y-184559787D01*
X72830009Y-184545649D01*
X72861143Y-184534509D01*
X72893219Y-184526475D01*
X72925929Y-184521623D01*
X72958956Y-184520000D01*
X73835044Y-184520000D01*
X73868071Y-184521623D01*
X73868071Y-184521623D01*
G37*
D17*
X73397000Y-185420000D03*
G04 #@! TD*
D16*
G04 #@! TO.C,R_VEL1*
G36*
X72478071Y-158729623D02*
X72510781Y-158734475D01*
X72542857Y-158742509D01*
X72573991Y-158753649D01*
X72603884Y-158767787D01*
X72632247Y-158784787D01*
X72658807Y-158804485D01*
X72683308Y-158826692D01*
X72705515Y-158851193D01*
X72725213Y-158877753D01*
X72742213Y-158906116D01*
X72756351Y-158936009D01*
X72767491Y-158967143D01*
X72775525Y-158999219D01*
X72780377Y-159031929D01*
X72782000Y-159064956D01*
X72782000Y-159941044D01*
X72780377Y-159974071D01*
X72775525Y-160006781D01*
X72767491Y-160038857D01*
X72756351Y-160069991D01*
X72742213Y-160099884D01*
X72725213Y-160128247D01*
X72705515Y-160154807D01*
X72683308Y-160179308D01*
X72658807Y-160201515D01*
X72632247Y-160221213D01*
X72603884Y-160238213D01*
X72573991Y-160252351D01*
X72542857Y-160263491D01*
X72510781Y-160271525D01*
X72478071Y-160276377D01*
X72445044Y-160278000D01*
X71318956Y-160278000D01*
X71285929Y-160276377D01*
X71253219Y-160271525D01*
X71221143Y-160263491D01*
X71190009Y-160252351D01*
X71160116Y-160238213D01*
X71131753Y-160221213D01*
X71105193Y-160201515D01*
X71080692Y-160179308D01*
X71058485Y-160154807D01*
X71038787Y-160128247D01*
X71021787Y-160099884D01*
X71007649Y-160069991D01*
X70996509Y-160038857D01*
X70988475Y-160006781D01*
X70983623Y-159974071D01*
X70982000Y-159941044D01*
X70982000Y-159064956D01*
X70983623Y-159031929D01*
X70988475Y-158999219D01*
X70996509Y-158967143D01*
X71007649Y-158936009D01*
X71021787Y-158906116D01*
X71038787Y-158877753D01*
X71058485Y-158851193D01*
X71080692Y-158826692D01*
X71105193Y-158804485D01*
X71131753Y-158784787D01*
X71160116Y-158767787D01*
X71190009Y-158753649D01*
X71221143Y-158742509D01*
X71253219Y-158734475D01*
X71285929Y-158729623D01*
X71318956Y-158728000D01*
X72445044Y-158728000D01*
X72478071Y-158729623D01*
X72478071Y-158729623D01*
G37*
D17*
X71882000Y-159503000D03*
D16*
G36*
X72478071Y-160779623D02*
X72510781Y-160784475D01*
X72542857Y-160792509D01*
X72573991Y-160803649D01*
X72603884Y-160817787D01*
X72632247Y-160834787D01*
X72658807Y-160854485D01*
X72683308Y-160876692D01*
X72705515Y-160901193D01*
X72725213Y-160927753D01*
X72742213Y-160956116D01*
X72756351Y-160986009D01*
X72767491Y-161017143D01*
X72775525Y-161049219D01*
X72780377Y-161081929D01*
X72782000Y-161114956D01*
X72782000Y-161991044D01*
X72780377Y-162024071D01*
X72775525Y-162056781D01*
X72767491Y-162088857D01*
X72756351Y-162119991D01*
X72742213Y-162149884D01*
X72725213Y-162178247D01*
X72705515Y-162204807D01*
X72683308Y-162229308D01*
X72658807Y-162251515D01*
X72632247Y-162271213D01*
X72603884Y-162288213D01*
X72573991Y-162302351D01*
X72542857Y-162313491D01*
X72510781Y-162321525D01*
X72478071Y-162326377D01*
X72445044Y-162328000D01*
X71318956Y-162328000D01*
X71285929Y-162326377D01*
X71253219Y-162321525D01*
X71221143Y-162313491D01*
X71190009Y-162302351D01*
X71160116Y-162288213D01*
X71131753Y-162271213D01*
X71105193Y-162251515D01*
X71080692Y-162229308D01*
X71058485Y-162204807D01*
X71038787Y-162178247D01*
X71021787Y-162149884D01*
X71007649Y-162119991D01*
X70996509Y-162088857D01*
X70988475Y-162056781D01*
X70983623Y-162024071D01*
X70982000Y-161991044D01*
X70982000Y-161114956D01*
X70983623Y-161081929D01*
X70988475Y-161049219D01*
X70996509Y-161017143D01*
X71007649Y-160986009D01*
X71021787Y-160956116D01*
X71038787Y-160927753D01*
X71058485Y-160901193D01*
X71080692Y-160876692D01*
X71105193Y-160854485D01*
X71131753Y-160834787D01*
X71160116Y-160817787D01*
X71190009Y-160803649D01*
X71221143Y-160792509D01*
X71253219Y-160784475D01*
X71285929Y-160779623D01*
X71318956Y-160778000D01*
X72445044Y-160778000D01*
X72478071Y-160779623D01*
X72478071Y-160779623D01*
G37*
D17*
X71882000Y-161553000D03*
G04 #@! TD*
D15*
G04 #@! TO.C,SW_FUNC1*
X60929681Y-102452698D03*
X60929681Y-106952698D03*
X54429681Y-102452698D03*
X54429681Y-106952698D03*
G04 #@! TD*
G04 #@! TO.C,SW_MODE1*
X67129681Y-106952698D03*
X67129681Y-102452698D03*
X73629681Y-106952698D03*
X73629681Y-102452698D03*
G04 #@! TD*
G04 #@! TO.C,SW_RANGE1*
X79575681Y-106952698D03*
X79575681Y-102452698D03*
X86075681Y-106952698D03*
X86075681Y-102452698D03*
G04 #@! TD*
D22*
G04 #@! TO.C,U1*
X95250000Y-85598000D03*
D23*
X97790000Y-85598000D03*
X100330000Y-85598000D03*
G04 #@! TD*
D16*
G04 #@! TO.C,C_GAIN1*
G36*
X100291071Y-215371623D02*
X100323781Y-215376475D01*
X100355857Y-215384509D01*
X100386991Y-215395649D01*
X100416884Y-215409787D01*
X100445247Y-215426787D01*
X100471807Y-215446485D01*
X100496308Y-215468692D01*
X100518515Y-215493193D01*
X100538213Y-215519753D01*
X100555213Y-215548116D01*
X100569351Y-215578009D01*
X100580491Y-215609143D01*
X100588525Y-215641219D01*
X100593377Y-215673929D01*
X100595000Y-215706956D01*
X100595000Y-216583044D01*
X100593377Y-216616071D01*
X100588525Y-216648781D01*
X100580491Y-216680857D01*
X100569351Y-216711991D01*
X100555213Y-216741884D01*
X100538213Y-216770247D01*
X100518515Y-216796807D01*
X100496308Y-216821308D01*
X100471807Y-216843515D01*
X100445247Y-216863213D01*
X100416884Y-216880213D01*
X100386991Y-216894351D01*
X100355857Y-216905491D01*
X100323781Y-216913525D01*
X100291071Y-216918377D01*
X100258044Y-216920000D01*
X99131956Y-216920000D01*
X99098929Y-216918377D01*
X99066219Y-216913525D01*
X99034143Y-216905491D01*
X99003009Y-216894351D01*
X98973116Y-216880213D01*
X98944753Y-216863213D01*
X98918193Y-216843515D01*
X98893692Y-216821308D01*
X98871485Y-216796807D01*
X98851787Y-216770247D01*
X98834787Y-216741884D01*
X98820649Y-216711991D01*
X98809509Y-216680857D01*
X98801475Y-216648781D01*
X98796623Y-216616071D01*
X98795000Y-216583044D01*
X98795000Y-215706956D01*
X98796623Y-215673929D01*
X98801475Y-215641219D01*
X98809509Y-215609143D01*
X98820649Y-215578009D01*
X98834787Y-215548116D01*
X98851787Y-215519753D01*
X98871485Y-215493193D01*
X98893692Y-215468692D01*
X98918193Y-215446485D01*
X98944753Y-215426787D01*
X98973116Y-215409787D01*
X99003009Y-215395649D01*
X99034143Y-215384509D01*
X99066219Y-215376475D01*
X99098929Y-215371623D01*
X99131956Y-215370000D01*
X100258044Y-215370000D01*
X100291071Y-215371623D01*
X100291071Y-215371623D01*
G37*
D17*
X99695000Y-216145000D03*
D16*
G36*
X100291071Y-217421623D02*
X100323781Y-217426475D01*
X100355857Y-217434509D01*
X100386991Y-217445649D01*
X100416884Y-217459787D01*
X100445247Y-217476787D01*
X100471807Y-217496485D01*
X100496308Y-217518692D01*
X100518515Y-217543193D01*
X100538213Y-217569753D01*
X100555213Y-217598116D01*
X100569351Y-217628009D01*
X100580491Y-217659143D01*
X100588525Y-217691219D01*
X100593377Y-217723929D01*
X100595000Y-217756956D01*
X100595000Y-218633044D01*
X100593377Y-218666071D01*
X100588525Y-218698781D01*
X100580491Y-218730857D01*
X100569351Y-218761991D01*
X100555213Y-218791884D01*
X100538213Y-218820247D01*
X100518515Y-218846807D01*
X100496308Y-218871308D01*
X100471807Y-218893515D01*
X100445247Y-218913213D01*
X100416884Y-218930213D01*
X100386991Y-218944351D01*
X100355857Y-218955491D01*
X100323781Y-218963525D01*
X100291071Y-218968377D01*
X100258044Y-218970000D01*
X99131956Y-218970000D01*
X99098929Y-218968377D01*
X99066219Y-218963525D01*
X99034143Y-218955491D01*
X99003009Y-218944351D01*
X98973116Y-218930213D01*
X98944753Y-218913213D01*
X98918193Y-218893515D01*
X98893692Y-218871308D01*
X98871485Y-218846807D01*
X98851787Y-218820247D01*
X98834787Y-218791884D01*
X98820649Y-218761991D01*
X98809509Y-218730857D01*
X98801475Y-218698781D01*
X98796623Y-218666071D01*
X98795000Y-218633044D01*
X98795000Y-217756956D01*
X98796623Y-217723929D01*
X98801475Y-217691219D01*
X98809509Y-217659143D01*
X98820649Y-217628009D01*
X98834787Y-217598116D01*
X98851787Y-217569753D01*
X98871485Y-217543193D01*
X98893692Y-217518692D01*
X98918193Y-217496485D01*
X98944753Y-217476787D01*
X98973116Y-217459787D01*
X99003009Y-217445649D01*
X99034143Y-217434509D01*
X99066219Y-217426475D01*
X99098929Y-217421623D01*
X99131956Y-217420000D01*
X100258044Y-217420000D01*
X100291071Y-217421623D01*
X100291071Y-217421623D01*
G37*
D17*
X99695000Y-218195000D03*
G04 #@! TD*
D16*
G04 #@! TO.C,R_HIOFF1*
G36*
X80726071Y-209921623D02*
X80758781Y-209926475D01*
X80790857Y-209934509D01*
X80821991Y-209945649D01*
X80851884Y-209959787D01*
X80880247Y-209976787D01*
X80906807Y-209996485D01*
X80931308Y-210018692D01*
X80953515Y-210043193D01*
X80973213Y-210069753D01*
X80990213Y-210098116D01*
X81004351Y-210128009D01*
X81015491Y-210159143D01*
X81023525Y-210191219D01*
X81028377Y-210223929D01*
X81030000Y-210256956D01*
X81030000Y-211383044D01*
X81028377Y-211416071D01*
X81023525Y-211448781D01*
X81015491Y-211480857D01*
X81004351Y-211511991D01*
X80990213Y-211541884D01*
X80973213Y-211570247D01*
X80953515Y-211596807D01*
X80931308Y-211621308D01*
X80906807Y-211643515D01*
X80880247Y-211663213D01*
X80851884Y-211680213D01*
X80821991Y-211694351D01*
X80790857Y-211705491D01*
X80758781Y-211713525D01*
X80726071Y-211718377D01*
X80693044Y-211720000D01*
X79816956Y-211720000D01*
X79783929Y-211718377D01*
X79751219Y-211713525D01*
X79719143Y-211705491D01*
X79688009Y-211694351D01*
X79658116Y-211680213D01*
X79629753Y-211663213D01*
X79603193Y-211643515D01*
X79578692Y-211621308D01*
X79556485Y-211596807D01*
X79536787Y-211570247D01*
X79519787Y-211541884D01*
X79505649Y-211511991D01*
X79494509Y-211480857D01*
X79486475Y-211448781D01*
X79481623Y-211416071D01*
X79480000Y-211383044D01*
X79480000Y-210256956D01*
X79481623Y-210223929D01*
X79486475Y-210191219D01*
X79494509Y-210159143D01*
X79505649Y-210128009D01*
X79519787Y-210098116D01*
X79536787Y-210069753D01*
X79556485Y-210043193D01*
X79578692Y-210018692D01*
X79603193Y-209996485D01*
X79629753Y-209976787D01*
X79658116Y-209959787D01*
X79688009Y-209945649D01*
X79719143Y-209934509D01*
X79751219Y-209926475D01*
X79783929Y-209921623D01*
X79816956Y-209920000D01*
X80693044Y-209920000D01*
X80726071Y-209921623D01*
X80726071Y-209921623D01*
G37*
D17*
X80255000Y-210820000D03*
D16*
G36*
X82776071Y-209921623D02*
X82808781Y-209926475D01*
X82840857Y-209934509D01*
X82871991Y-209945649D01*
X82901884Y-209959787D01*
X82930247Y-209976787D01*
X82956807Y-209996485D01*
X82981308Y-210018692D01*
X83003515Y-210043193D01*
X83023213Y-210069753D01*
X83040213Y-210098116D01*
X83054351Y-210128009D01*
X83065491Y-210159143D01*
X83073525Y-210191219D01*
X83078377Y-210223929D01*
X83080000Y-210256956D01*
X83080000Y-211383044D01*
X83078377Y-211416071D01*
X83073525Y-211448781D01*
X83065491Y-211480857D01*
X83054351Y-211511991D01*
X83040213Y-211541884D01*
X83023213Y-211570247D01*
X83003515Y-211596807D01*
X82981308Y-211621308D01*
X82956807Y-211643515D01*
X82930247Y-211663213D01*
X82901884Y-211680213D01*
X82871991Y-211694351D01*
X82840857Y-211705491D01*
X82808781Y-211713525D01*
X82776071Y-211718377D01*
X82743044Y-211720000D01*
X81866956Y-211720000D01*
X81833929Y-211718377D01*
X81801219Y-211713525D01*
X81769143Y-211705491D01*
X81738009Y-211694351D01*
X81708116Y-211680213D01*
X81679753Y-211663213D01*
X81653193Y-211643515D01*
X81628692Y-211621308D01*
X81606485Y-211596807D01*
X81586787Y-211570247D01*
X81569787Y-211541884D01*
X81555649Y-211511991D01*
X81544509Y-211480857D01*
X81536475Y-211448781D01*
X81531623Y-211416071D01*
X81530000Y-211383044D01*
X81530000Y-210256956D01*
X81531623Y-210223929D01*
X81536475Y-210191219D01*
X81544509Y-210159143D01*
X81555649Y-210128009D01*
X81569787Y-210098116D01*
X81586787Y-210069753D01*
X81606485Y-210043193D01*
X81628692Y-210018692D01*
X81653193Y-209996485D01*
X81679753Y-209976787D01*
X81708116Y-209959787D01*
X81738009Y-209945649D01*
X81769143Y-209934509D01*
X81801219Y-209926475D01*
X81833929Y-209921623D01*
X81866956Y-209920000D01*
X82743044Y-209920000D01*
X82776071Y-209921623D01*
X82776071Y-209921623D01*
G37*
D17*
X82305000Y-210820000D03*
G04 #@! TD*
D15*
G04 #@! TO.C,TP_OFF1*
X74930000Y-180340000D03*
G04 #@! TD*
D16*
G04 #@! TO.C,R_MIX3*
G36*
X114896071Y-194815623D02*
X114928781Y-194820475D01*
X114960857Y-194828509D01*
X114991991Y-194839649D01*
X115021884Y-194853787D01*
X115050247Y-194870787D01*
X115076807Y-194890485D01*
X115101308Y-194912692D01*
X115123515Y-194937193D01*
X115143213Y-194963753D01*
X115160213Y-194992116D01*
X115174351Y-195022009D01*
X115185491Y-195053143D01*
X115193525Y-195085219D01*
X115198377Y-195117929D01*
X115200000Y-195150956D01*
X115200000Y-196027044D01*
X115198377Y-196060071D01*
X115193525Y-196092781D01*
X115185491Y-196124857D01*
X115174351Y-196155991D01*
X115160213Y-196185884D01*
X115143213Y-196214247D01*
X115123515Y-196240807D01*
X115101308Y-196265308D01*
X115076807Y-196287515D01*
X115050247Y-196307213D01*
X115021884Y-196324213D01*
X114991991Y-196338351D01*
X114960857Y-196349491D01*
X114928781Y-196357525D01*
X114896071Y-196362377D01*
X114863044Y-196364000D01*
X113736956Y-196364000D01*
X113703929Y-196362377D01*
X113671219Y-196357525D01*
X113639143Y-196349491D01*
X113608009Y-196338351D01*
X113578116Y-196324213D01*
X113549753Y-196307213D01*
X113523193Y-196287515D01*
X113498692Y-196265308D01*
X113476485Y-196240807D01*
X113456787Y-196214247D01*
X113439787Y-196185884D01*
X113425649Y-196155991D01*
X113414509Y-196124857D01*
X113406475Y-196092781D01*
X113401623Y-196060071D01*
X113400000Y-196027044D01*
X113400000Y-195150956D01*
X113401623Y-195117929D01*
X113406475Y-195085219D01*
X113414509Y-195053143D01*
X113425649Y-195022009D01*
X113439787Y-194992116D01*
X113456787Y-194963753D01*
X113476485Y-194937193D01*
X113498692Y-194912692D01*
X113523193Y-194890485D01*
X113549753Y-194870787D01*
X113578116Y-194853787D01*
X113608009Y-194839649D01*
X113639143Y-194828509D01*
X113671219Y-194820475D01*
X113703929Y-194815623D01*
X113736956Y-194814000D01*
X114863044Y-194814000D01*
X114896071Y-194815623D01*
X114896071Y-194815623D01*
G37*
D17*
X114300000Y-195589000D03*
D16*
G36*
X114896071Y-192765623D02*
X114928781Y-192770475D01*
X114960857Y-192778509D01*
X114991991Y-192789649D01*
X115021884Y-192803787D01*
X115050247Y-192820787D01*
X115076807Y-192840485D01*
X115101308Y-192862692D01*
X115123515Y-192887193D01*
X115143213Y-192913753D01*
X115160213Y-192942116D01*
X115174351Y-192972009D01*
X115185491Y-193003143D01*
X115193525Y-193035219D01*
X115198377Y-193067929D01*
X115200000Y-193100956D01*
X115200000Y-193977044D01*
X115198377Y-194010071D01*
X115193525Y-194042781D01*
X115185491Y-194074857D01*
X115174351Y-194105991D01*
X115160213Y-194135884D01*
X115143213Y-194164247D01*
X115123515Y-194190807D01*
X115101308Y-194215308D01*
X115076807Y-194237515D01*
X115050247Y-194257213D01*
X115021884Y-194274213D01*
X114991991Y-194288351D01*
X114960857Y-194299491D01*
X114928781Y-194307525D01*
X114896071Y-194312377D01*
X114863044Y-194314000D01*
X113736956Y-194314000D01*
X113703929Y-194312377D01*
X113671219Y-194307525D01*
X113639143Y-194299491D01*
X113608009Y-194288351D01*
X113578116Y-194274213D01*
X113549753Y-194257213D01*
X113523193Y-194237515D01*
X113498692Y-194215308D01*
X113476485Y-194190807D01*
X113456787Y-194164247D01*
X113439787Y-194135884D01*
X113425649Y-194105991D01*
X113414509Y-194074857D01*
X113406475Y-194042781D01*
X113401623Y-194010071D01*
X113400000Y-193977044D01*
X113400000Y-193100956D01*
X113401623Y-193067929D01*
X113406475Y-193035219D01*
X113414509Y-193003143D01*
X113425649Y-192972009D01*
X113439787Y-192942116D01*
X113456787Y-192913753D01*
X113476485Y-192887193D01*
X113498692Y-192862692D01*
X113523193Y-192840485D01*
X113549753Y-192820787D01*
X113578116Y-192803787D01*
X113608009Y-192789649D01*
X113639143Y-192778509D01*
X113671219Y-192770475D01*
X113703929Y-192765623D01*
X113736956Y-192764000D01*
X114863044Y-192764000D01*
X114896071Y-192765623D01*
X114896071Y-192765623D01*
G37*
D17*
X114300000Y-193539000D03*
G04 #@! TD*
D16*
G04 #@! TO.C,RF2*
G36*
X95331071Y-215001623D02*
X95363781Y-215006475D01*
X95395857Y-215014509D01*
X95426991Y-215025649D01*
X95456884Y-215039787D01*
X95485247Y-215056787D01*
X95511807Y-215076485D01*
X95536308Y-215098692D01*
X95558515Y-215123193D01*
X95578213Y-215149753D01*
X95595213Y-215178116D01*
X95609351Y-215208009D01*
X95620491Y-215239143D01*
X95628525Y-215271219D01*
X95633377Y-215303929D01*
X95635000Y-215336956D01*
X95635000Y-216463044D01*
X95633377Y-216496071D01*
X95628525Y-216528781D01*
X95620491Y-216560857D01*
X95609351Y-216591991D01*
X95595213Y-216621884D01*
X95578213Y-216650247D01*
X95558515Y-216676807D01*
X95536308Y-216701308D01*
X95511807Y-216723515D01*
X95485247Y-216743213D01*
X95456884Y-216760213D01*
X95426991Y-216774351D01*
X95395857Y-216785491D01*
X95363781Y-216793525D01*
X95331071Y-216798377D01*
X95298044Y-216800000D01*
X94421956Y-216800000D01*
X94388929Y-216798377D01*
X94356219Y-216793525D01*
X94324143Y-216785491D01*
X94293009Y-216774351D01*
X94263116Y-216760213D01*
X94234753Y-216743213D01*
X94208193Y-216723515D01*
X94183692Y-216701308D01*
X94161485Y-216676807D01*
X94141787Y-216650247D01*
X94124787Y-216621884D01*
X94110649Y-216591991D01*
X94099509Y-216560857D01*
X94091475Y-216528781D01*
X94086623Y-216496071D01*
X94085000Y-216463044D01*
X94085000Y-215336956D01*
X94086623Y-215303929D01*
X94091475Y-215271219D01*
X94099509Y-215239143D01*
X94110649Y-215208009D01*
X94124787Y-215178116D01*
X94141787Y-215149753D01*
X94161485Y-215123193D01*
X94183692Y-215098692D01*
X94208193Y-215076485D01*
X94234753Y-215056787D01*
X94263116Y-215039787D01*
X94293009Y-215025649D01*
X94324143Y-215014509D01*
X94356219Y-215006475D01*
X94388929Y-215001623D01*
X94421956Y-215000000D01*
X95298044Y-215000000D01*
X95331071Y-215001623D01*
X95331071Y-215001623D01*
G37*
D17*
X94860000Y-215900000D03*
D16*
G36*
X97381071Y-215001623D02*
X97413781Y-215006475D01*
X97445857Y-215014509D01*
X97476991Y-215025649D01*
X97506884Y-215039787D01*
X97535247Y-215056787D01*
X97561807Y-215076485D01*
X97586308Y-215098692D01*
X97608515Y-215123193D01*
X97628213Y-215149753D01*
X97645213Y-215178116D01*
X97659351Y-215208009D01*
X97670491Y-215239143D01*
X97678525Y-215271219D01*
X97683377Y-215303929D01*
X97685000Y-215336956D01*
X97685000Y-216463044D01*
X97683377Y-216496071D01*
X97678525Y-216528781D01*
X97670491Y-216560857D01*
X97659351Y-216591991D01*
X97645213Y-216621884D01*
X97628213Y-216650247D01*
X97608515Y-216676807D01*
X97586308Y-216701308D01*
X97561807Y-216723515D01*
X97535247Y-216743213D01*
X97506884Y-216760213D01*
X97476991Y-216774351D01*
X97445857Y-216785491D01*
X97413781Y-216793525D01*
X97381071Y-216798377D01*
X97348044Y-216800000D01*
X96471956Y-216800000D01*
X96438929Y-216798377D01*
X96406219Y-216793525D01*
X96374143Y-216785491D01*
X96343009Y-216774351D01*
X96313116Y-216760213D01*
X96284753Y-216743213D01*
X96258193Y-216723515D01*
X96233692Y-216701308D01*
X96211485Y-216676807D01*
X96191787Y-216650247D01*
X96174787Y-216621884D01*
X96160649Y-216591991D01*
X96149509Y-216560857D01*
X96141475Y-216528781D01*
X96136623Y-216496071D01*
X96135000Y-216463044D01*
X96135000Y-215336956D01*
X96136623Y-215303929D01*
X96141475Y-215271219D01*
X96149509Y-215239143D01*
X96160649Y-215208009D01*
X96174787Y-215178116D01*
X96191787Y-215149753D01*
X96211485Y-215123193D01*
X96233692Y-215098692D01*
X96258193Y-215076485D01*
X96284753Y-215056787D01*
X96313116Y-215039787D01*
X96343009Y-215025649D01*
X96374143Y-215014509D01*
X96406219Y-215006475D01*
X96438929Y-215001623D01*
X96471956Y-215000000D01*
X97348044Y-215000000D01*
X97381071Y-215001623D01*
X97381071Y-215001623D01*
G37*
D17*
X96910000Y-215900000D03*
G04 #@! TD*
D16*
G04 #@! TO.C,ROFF1*
G36*
X108031071Y-203571623D02*
X108063781Y-203576475D01*
X108095857Y-203584509D01*
X108126991Y-203595649D01*
X108156884Y-203609787D01*
X108185247Y-203626787D01*
X108211807Y-203646485D01*
X108236308Y-203668692D01*
X108258515Y-203693193D01*
X108278213Y-203719753D01*
X108295213Y-203748116D01*
X108309351Y-203778009D01*
X108320491Y-203809143D01*
X108328525Y-203841219D01*
X108333377Y-203873929D01*
X108335000Y-203906956D01*
X108335000Y-205033044D01*
X108333377Y-205066071D01*
X108328525Y-205098781D01*
X108320491Y-205130857D01*
X108309351Y-205161991D01*
X108295213Y-205191884D01*
X108278213Y-205220247D01*
X108258515Y-205246807D01*
X108236308Y-205271308D01*
X108211807Y-205293515D01*
X108185247Y-205313213D01*
X108156884Y-205330213D01*
X108126991Y-205344351D01*
X108095857Y-205355491D01*
X108063781Y-205363525D01*
X108031071Y-205368377D01*
X107998044Y-205370000D01*
X107121956Y-205370000D01*
X107088929Y-205368377D01*
X107056219Y-205363525D01*
X107024143Y-205355491D01*
X106993009Y-205344351D01*
X106963116Y-205330213D01*
X106934753Y-205313213D01*
X106908193Y-205293515D01*
X106883692Y-205271308D01*
X106861485Y-205246807D01*
X106841787Y-205220247D01*
X106824787Y-205191884D01*
X106810649Y-205161991D01*
X106799509Y-205130857D01*
X106791475Y-205098781D01*
X106786623Y-205066071D01*
X106785000Y-205033044D01*
X106785000Y-203906956D01*
X106786623Y-203873929D01*
X106791475Y-203841219D01*
X106799509Y-203809143D01*
X106810649Y-203778009D01*
X106824787Y-203748116D01*
X106841787Y-203719753D01*
X106861485Y-203693193D01*
X106883692Y-203668692D01*
X106908193Y-203646485D01*
X106934753Y-203626787D01*
X106963116Y-203609787D01*
X106993009Y-203595649D01*
X107024143Y-203584509D01*
X107056219Y-203576475D01*
X107088929Y-203571623D01*
X107121956Y-203570000D01*
X107998044Y-203570000D01*
X108031071Y-203571623D01*
X108031071Y-203571623D01*
G37*
D17*
X107560000Y-204470000D03*
D16*
G36*
X110081071Y-203571623D02*
X110113781Y-203576475D01*
X110145857Y-203584509D01*
X110176991Y-203595649D01*
X110206884Y-203609787D01*
X110235247Y-203626787D01*
X110261807Y-203646485D01*
X110286308Y-203668692D01*
X110308515Y-203693193D01*
X110328213Y-203719753D01*
X110345213Y-203748116D01*
X110359351Y-203778009D01*
X110370491Y-203809143D01*
X110378525Y-203841219D01*
X110383377Y-203873929D01*
X110385000Y-203906956D01*
X110385000Y-205033044D01*
X110383377Y-205066071D01*
X110378525Y-205098781D01*
X110370491Y-205130857D01*
X110359351Y-205161991D01*
X110345213Y-205191884D01*
X110328213Y-205220247D01*
X110308515Y-205246807D01*
X110286308Y-205271308D01*
X110261807Y-205293515D01*
X110235247Y-205313213D01*
X110206884Y-205330213D01*
X110176991Y-205344351D01*
X110145857Y-205355491D01*
X110113781Y-205363525D01*
X110081071Y-205368377D01*
X110048044Y-205370000D01*
X109171956Y-205370000D01*
X109138929Y-205368377D01*
X109106219Y-205363525D01*
X109074143Y-205355491D01*
X109043009Y-205344351D01*
X109013116Y-205330213D01*
X108984753Y-205313213D01*
X108958193Y-205293515D01*
X108933692Y-205271308D01*
X108911485Y-205246807D01*
X108891787Y-205220247D01*
X108874787Y-205191884D01*
X108860649Y-205161991D01*
X108849509Y-205130857D01*
X108841475Y-205098781D01*
X108836623Y-205066071D01*
X108835000Y-205033044D01*
X108835000Y-203906956D01*
X108836623Y-203873929D01*
X108841475Y-203841219D01*
X108849509Y-203809143D01*
X108860649Y-203778009D01*
X108874787Y-203748116D01*
X108891787Y-203719753D01*
X108911485Y-203693193D01*
X108933692Y-203668692D01*
X108958193Y-203646485D01*
X108984753Y-203626787D01*
X109013116Y-203609787D01*
X109043009Y-203595649D01*
X109074143Y-203584509D01*
X109106219Y-203576475D01*
X109138929Y-203571623D01*
X109171956Y-203570000D01*
X110048044Y-203570000D01*
X110081071Y-203571623D01*
X110081071Y-203571623D01*
G37*
D17*
X109610000Y-204470000D03*
G04 #@! TD*
D16*
G04 #@! TO.C,ROFF2*
G36*
X118198071Y-194815623D02*
X118230781Y-194820475D01*
X118262857Y-194828509D01*
X118293991Y-194839649D01*
X118323884Y-194853787D01*
X118352247Y-194870787D01*
X118378807Y-194890485D01*
X118403308Y-194912692D01*
X118425515Y-194937193D01*
X118445213Y-194963753D01*
X118462213Y-194992116D01*
X118476351Y-195022009D01*
X118487491Y-195053143D01*
X118495525Y-195085219D01*
X118500377Y-195117929D01*
X118502000Y-195150956D01*
X118502000Y-196027044D01*
X118500377Y-196060071D01*
X118495525Y-196092781D01*
X118487491Y-196124857D01*
X118476351Y-196155991D01*
X118462213Y-196185884D01*
X118445213Y-196214247D01*
X118425515Y-196240807D01*
X118403308Y-196265308D01*
X118378807Y-196287515D01*
X118352247Y-196307213D01*
X118323884Y-196324213D01*
X118293991Y-196338351D01*
X118262857Y-196349491D01*
X118230781Y-196357525D01*
X118198071Y-196362377D01*
X118165044Y-196364000D01*
X117038956Y-196364000D01*
X117005929Y-196362377D01*
X116973219Y-196357525D01*
X116941143Y-196349491D01*
X116910009Y-196338351D01*
X116880116Y-196324213D01*
X116851753Y-196307213D01*
X116825193Y-196287515D01*
X116800692Y-196265308D01*
X116778485Y-196240807D01*
X116758787Y-196214247D01*
X116741787Y-196185884D01*
X116727649Y-196155991D01*
X116716509Y-196124857D01*
X116708475Y-196092781D01*
X116703623Y-196060071D01*
X116702000Y-196027044D01*
X116702000Y-195150956D01*
X116703623Y-195117929D01*
X116708475Y-195085219D01*
X116716509Y-195053143D01*
X116727649Y-195022009D01*
X116741787Y-194992116D01*
X116758787Y-194963753D01*
X116778485Y-194937193D01*
X116800692Y-194912692D01*
X116825193Y-194890485D01*
X116851753Y-194870787D01*
X116880116Y-194853787D01*
X116910009Y-194839649D01*
X116941143Y-194828509D01*
X116973219Y-194820475D01*
X117005929Y-194815623D01*
X117038956Y-194814000D01*
X118165044Y-194814000D01*
X118198071Y-194815623D01*
X118198071Y-194815623D01*
G37*
D17*
X117602000Y-195589000D03*
D16*
G36*
X118198071Y-192765623D02*
X118230781Y-192770475D01*
X118262857Y-192778509D01*
X118293991Y-192789649D01*
X118323884Y-192803787D01*
X118352247Y-192820787D01*
X118378807Y-192840485D01*
X118403308Y-192862692D01*
X118425515Y-192887193D01*
X118445213Y-192913753D01*
X118462213Y-192942116D01*
X118476351Y-192972009D01*
X118487491Y-193003143D01*
X118495525Y-193035219D01*
X118500377Y-193067929D01*
X118502000Y-193100956D01*
X118502000Y-193977044D01*
X118500377Y-194010071D01*
X118495525Y-194042781D01*
X118487491Y-194074857D01*
X118476351Y-194105991D01*
X118462213Y-194135884D01*
X118445213Y-194164247D01*
X118425515Y-194190807D01*
X118403308Y-194215308D01*
X118378807Y-194237515D01*
X118352247Y-194257213D01*
X118323884Y-194274213D01*
X118293991Y-194288351D01*
X118262857Y-194299491D01*
X118230781Y-194307525D01*
X118198071Y-194312377D01*
X118165044Y-194314000D01*
X117038956Y-194314000D01*
X117005929Y-194312377D01*
X116973219Y-194307525D01*
X116941143Y-194299491D01*
X116910009Y-194288351D01*
X116880116Y-194274213D01*
X116851753Y-194257213D01*
X116825193Y-194237515D01*
X116800692Y-194215308D01*
X116778485Y-194190807D01*
X116758787Y-194164247D01*
X116741787Y-194135884D01*
X116727649Y-194105991D01*
X116716509Y-194074857D01*
X116708475Y-194042781D01*
X116703623Y-194010071D01*
X116702000Y-193977044D01*
X116702000Y-193100956D01*
X116703623Y-193067929D01*
X116708475Y-193035219D01*
X116716509Y-193003143D01*
X116727649Y-192972009D01*
X116741787Y-192942116D01*
X116758787Y-192913753D01*
X116778485Y-192887193D01*
X116800692Y-192862692D01*
X116825193Y-192840485D01*
X116851753Y-192820787D01*
X116880116Y-192803787D01*
X116910009Y-192789649D01*
X116941143Y-192778509D01*
X116973219Y-192770475D01*
X117005929Y-192765623D01*
X117038956Y-192764000D01*
X118165044Y-192764000D01*
X118198071Y-192765623D01*
X118198071Y-192765623D01*
G37*
D17*
X117602000Y-193539000D03*
G04 #@! TD*
D16*
G04 #@! TO.C,CF2*
G36*
X95331071Y-217541623D02*
X95363781Y-217546475D01*
X95395857Y-217554509D01*
X95426991Y-217565649D01*
X95456884Y-217579787D01*
X95485247Y-217596787D01*
X95511807Y-217616485D01*
X95536308Y-217638692D01*
X95558515Y-217663193D01*
X95578213Y-217689753D01*
X95595213Y-217718116D01*
X95609351Y-217748009D01*
X95620491Y-217779143D01*
X95628525Y-217811219D01*
X95633377Y-217843929D01*
X95635000Y-217876956D01*
X95635000Y-219003044D01*
X95633377Y-219036071D01*
X95628525Y-219068781D01*
X95620491Y-219100857D01*
X95609351Y-219131991D01*
X95595213Y-219161884D01*
X95578213Y-219190247D01*
X95558515Y-219216807D01*
X95536308Y-219241308D01*
X95511807Y-219263515D01*
X95485247Y-219283213D01*
X95456884Y-219300213D01*
X95426991Y-219314351D01*
X95395857Y-219325491D01*
X95363781Y-219333525D01*
X95331071Y-219338377D01*
X95298044Y-219340000D01*
X94421956Y-219340000D01*
X94388929Y-219338377D01*
X94356219Y-219333525D01*
X94324143Y-219325491D01*
X94293009Y-219314351D01*
X94263116Y-219300213D01*
X94234753Y-219283213D01*
X94208193Y-219263515D01*
X94183692Y-219241308D01*
X94161485Y-219216807D01*
X94141787Y-219190247D01*
X94124787Y-219161884D01*
X94110649Y-219131991D01*
X94099509Y-219100857D01*
X94091475Y-219068781D01*
X94086623Y-219036071D01*
X94085000Y-219003044D01*
X94085000Y-217876956D01*
X94086623Y-217843929D01*
X94091475Y-217811219D01*
X94099509Y-217779143D01*
X94110649Y-217748009D01*
X94124787Y-217718116D01*
X94141787Y-217689753D01*
X94161485Y-217663193D01*
X94183692Y-217638692D01*
X94208193Y-217616485D01*
X94234753Y-217596787D01*
X94263116Y-217579787D01*
X94293009Y-217565649D01*
X94324143Y-217554509D01*
X94356219Y-217546475D01*
X94388929Y-217541623D01*
X94421956Y-217540000D01*
X95298044Y-217540000D01*
X95331071Y-217541623D01*
X95331071Y-217541623D01*
G37*
D17*
X94860000Y-218440000D03*
D16*
G36*
X97381071Y-217541623D02*
X97413781Y-217546475D01*
X97445857Y-217554509D01*
X97476991Y-217565649D01*
X97506884Y-217579787D01*
X97535247Y-217596787D01*
X97561807Y-217616485D01*
X97586308Y-217638692D01*
X97608515Y-217663193D01*
X97628213Y-217689753D01*
X97645213Y-217718116D01*
X97659351Y-217748009D01*
X97670491Y-217779143D01*
X97678525Y-217811219D01*
X97683377Y-217843929D01*
X97685000Y-217876956D01*
X97685000Y-219003044D01*
X97683377Y-219036071D01*
X97678525Y-219068781D01*
X97670491Y-219100857D01*
X97659351Y-219131991D01*
X97645213Y-219161884D01*
X97628213Y-219190247D01*
X97608515Y-219216807D01*
X97586308Y-219241308D01*
X97561807Y-219263515D01*
X97535247Y-219283213D01*
X97506884Y-219300213D01*
X97476991Y-219314351D01*
X97445857Y-219325491D01*
X97413781Y-219333525D01*
X97381071Y-219338377D01*
X97348044Y-219340000D01*
X96471956Y-219340000D01*
X96438929Y-219338377D01*
X96406219Y-219333525D01*
X96374143Y-219325491D01*
X96343009Y-219314351D01*
X96313116Y-219300213D01*
X96284753Y-219283213D01*
X96258193Y-219263515D01*
X96233692Y-219241308D01*
X96211485Y-219216807D01*
X96191787Y-219190247D01*
X96174787Y-219161884D01*
X96160649Y-219131991D01*
X96149509Y-219100857D01*
X96141475Y-219068781D01*
X96136623Y-219036071D01*
X96135000Y-219003044D01*
X96135000Y-217876956D01*
X96136623Y-217843929D01*
X96141475Y-217811219D01*
X96149509Y-217779143D01*
X96160649Y-217748009D01*
X96174787Y-217718116D01*
X96191787Y-217689753D01*
X96211485Y-217663193D01*
X96233692Y-217638692D01*
X96258193Y-217616485D01*
X96284753Y-217596787D01*
X96313116Y-217579787D01*
X96343009Y-217565649D01*
X96374143Y-217554509D01*
X96406219Y-217546475D01*
X96438929Y-217541623D01*
X96471956Y-217540000D01*
X97348044Y-217540000D01*
X97381071Y-217541623D01*
X97381071Y-217541623D01*
G37*
D17*
X96910000Y-218440000D03*
G04 #@! TD*
D24*
G04 #@! TO.C,U_BUFF1*
X92804000Y-195580000D03*
X92804000Y-194310000D03*
X92804000Y-193040000D03*
X92804000Y-191770000D03*
X98204000Y-191770000D03*
X98204000Y-193040000D03*
X98204000Y-194310000D03*
X98204000Y-195580000D03*
G04 #@! TD*
G04 #@! TO.C,U_MIX1*
X98585000Y-213360000D03*
X98585000Y-212090000D03*
X98585000Y-210820000D03*
X98585000Y-209550000D03*
X93185000Y-209550000D03*
X93185000Y-210820000D03*
X93185000Y-212090000D03*
X93185000Y-213360000D03*
G04 #@! TD*
D16*
G04 #@! TO.C,R_PHASE1*
G36*
X77812071Y-158729623D02*
X77844781Y-158734475D01*
X77876857Y-158742509D01*
X77907991Y-158753649D01*
X77937884Y-158767787D01*
X77966247Y-158784787D01*
X77992807Y-158804485D01*
X78017308Y-158826692D01*
X78039515Y-158851193D01*
X78059213Y-158877753D01*
X78076213Y-158906116D01*
X78090351Y-158936009D01*
X78101491Y-158967143D01*
X78109525Y-158999219D01*
X78114377Y-159031929D01*
X78116000Y-159064956D01*
X78116000Y-159941044D01*
X78114377Y-159974071D01*
X78109525Y-160006781D01*
X78101491Y-160038857D01*
X78090351Y-160069991D01*
X78076213Y-160099884D01*
X78059213Y-160128247D01*
X78039515Y-160154807D01*
X78017308Y-160179308D01*
X77992807Y-160201515D01*
X77966247Y-160221213D01*
X77937884Y-160238213D01*
X77907991Y-160252351D01*
X77876857Y-160263491D01*
X77844781Y-160271525D01*
X77812071Y-160276377D01*
X77779044Y-160278000D01*
X76652956Y-160278000D01*
X76619929Y-160276377D01*
X76587219Y-160271525D01*
X76555143Y-160263491D01*
X76524009Y-160252351D01*
X76494116Y-160238213D01*
X76465753Y-160221213D01*
X76439193Y-160201515D01*
X76414692Y-160179308D01*
X76392485Y-160154807D01*
X76372787Y-160128247D01*
X76355787Y-160099884D01*
X76341649Y-160069991D01*
X76330509Y-160038857D01*
X76322475Y-160006781D01*
X76317623Y-159974071D01*
X76316000Y-159941044D01*
X76316000Y-159064956D01*
X76317623Y-159031929D01*
X76322475Y-158999219D01*
X76330509Y-158967143D01*
X76341649Y-158936009D01*
X76355787Y-158906116D01*
X76372787Y-158877753D01*
X76392485Y-158851193D01*
X76414692Y-158826692D01*
X76439193Y-158804485D01*
X76465753Y-158784787D01*
X76494116Y-158767787D01*
X76524009Y-158753649D01*
X76555143Y-158742509D01*
X76587219Y-158734475D01*
X76619929Y-158729623D01*
X76652956Y-158728000D01*
X77779044Y-158728000D01*
X77812071Y-158729623D01*
X77812071Y-158729623D01*
G37*
D17*
X77216000Y-159503000D03*
D16*
G36*
X77812071Y-160779623D02*
X77844781Y-160784475D01*
X77876857Y-160792509D01*
X77907991Y-160803649D01*
X77937884Y-160817787D01*
X77966247Y-160834787D01*
X77992807Y-160854485D01*
X78017308Y-160876692D01*
X78039515Y-160901193D01*
X78059213Y-160927753D01*
X78076213Y-160956116D01*
X78090351Y-160986009D01*
X78101491Y-161017143D01*
X78109525Y-161049219D01*
X78114377Y-161081929D01*
X78116000Y-161114956D01*
X78116000Y-161991044D01*
X78114377Y-162024071D01*
X78109525Y-162056781D01*
X78101491Y-162088857D01*
X78090351Y-162119991D01*
X78076213Y-162149884D01*
X78059213Y-162178247D01*
X78039515Y-162204807D01*
X78017308Y-162229308D01*
X77992807Y-162251515D01*
X77966247Y-162271213D01*
X77937884Y-162288213D01*
X77907991Y-162302351D01*
X77876857Y-162313491D01*
X77844781Y-162321525D01*
X77812071Y-162326377D01*
X77779044Y-162328000D01*
X76652956Y-162328000D01*
X76619929Y-162326377D01*
X76587219Y-162321525D01*
X76555143Y-162313491D01*
X76524009Y-162302351D01*
X76494116Y-162288213D01*
X76465753Y-162271213D01*
X76439193Y-162251515D01*
X76414692Y-162229308D01*
X76392485Y-162204807D01*
X76372787Y-162178247D01*
X76355787Y-162149884D01*
X76341649Y-162119991D01*
X76330509Y-162088857D01*
X76322475Y-162056781D01*
X76317623Y-162024071D01*
X76316000Y-161991044D01*
X76316000Y-161114956D01*
X76317623Y-161081929D01*
X76322475Y-161049219D01*
X76330509Y-161017143D01*
X76341649Y-160986009D01*
X76355787Y-160956116D01*
X76372787Y-160927753D01*
X76392485Y-160901193D01*
X76414692Y-160876692D01*
X76439193Y-160854485D01*
X76465753Y-160834787D01*
X76494116Y-160817787D01*
X76524009Y-160803649D01*
X76555143Y-160792509D01*
X76587219Y-160784475D01*
X76619929Y-160779623D01*
X76652956Y-160778000D01*
X77779044Y-160778000D01*
X77812071Y-160779623D01*
X77812071Y-160779623D01*
G37*
D17*
X77216000Y-161553000D03*
G04 #@! TD*
D15*
G04 #@! TO.C,RV_AMP1*
X71882000Y-195580000D03*
X71882000Y-193040000D03*
X71882000Y-190500000D03*
X77216000Y-195580000D03*
X77216000Y-193040000D03*
X77216000Y-190500000D03*
G04 #@! TD*
G04 #@! TO.C,RV_TIME1*
X77216000Y-165100000D03*
X77216000Y-167640000D03*
X77216000Y-170180000D03*
X71882000Y-165100000D03*
X71882000Y-167640000D03*
X71882000Y-170180000D03*
G04 #@! TD*
D11*
G04 #@! TO.C,RV_LOWOFF1*
X71200000Y-207010000D03*
X73700000Y-202010000D03*
X76200000Y-207010000D03*
G04 #@! TD*
D10*
G04 #@! TO.C,REF\002A\002A*
X53794681Y-110834698D03*
G04 #@! TD*
D16*
G04 #@! TO.C,CF1*
G36*
X94950071Y-185537623D02*
X94982781Y-185542475D01*
X95014857Y-185550509D01*
X95045991Y-185561649D01*
X95075884Y-185575787D01*
X95104247Y-185592787D01*
X95130807Y-185612485D01*
X95155308Y-185634692D01*
X95177515Y-185659193D01*
X95197213Y-185685753D01*
X95214213Y-185714116D01*
X95228351Y-185744009D01*
X95239491Y-185775143D01*
X95247525Y-185807219D01*
X95252377Y-185839929D01*
X95254000Y-185872956D01*
X95254000Y-186999044D01*
X95252377Y-187032071D01*
X95247525Y-187064781D01*
X95239491Y-187096857D01*
X95228351Y-187127991D01*
X95214213Y-187157884D01*
X95197213Y-187186247D01*
X95177515Y-187212807D01*
X95155308Y-187237308D01*
X95130807Y-187259515D01*
X95104247Y-187279213D01*
X95075884Y-187296213D01*
X95045991Y-187310351D01*
X95014857Y-187321491D01*
X94982781Y-187329525D01*
X94950071Y-187334377D01*
X94917044Y-187336000D01*
X94040956Y-187336000D01*
X94007929Y-187334377D01*
X93975219Y-187329525D01*
X93943143Y-187321491D01*
X93912009Y-187310351D01*
X93882116Y-187296213D01*
X93853753Y-187279213D01*
X93827193Y-187259515D01*
X93802692Y-187237308D01*
X93780485Y-187212807D01*
X93760787Y-187186247D01*
X93743787Y-187157884D01*
X93729649Y-187127991D01*
X93718509Y-187096857D01*
X93710475Y-187064781D01*
X93705623Y-187032071D01*
X93704000Y-186999044D01*
X93704000Y-185872956D01*
X93705623Y-185839929D01*
X93710475Y-185807219D01*
X93718509Y-185775143D01*
X93729649Y-185744009D01*
X93743787Y-185714116D01*
X93760787Y-185685753D01*
X93780485Y-185659193D01*
X93802692Y-185634692D01*
X93827193Y-185612485D01*
X93853753Y-185592787D01*
X93882116Y-185575787D01*
X93912009Y-185561649D01*
X93943143Y-185550509D01*
X93975219Y-185542475D01*
X94007929Y-185537623D01*
X94040956Y-185536000D01*
X94917044Y-185536000D01*
X94950071Y-185537623D01*
X94950071Y-185537623D01*
G37*
D17*
X94479000Y-186436000D03*
D16*
G36*
X97000071Y-185537623D02*
X97032781Y-185542475D01*
X97064857Y-185550509D01*
X97095991Y-185561649D01*
X97125884Y-185575787D01*
X97154247Y-185592787D01*
X97180807Y-185612485D01*
X97205308Y-185634692D01*
X97227515Y-185659193D01*
X97247213Y-185685753D01*
X97264213Y-185714116D01*
X97278351Y-185744009D01*
X97289491Y-185775143D01*
X97297525Y-185807219D01*
X97302377Y-185839929D01*
X97304000Y-185872956D01*
X97304000Y-186999044D01*
X97302377Y-187032071D01*
X97297525Y-187064781D01*
X97289491Y-187096857D01*
X97278351Y-187127991D01*
X97264213Y-187157884D01*
X97247213Y-187186247D01*
X97227515Y-187212807D01*
X97205308Y-187237308D01*
X97180807Y-187259515D01*
X97154247Y-187279213D01*
X97125884Y-187296213D01*
X97095991Y-187310351D01*
X97064857Y-187321491D01*
X97032781Y-187329525D01*
X97000071Y-187334377D01*
X96967044Y-187336000D01*
X96090956Y-187336000D01*
X96057929Y-187334377D01*
X96025219Y-187329525D01*
X95993143Y-187321491D01*
X95962009Y-187310351D01*
X95932116Y-187296213D01*
X95903753Y-187279213D01*
X95877193Y-187259515D01*
X95852692Y-187237308D01*
X95830485Y-187212807D01*
X95810787Y-187186247D01*
X95793787Y-187157884D01*
X95779649Y-187127991D01*
X95768509Y-187096857D01*
X95760475Y-187064781D01*
X95755623Y-187032071D01*
X95754000Y-186999044D01*
X95754000Y-185872956D01*
X95755623Y-185839929D01*
X95760475Y-185807219D01*
X95768509Y-185775143D01*
X95779649Y-185744009D01*
X95793787Y-185714116D01*
X95810787Y-185685753D01*
X95830485Y-185659193D01*
X95852692Y-185634692D01*
X95877193Y-185612485D01*
X95903753Y-185592787D01*
X95932116Y-185575787D01*
X95962009Y-185561649D01*
X95993143Y-185550509D01*
X96025219Y-185542475D01*
X96057929Y-185537623D01*
X96090956Y-185536000D01*
X96967044Y-185536000D01*
X97000071Y-185537623D01*
X97000071Y-185537623D01*
G37*
D17*
X96529000Y-186436000D03*
G04 #@! TD*
M02*
