G04 #@! TF.GenerationSoftware,KiCad,Pcbnew,(5.0.0)*
G04 #@! TF.CreationDate,2018-10-20T19:08:45+01:00*
G04 #@! TF.ProjectId,AD9833FunctionGenerator,41443938333346756E6374696F6E4765,rev?*
G04 #@! TF.SameCoordinates,Original*
G04 #@! TF.FileFunction,Soldermask,Bot*
G04 #@! TF.FilePolarity,Negative*
%FSLAX46Y46*%
G04 Gerber Fmt 4.6, Leading zero omitted, Abs format (unit mm)*
G04 Created by KiCad (PCBNEW (5.0.0)) date 10/20/18 19:08:45*
%MOMM*%
%LPD*%
G01*
G04 APERTURE LIST*
%ADD10C,2.600000*%
%ADD11C,2.020000*%
%ADD12O,2.000000X2.000000*%
%ADD13C,2.000000*%
%ADD14R,2.000000X2.000000*%
%ADD15C,2.400000*%
%ADD16C,2.900000*%
%ADD17R,2.100000X2.100000*%
%ADD18O,2.100000X2.100000*%
%ADD19C,0.100000*%
%ADD20C,1.550000*%
%ADD21R,2.305000X2.400000*%
%ADD22O,2.305000X2.400000*%
G04 APERTURE END LIST*
D10*
G04 #@! TO.C,REF\002A\002A*
X53794681Y-71464698D03*
G04 #@! TD*
G04 #@! TO.C,REF\002A\002A*
X86814681Y-71464698D03*
G04 #@! TD*
G04 #@! TO.C,REF\002A\002A*
X86814681Y-110834698D03*
G04 #@! TD*
D11*
G04 #@! TO.C,RV_UPOFF1*
X83900000Y-207010000D03*
X81400000Y-202010000D03*
X78900000Y-207010000D03*
G04 #@! TD*
D12*
G04 #@! TO.C,A1*
X109855000Y-92710000D03*
X125095000Y-92710000D03*
X109855000Y-128270000D03*
X125095000Y-95250000D03*
X109855000Y-125730000D03*
X125095000Y-97790000D03*
X109855000Y-123190000D03*
X125095000Y-100330000D03*
X109855000Y-120650000D03*
X125095000Y-102870000D03*
X109855000Y-118110000D03*
D13*
X125095000Y-105410000D03*
D12*
X109855000Y-115570000D03*
X125095000Y-107950000D03*
X109855000Y-113030000D03*
X125095000Y-110490000D03*
X109855000Y-110490000D03*
X125095000Y-113030000D03*
X109855000Y-107950000D03*
X125095000Y-115570000D03*
X109855000Y-105410000D03*
X125095000Y-118110000D03*
X109855000Y-102870000D03*
X125095000Y-120650000D03*
X109855000Y-100330000D03*
X125095000Y-123190000D03*
X109855000Y-97790000D03*
X125095000Y-125730000D03*
X109855000Y-95250000D03*
D14*
X125095000Y-128270000D03*
G04 #@! TD*
D15*
G04 #@! TO.C,RV_FREQ1*
X71882000Y-144780000D03*
X71882000Y-142240000D03*
X71882000Y-139700000D03*
X77216000Y-144780000D03*
X77216000Y-142240000D03*
X77216000Y-139700000D03*
G04 #@! TD*
D16*
G04 #@! TO.C,SW_PWR1*
X80264000Y-124968000D03*
X80264000Y-118968000D03*
X84264000Y-124968000D03*
X84264000Y-118968000D03*
X88264000Y-124968000D03*
X88264000Y-118968000D03*
G04 #@! TD*
D17*
G04 #@! TO.C,J_OUT1*
X90424000Y-204470000D03*
D18*
X92964000Y-204470000D03*
G04 #@! TD*
D17*
G04 #@! TO.C,J_PWR1*
X96520000Y-96520000D03*
D18*
X99060000Y-96520000D03*
X96520000Y-99060000D03*
X99060000Y-99060000D03*
X96520000Y-101600000D03*
X99060000Y-101600000D03*
X96520000Y-104140000D03*
X99060000Y-104140000D03*
X96520000Y-106680000D03*
X99060000Y-106680000D03*
G04 #@! TD*
D19*
G04 #@! TO.C,R_RANGE1*
G36*
X84924071Y-96082321D02*
X84956781Y-96087173D01*
X84988857Y-96095207D01*
X85019991Y-96106347D01*
X85049884Y-96120485D01*
X85078247Y-96137485D01*
X85104807Y-96157183D01*
X85129308Y-96179390D01*
X85151515Y-96203891D01*
X85171213Y-96230451D01*
X85188213Y-96258814D01*
X85202351Y-96288707D01*
X85213491Y-96319841D01*
X85221525Y-96351917D01*
X85226377Y-96384627D01*
X85228000Y-96417654D01*
X85228000Y-97293742D01*
X85226377Y-97326769D01*
X85221525Y-97359479D01*
X85213491Y-97391555D01*
X85202351Y-97422689D01*
X85188213Y-97452582D01*
X85171213Y-97480945D01*
X85151515Y-97507505D01*
X85129308Y-97532006D01*
X85104807Y-97554213D01*
X85078247Y-97573911D01*
X85049884Y-97590911D01*
X85019991Y-97605049D01*
X84988857Y-97616189D01*
X84956781Y-97624223D01*
X84924071Y-97629075D01*
X84891044Y-97630698D01*
X83764956Y-97630698D01*
X83731929Y-97629075D01*
X83699219Y-97624223D01*
X83667143Y-97616189D01*
X83636009Y-97605049D01*
X83606116Y-97590911D01*
X83577753Y-97573911D01*
X83551193Y-97554213D01*
X83526692Y-97532006D01*
X83504485Y-97507505D01*
X83484787Y-97480945D01*
X83467787Y-97452582D01*
X83453649Y-97422689D01*
X83442509Y-97391555D01*
X83434475Y-97359479D01*
X83429623Y-97326769D01*
X83428000Y-97293742D01*
X83428000Y-96417654D01*
X83429623Y-96384627D01*
X83434475Y-96351917D01*
X83442509Y-96319841D01*
X83453649Y-96288707D01*
X83467787Y-96258814D01*
X83484787Y-96230451D01*
X83504485Y-96203891D01*
X83526692Y-96179390D01*
X83551193Y-96157183D01*
X83577753Y-96137485D01*
X83606116Y-96120485D01*
X83636009Y-96106347D01*
X83667143Y-96095207D01*
X83699219Y-96087173D01*
X83731929Y-96082321D01*
X83764956Y-96080698D01*
X84891044Y-96080698D01*
X84924071Y-96082321D01*
X84924071Y-96082321D01*
G37*
D20*
X84328000Y-96855698D03*
D19*
G36*
X84924071Y-98132321D02*
X84956781Y-98137173D01*
X84988857Y-98145207D01*
X85019991Y-98156347D01*
X85049884Y-98170485D01*
X85078247Y-98187485D01*
X85104807Y-98207183D01*
X85129308Y-98229390D01*
X85151515Y-98253891D01*
X85171213Y-98280451D01*
X85188213Y-98308814D01*
X85202351Y-98338707D01*
X85213491Y-98369841D01*
X85221525Y-98401917D01*
X85226377Y-98434627D01*
X85228000Y-98467654D01*
X85228000Y-99343742D01*
X85226377Y-99376769D01*
X85221525Y-99409479D01*
X85213491Y-99441555D01*
X85202351Y-99472689D01*
X85188213Y-99502582D01*
X85171213Y-99530945D01*
X85151515Y-99557505D01*
X85129308Y-99582006D01*
X85104807Y-99604213D01*
X85078247Y-99623911D01*
X85049884Y-99640911D01*
X85019991Y-99655049D01*
X84988857Y-99666189D01*
X84956781Y-99674223D01*
X84924071Y-99679075D01*
X84891044Y-99680698D01*
X83764956Y-99680698D01*
X83731929Y-99679075D01*
X83699219Y-99674223D01*
X83667143Y-99666189D01*
X83636009Y-99655049D01*
X83606116Y-99640911D01*
X83577753Y-99623911D01*
X83551193Y-99604213D01*
X83526692Y-99582006D01*
X83504485Y-99557505D01*
X83484787Y-99530945D01*
X83467787Y-99502582D01*
X83453649Y-99472689D01*
X83442509Y-99441555D01*
X83434475Y-99409479D01*
X83429623Y-99376769D01*
X83428000Y-99343742D01*
X83428000Y-98467654D01*
X83429623Y-98434627D01*
X83434475Y-98401917D01*
X83442509Y-98369841D01*
X83453649Y-98338707D01*
X83467787Y-98308814D01*
X83484787Y-98280451D01*
X83504485Y-98253891D01*
X83526692Y-98229390D01*
X83551193Y-98207183D01*
X83577753Y-98187485D01*
X83606116Y-98170485D01*
X83636009Y-98156347D01*
X83667143Y-98145207D01*
X83699219Y-98137173D01*
X83731929Y-98132321D01*
X83764956Y-98130698D01*
X84891044Y-98130698D01*
X84924071Y-98132321D01*
X84924071Y-98132321D01*
G37*
D20*
X84328000Y-98905698D03*
G04 #@! TD*
D19*
G04 #@! TO.C,C_BUFFBP1*
G36*
X86702071Y-193896100D02*
X86734781Y-193900952D01*
X86766857Y-193908986D01*
X86797991Y-193920126D01*
X86827884Y-193934264D01*
X86856247Y-193951264D01*
X86882807Y-193970962D01*
X86907308Y-193993169D01*
X86929515Y-194017670D01*
X86949213Y-194044230D01*
X86966213Y-194072593D01*
X86980351Y-194102486D01*
X86991491Y-194133620D01*
X86999525Y-194165696D01*
X87004377Y-194198406D01*
X87006000Y-194231433D01*
X87006000Y-195107521D01*
X87004377Y-195140548D01*
X86999525Y-195173258D01*
X86991491Y-195205334D01*
X86980351Y-195236468D01*
X86966213Y-195266361D01*
X86949213Y-195294724D01*
X86929515Y-195321284D01*
X86907308Y-195345785D01*
X86882807Y-195367992D01*
X86856247Y-195387690D01*
X86827884Y-195404690D01*
X86797991Y-195418828D01*
X86766857Y-195429968D01*
X86734781Y-195438002D01*
X86702071Y-195442854D01*
X86669044Y-195444477D01*
X85542956Y-195444477D01*
X85509929Y-195442854D01*
X85477219Y-195438002D01*
X85445143Y-195429968D01*
X85414009Y-195418828D01*
X85384116Y-195404690D01*
X85355753Y-195387690D01*
X85329193Y-195367992D01*
X85304692Y-195345785D01*
X85282485Y-195321284D01*
X85262787Y-195294724D01*
X85245787Y-195266361D01*
X85231649Y-195236468D01*
X85220509Y-195205334D01*
X85212475Y-195173258D01*
X85207623Y-195140548D01*
X85206000Y-195107521D01*
X85206000Y-194231433D01*
X85207623Y-194198406D01*
X85212475Y-194165696D01*
X85220509Y-194133620D01*
X85231649Y-194102486D01*
X85245787Y-194072593D01*
X85262787Y-194044230D01*
X85282485Y-194017670D01*
X85304692Y-193993169D01*
X85329193Y-193970962D01*
X85355753Y-193951264D01*
X85384116Y-193934264D01*
X85414009Y-193920126D01*
X85445143Y-193908986D01*
X85477219Y-193900952D01*
X85509929Y-193896100D01*
X85542956Y-193894477D01*
X86669044Y-193894477D01*
X86702071Y-193896100D01*
X86702071Y-193896100D01*
G37*
D20*
X86106000Y-194669477D03*
D19*
G36*
X86702071Y-195946100D02*
X86734781Y-195950952D01*
X86766857Y-195958986D01*
X86797991Y-195970126D01*
X86827884Y-195984264D01*
X86856247Y-196001264D01*
X86882807Y-196020962D01*
X86907308Y-196043169D01*
X86929515Y-196067670D01*
X86949213Y-196094230D01*
X86966213Y-196122593D01*
X86980351Y-196152486D01*
X86991491Y-196183620D01*
X86999525Y-196215696D01*
X87004377Y-196248406D01*
X87006000Y-196281433D01*
X87006000Y-197157521D01*
X87004377Y-197190548D01*
X86999525Y-197223258D01*
X86991491Y-197255334D01*
X86980351Y-197286468D01*
X86966213Y-197316361D01*
X86949213Y-197344724D01*
X86929515Y-197371284D01*
X86907308Y-197395785D01*
X86882807Y-197417992D01*
X86856247Y-197437690D01*
X86827884Y-197454690D01*
X86797991Y-197468828D01*
X86766857Y-197479968D01*
X86734781Y-197488002D01*
X86702071Y-197492854D01*
X86669044Y-197494477D01*
X85542956Y-197494477D01*
X85509929Y-197492854D01*
X85477219Y-197488002D01*
X85445143Y-197479968D01*
X85414009Y-197468828D01*
X85384116Y-197454690D01*
X85355753Y-197437690D01*
X85329193Y-197417992D01*
X85304692Y-197395785D01*
X85282485Y-197371284D01*
X85262787Y-197344724D01*
X85245787Y-197316361D01*
X85231649Y-197286468D01*
X85220509Y-197255334D01*
X85212475Y-197223258D01*
X85207623Y-197190548D01*
X85206000Y-197157521D01*
X85206000Y-196281433D01*
X85207623Y-196248406D01*
X85212475Y-196215696D01*
X85220509Y-196183620D01*
X85231649Y-196152486D01*
X85245787Y-196122593D01*
X85262787Y-196094230D01*
X85282485Y-196067670D01*
X85304692Y-196043169D01*
X85329193Y-196020962D01*
X85355753Y-196001264D01*
X85384116Y-195984264D01*
X85414009Y-195970126D01*
X85445143Y-195958986D01*
X85477219Y-195950952D01*
X85509929Y-195946100D01*
X85542956Y-195944477D01*
X86669044Y-195944477D01*
X86702071Y-195946100D01*
X86702071Y-195946100D01*
G37*
D20*
X86106000Y-196719477D03*
G04 #@! TD*
D18*
G04 #@! TO.C,J_AD9833*
X111194407Y-178061772D03*
X111194407Y-175521772D03*
X111194407Y-172981772D03*
X111194407Y-170441772D03*
X111194407Y-167901772D03*
X111194407Y-165361772D03*
D17*
X111194407Y-162821772D03*
G04 #@! TD*
G04 #@! TO.C,J_AUX2MAIN2*
X83131681Y-85307698D03*
D18*
X80591681Y-85307698D03*
X83131681Y-82767698D03*
X80591681Y-82767698D03*
X83131681Y-80227698D03*
X80591681Y-80227698D03*
X83131681Y-77687698D03*
X80591681Y-77687698D03*
X83131681Y-75147698D03*
X80591681Y-75147698D03*
G04 #@! TD*
D17*
G04 #@! TO.C,J_MAIN2AUX1*
X127000000Y-81280000D03*
D18*
X124460000Y-81280000D03*
X127000000Y-78740000D03*
X124460000Y-78740000D03*
X127000000Y-76200000D03*
X124460000Y-76200000D03*
X127000000Y-73660000D03*
X124460000Y-73660000D03*
X127000000Y-71120000D03*
X124460000Y-71120000D03*
G04 #@! TD*
D17*
G04 #@! TO.C,J_OLEDCONNECTOR1*
X66725646Y-73193447D03*
D18*
X69265646Y-73193447D03*
X71805646Y-73193447D03*
X74345646Y-73193447D03*
G04 #@! TD*
D19*
G04 #@! TO.C,R_MODE1*
G36*
X64931752Y-98132321D02*
X64964462Y-98137173D01*
X64996538Y-98145207D01*
X65027672Y-98156347D01*
X65057565Y-98170485D01*
X65085928Y-98187485D01*
X65112488Y-98207183D01*
X65136989Y-98229390D01*
X65159196Y-98253891D01*
X65178894Y-98280451D01*
X65195894Y-98308814D01*
X65210032Y-98338707D01*
X65221172Y-98369841D01*
X65229206Y-98401917D01*
X65234058Y-98434627D01*
X65235681Y-98467654D01*
X65235681Y-99343742D01*
X65234058Y-99376769D01*
X65229206Y-99409479D01*
X65221172Y-99441555D01*
X65210032Y-99472689D01*
X65195894Y-99502582D01*
X65178894Y-99530945D01*
X65159196Y-99557505D01*
X65136989Y-99582006D01*
X65112488Y-99604213D01*
X65085928Y-99623911D01*
X65057565Y-99640911D01*
X65027672Y-99655049D01*
X64996538Y-99666189D01*
X64964462Y-99674223D01*
X64931752Y-99679075D01*
X64898725Y-99680698D01*
X63772637Y-99680698D01*
X63739610Y-99679075D01*
X63706900Y-99674223D01*
X63674824Y-99666189D01*
X63643690Y-99655049D01*
X63613797Y-99640911D01*
X63585434Y-99623911D01*
X63558874Y-99604213D01*
X63534373Y-99582006D01*
X63512166Y-99557505D01*
X63492468Y-99530945D01*
X63475468Y-99502582D01*
X63461330Y-99472689D01*
X63450190Y-99441555D01*
X63442156Y-99409479D01*
X63437304Y-99376769D01*
X63435681Y-99343742D01*
X63435681Y-98467654D01*
X63437304Y-98434627D01*
X63442156Y-98401917D01*
X63450190Y-98369841D01*
X63461330Y-98338707D01*
X63475468Y-98308814D01*
X63492468Y-98280451D01*
X63512166Y-98253891D01*
X63534373Y-98229390D01*
X63558874Y-98207183D01*
X63585434Y-98187485D01*
X63613797Y-98170485D01*
X63643690Y-98156347D01*
X63674824Y-98145207D01*
X63706900Y-98137173D01*
X63739610Y-98132321D01*
X63772637Y-98130698D01*
X64898725Y-98130698D01*
X64931752Y-98132321D01*
X64931752Y-98132321D01*
G37*
D20*
X64335681Y-98905698D03*
D19*
G36*
X64931752Y-96082321D02*
X64964462Y-96087173D01*
X64996538Y-96095207D01*
X65027672Y-96106347D01*
X65057565Y-96120485D01*
X65085928Y-96137485D01*
X65112488Y-96157183D01*
X65136989Y-96179390D01*
X65159196Y-96203891D01*
X65178894Y-96230451D01*
X65195894Y-96258814D01*
X65210032Y-96288707D01*
X65221172Y-96319841D01*
X65229206Y-96351917D01*
X65234058Y-96384627D01*
X65235681Y-96417654D01*
X65235681Y-97293742D01*
X65234058Y-97326769D01*
X65229206Y-97359479D01*
X65221172Y-97391555D01*
X65210032Y-97422689D01*
X65195894Y-97452582D01*
X65178894Y-97480945D01*
X65159196Y-97507505D01*
X65136989Y-97532006D01*
X65112488Y-97554213D01*
X65085928Y-97573911D01*
X65057565Y-97590911D01*
X65027672Y-97605049D01*
X64996538Y-97616189D01*
X64964462Y-97624223D01*
X64931752Y-97629075D01*
X64898725Y-97630698D01*
X63772637Y-97630698D01*
X63739610Y-97629075D01*
X63706900Y-97624223D01*
X63674824Y-97616189D01*
X63643690Y-97605049D01*
X63613797Y-97590911D01*
X63585434Y-97573911D01*
X63558874Y-97554213D01*
X63534373Y-97532006D01*
X63512166Y-97507505D01*
X63492468Y-97480945D01*
X63475468Y-97452582D01*
X63461330Y-97422689D01*
X63450190Y-97391555D01*
X63442156Y-97359479D01*
X63437304Y-97326769D01*
X63435681Y-97293742D01*
X63435681Y-96417654D01*
X63437304Y-96384627D01*
X63442156Y-96351917D01*
X63450190Y-96319841D01*
X63461330Y-96288707D01*
X63475468Y-96258814D01*
X63492468Y-96230451D01*
X63512166Y-96203891D01*
X63534373Y-96179390D01*
X63558874Y-96157183D01*
X63585434Y-96137485D01*
X63613797Y-96120485D01*
X63643690Y-96106347D01*
X63674824Y-96095207D01*
X63706900Y-96087173D01*
X63739610Y-96082321D01*
X63772637Y-96080698D01*
X64898725Y-96080698D01*
X64931752Y-96082321D01*
X64931752Y-96082321D01*
G37*
D20*
X64335681Y-96855698D03*
G04 #@! TD*
D15*
G04 #@! TO.C,SW_FUNC1*
X60929681Y-102452698D03*
X60929681Y-106952698D03*
X54429681Y-102452698D03*
X54429681Y-106952698D03*
G04 #@! TD*
G04 #@! TO.C,SW_MODE1*
X67129681Y-106952698D03*
X67129681Y-102452698D03*
X73629681Y-106952698D03*
X73629681Y-102452698D03*
G04 #@! TD*
G04 #@! TO.C,SW_RANGE1*
X79575681Y-106952698D03*
X79575681Y-102452698D03*
X86075681Y-106952698D03*
X86075681Y-102452698D03*
G04 #@! TD*
D21*
G04 #@! TO.C,U1*
X95250000Y-85598000D03*
D22*
X97790000Y-85598000D03*
X100330000Y-85598000D03*
G04 #@! TD*
D19*
G04 #@! TO.C,C_POTBP1*
G36*
X103466071Y-199641623D02*
X103498781Y-199646475D01*
X103530857Y-199654509D01*
X103561991Y-199665649D01*
X103591884Y-199679787D01*
X103620247Y-199696787D01*
X103646807Y-199716485D01*
X103671308Y-199738692D01*
X103693515Y-199763193D01*
X103713213Y-199789753D01*
X103730213Y-199818116D01*
X103744351Y-199848009D01*
X103755491Y-199879143D01*
X103763525Y-199911219D01*
X103768377Y-199943929D01*
X103770000Y-199976956D01*
X103770000Y-200853044D01*
X103768377Y-200886071D01*
X103763525Y-200918781D01*
X103755491Y-200950857D01*
X103744351Y-200981991D01*
X103730213Y-201011884D01*
X103713213Y-201040247D01*
X103693515Y-201066807D01*
X103671308Y-201091308D01*
X103646807Y-201113515D01*
X103620247Y-201133213D01*
X103591884Y-201150213D01*
X103561991Y-201164351D01*
X103530857Y-201175491D01*
X103498781Y-201183525D01*
X103466071Y-201188377D01*
X103433044Y-201190000D01*
X102306956Y-201190000D01*
X102273929Y-201188377D01*
X102241219Y-201183525D01*
X102209143Y-201175491D01*
X102178009Y-201164351D01*
X102148116Y-201150213D01*
X102119753Y-201133213D01*
X102093193Y-201113515D01*
X102068692Y-201091308D01*
X102046485Y-201066807D01*
X102026787Y-201040247D01*
X102009787Y-201011884D01*
X101995649Y-200981991D01*
X101984509Y-200950857D01*
X101976475Y-200918781D01*
X101971623Y-200886071D01*
X101970000Y-200853044D01*
X101970000Y-199976956D01*
X101971623Y-199943929D01*
X101976475Y-199911219D01*
X101984509Y-199879143D01*
X101995649Y-199848009D01*
X102009787Y-199818116D01*
X102026787Y-199789753D01*
X102046485Y-199763193D01*
X102068692Y-199738692D01*
X102093193Y-199716485D01*
X102119753Y-199696787D01*
X102148116Y-199679787D01*
X102178009Y-199665649D01*
X102209143Y-199654509D01*
X102241219Y-199646475D01*
X102273929Y-199641623D01*
X102306956Y-199640000D01*
X103433044Y-199640000D01*
X103466071Y-199641623D01*
X103466071Y-199641623D01*
G37*
D20*
X102870000Y-200415000D03*
D19*
G36*
X103466071Y-197591623D02*
X103498781Y-197596475D01*
X103530857Y-197604509D01*
X103561991Y-197615649D01*
X103591884Y-197629787D01*
X103620247Y-197646787D01*
X103646807Y-197666485D01*
X103671308Y-197688692D01*
X103693515Y-197713193D01*
X103713213Y-197739753D01*
X103730213Y-197768116D01*
X103744351Y-197798009D01*
X103755491Y-197829143D01*
X103763525Y-197861219D01*
X103768377Y-197893929D01*
X103770000Y-197926956D01*
X103770000Y-198803044D01*
X103768377Y-198836071D01*
X103763525Y-198868781D01*
X103755491Y-198900857D01*
X103744351Y-198931991D01*
X103730213Y-198961884D01*
X103713213Y-198990247D01*
X103693515Y-199016807D01*
X103671308Y-199041308D01*
X103646807Y-199063515D01*
X103620247Y-199083213D01*
X103591884Y-199100213D01*
X103561991Y-199114351D01*
X103530857Y-199125491D01*
X103498781Y-199133525D01*
X103466071Y-199138377D01*
X103433044Y-199140000D01*
X102306956Y-199140000D01*
X102273929Y-199138377D01*
X102241219Y-199133525D01*
X102209143Y-199125491D01*
X102178009Y-199114351D01*
X102148116Y-199100213D01*
X102119753Y-199083213D01*
X102093193Y-199063515D01*
X102068692Y-199041308D01*
X102046485Y-199016807D01*
X102026787Y-198990247D01*
X102009787Y-198961884D01*
X101995649Y-198931991D01*
X101984509Y-198900857D01*
X101976475Y-198868781D01*
X101971623Y-198836071D01*
X101970000Y-198803044D01*
X101970000Y-197926956D01*
X101971623Y-197893929D01*
X101976475Y-197861219D01*
X101984509Y-197829143D01*
X101995649Y-197798009D01*
X102009787Y-197768116D01*
X102026787Y-197739753D01*
X102046485Y-197713193D01*
X102068692Y-197688692D01*
X102093193Y-197666485D01*
X102119753Y-197646787D01*
X102148116Y-197629787D01*
X102178009Y-197615649D01*
X102209143Y-197604509D01*
X102241219Y-197596475D01*
X102273929Y-197591623D01*
X102306956Y-197590000D01*
X103433044Y-197590000D01*
X103466071Y-197591623D01*
X103466071Y-197591623D01*
G37*
D20*
X102870000Y-198365000D03*
G04 #@! TD*
D19*
G04 #@! TO.C,C_BUFFBP2*
G36*
X89496071Y-195946100D02*
X89528781Y-195950952D01*
X89560857Y-195958986D01*
X89591991Y-195970126D01*
X89621884Y-195984264D01*
X89650247Y-196001264D01*
X89676807Y-196020962D01*
X89701308Y-196043169D01*
X89723515Y-196067670D01*
X89743213Y-196094230D01*
X89760213Y-196122593D01*
X89774351Y-196152486D01*
X89785491Y-196183620D01*
X89793525Y-196215696D01*
X89798377Y-196248406D01*
X89800000Y-196281433D01*
X89800000Y-197157521D01*
X89798377Y-197190548D01*
X89793525Y-197223258D01*
X89785491Y-197255334D01*
X89774351Y-197286468D01*
X89760213Y-197316361D01*
X89743213Y-197344724D01*
X89723515Y-197371284D01*
X89701308Y-197395785D01*
X89676807Y-197417992D01*
X89650247Y-197437690D01*
X89621884Y-197454690D01*
X89591991Y-197468828D01*
X89560857Y-197479968D01*
X89528781Y-197488002D01*
X89496071Y-197492854D01*
X89463044Y-197494477D01*
X88336956Y-197494477D01*
X88303929Y-197492854D01*
X88271219Y-197488002D01*
X88239143Y-197479968D01*
X88208009Y-197468828D01*
X88178116Y-197454690D01*
X88149753Y-197437690D01*
X88123193Y-197417992D01*
X88098692Y-197395785D01*
X88076485Y-197371284D01*
X88056787Y-197344724D01*
X88039787Y-197316361D01*
X88025649Y-197286468D01*
X88014509Y-197255334D01*
X88006475Y-197223258D01*
X88001623Y-197190548D01*
X88000000Y-197157521D01*
X88000000Y-196281433D01*
X88001623Y-196248406D01*
X88006475Y-196215696D01*
X88014509Y-196183620D01*
X88025649Y-196152486D01*
X88039787Y-196122593D01*
X88056787Y-196094230D01*
X88076485Y-196067670D01*
X88098692Y-196043169D01*
X88123193Y-196020962D01*
X88149753Y-196001264D01*
X88178116Y-195984264D01*
X88208009Y-195970126D01*
X88239143Y-195958986D01*
X88271219Y-195950952D01*
X88303929Y-195946100D01*
X88336956Y-195944477D01*
X89463044Y-195944477D01*
X89496071Y-195946100D01*
X89496071Y-195946100D01*
G37*
D20*
X88900000Y-196719477D03*
D19*
G36*
X89496071Y-193896100D02*
X89528781Y-193900952D01*
X89560857Y-193908986D01*
X89591991Y-193920126D01*
X89621884Y-193934264D01*
X89650247Y-193951264D01*
X89676807Y-193970962D01*
X89701308Y-193993169D01*
X89723515Y-194017670D01*
X89743213Y-194044230D01*
X89760213Y-194072593D01*
X89774351Y-194102486D01*
X89785491Y-194133620D01*
X89793525Y-194165696D01*
X89798377Y-194198406D01*
X89800000Y-194231433D01*
X89800000Y-195107521D01*
X89798377Y-195140548D01*
X89793525Y-195173258D01*
X89785491Y-195205334D01*
X89774351Y-195236468D01*
X89760213Y-195266361D01*
X89743213Y-195294724D01*
X89723515Y-195321284D01*
X89701308Y-195345785D01*
X89676807Y-195367992D01*
X89650247Y-195387690D01*
X89621884Y-195404690D01*
X89591991Y-195418828D01*
X89560857Y-195429968D01*
X89528781Y-195438002D01*
X89496071Y-195442854D01*
X89463044Y-195444477D01*
X88336956Y-195444477D01*
X88303929Y-195442854D01*
X88271219Y-195438002D01*
X88239143Y-195429968D01*
X88208009Y-195418828D01*
X88178116Y-195404690D01*
X88149753Y-195387690D01*
X88123193Y-195367992D01*
X88098692Y-195345785D01*
X88076485Y-195321284D01*
X88056787Y-195294724D01*
X88039787Y-195266361D01*
X88025649Y-195236468D01*
X88014509Y-195205334D01*
X88006475Y-195173258D01*
X88001623Y-195140548D01*
X88000000Y-195107521D01*
X88000000Y-194231433D01*
X88001623Y-194198406D01*
X88006475Y-194165696D01*
X88014509Y-194133620D01*
X88025649Y-194102486D01*
X88039787Y-194072593D01*
X88056787Y-194044230D01*
X88076485Y-194017670D01*
X88098692Y-193993169D01*
X88123193Y-193970962D01*
X88149753Y-193951264D01*
X88178116Y-193934264D01*
X88208009Y-193920126D01*
X88239143Y-193908986D01*
X88271219Y-193900952D01*
X88303929Y-193896100D01*
X88336956Y-193894477D01*
X89463044Y-193894477D01*
X89496071Y-193896100D01*
X89496071Y-193896100D01*
G37*
D20*
X88900000Y-194669477D03*
G04 #@! TD*
D19*
G04 #@! TO.C,C_BUFFBP3*
G36*
X99910071Y-187576623D02*
X99942781Y-187581475D01*
X99974857Y-187589509D01*
X100005991Y-187600649D01*
X100035884Y-187614787D01*
X100064247Y-187631787D01*
X100090807Y-187651485D01*
X100115308Y-187673692D01*
X100137515Y-187698193D01*
X100157213Y-187724753D01*
X100174213Y-187753116D01*
X100188351Y-187783009D01*
X100199491Y-187814143D01*
X100207525Y-187846219D01*
X100212377Y-187878929D01*
X100214000Y-187911956D01*
X100214000Y-188788044D01*
X100212377Y-188821071D01*
X100207525Y-188853781D01*
X100199491Y-188885857D01*
X100188351Y-188916991D01*
X100174213Y-188946884D01*
X100157213Y-188975247D01*
X100137515Y-189001807D01*
X100115308Y-189026308D01*
X100090807Y-189048515D01*
X100064247Y-189068213D01*
X100035884Y-189085213D01*
X100005991Y-189099351D01*
X99974857Y-189110491D01*
X99942781Y-189118525D01*
X99910071Y-189123377D01*
X99877044Y-189125000D01*
X98750956Y-189125000D01*
X98717929Y-189123377D01*
X98685219Y-189118525D01*
X98653143Y-189110491D01*
X98622009Y-189099351D01*
X98592116Y-189085213D01*
X98563753Y-189068213D01*
X98537193Y-189048515D01*
X98512692Y-189026308D01*
X98490485Y-189001807D01*
X98470787Y-188975247D01*
X98453787Y-188946884D01*
X98439649Y-188916991D01*
X98428509Y-188885857D01*
X98420475Y-188853781D01*
X98415623Y-188821071D01*
X98414000Y-188788044D01*
X98414000Y-187911956D01*
X98415623Y-187878929D01*
X98420475Y-187846219D01*
X98428509Y-187814143D01*
X98439649Y-187783009D01*
X98453787Y-187753116D01*
X98470787Y-187724753D01*
X98490485Y-187698193D01*
X98512692Y-187673692D01*
X98537193Y-187651485D01*
X98563753Y-187631787D01*
X98592116Y-187614787D01*
X98622009Y-187600649D01*
X98653143Y-187589509D01*
X98685219Y-187581475D01*
X98717929Y-187576623D01*
X98750956Y-187575000D01*
X99877044Y-187575000D01*
X99910071Y-187576623D01*
X99910071Y-187576623D01*
G37*
D20*
X99314000Y-188350000D03*
D19*
G36*
X99910071Y-185526623D02*
X99942781Y-185531475D01*
X99974857Y-185539509D01*
X100005991Y-185550649D01*
X100035884Y-185564787D01*
X100064247Y-185581787D01*
X100090807Y-185601485D01*
X100115308Y-185623692D01*
X100137515Y-185648193D01*
X100157213Y-185674753D01*
X100174213Y-185703116D01*
X100188351Y-185733009D01*
X100199491Y-185764143D01*
X100207525Y-185796219D01*
X100212377Y-185828929D01*
X100214000Y-185861956D01*
X100214000Y-186738044D01*
X100212377Y-186771071D01*
X100207525Y-186803781D01*
X100199491Y-186835857D01*
X100188351Y-186866991D01*
X100174213Y-186896884D01*
X100157213Y-186925247D01*
X100137515Y-186951807D01*
X100115308Y-186976308D01*
X100090807Y-186998515D01*
X100064247Y-187018213D01*
X100035884Y-187035213D01*
X100005991Y-187049351D01*
X99974857Y-187060491D01*
X99942781Y-187068525D01*
X99910071Y-187073377D01*
X99877044Y-187075000D01*
X98750956Y-187075000D01*
X98717929Y-187073377D01*
X98685219Y-187068525D01*
X98653143Y-187060491D01*
X98622009Y-187049351D01*
X98592116Y-187035213D01*
X98563753Y-187018213D01*
X98537193Y-186998515D01*
X98512692Y-186976308D01*
X98490485Y-186951807D01*
X98470787Y-186925247D01*
X98453787Y-186896884D01*
X98439649Y-186866991D01*
X98428509Y-186835857D01*
X98420475Y-186803781D01*
X98415623Y-186771071D01*
X98414000Y-186738044D01*
X98414000Y-185861956D01*
X98415623Y-185828929D01*
X98420475Y-185796219D01*
X98428509Y-185764143D01*
X98439649Y-185733009D01*
X98453787Y-185703116D01*
X98470787Y-185674753D01*
X98490485Y-185648193D01*
X98512692Y-185623692D01*
X98537193Y-185601485D01*
X98563753Y-185581787D01*
X98592116Y-185564787D01*
X98622009Y-185550649D01*
X98653143Y-185539509D01*
X98685219Y-185531475D01*
X98717929Y-185526623D01*
X98750956Y-185525000D01*
X99877044Y-185525000D01*
X99910071Y-185526623D01*
X99910071Y-185526623D01*
G37*
D20*
X99314000Y-186300000D03*
G04 #@! TD*
D19*
G04 #@! TO.C,C_BUFFBP4*
G36*
X102450071Y-185526623D02*
X102482781Y-185531475D01*
X102514857Y-185539509D01*
X102545991Y-185550649D01*
X102575884Y-185564787D01*
X102604247Y-185581787D01*
X102630807Y-185601485D01*
X102655308Y-185623692D01*
X102677515Y-185648193D01*
X102697213Y-185674753D01*
X102714213Y-185703116D01*
X102728351Y-185733009D01*
X102739491Y-185764143D01*
X102747525Y-185796219D01*
X102752377Y-185828929D01*
X102754000Y-185861956D01*
X102754000Y-186738044D01*
X102752377Y-186771071D01*
X102747525Y-186803781D01*
X102739491Y-186835857D01*
X102728351Y-186866991D01*
X102714213Y-186896884D01*
X102697213Y-186925247D01*
X102677515Y-186951807D01*
X102655308Y-186976308D01*
X102630807Y-186998515D01*
X102604247Y-187018213D01*
X102575884Y-187035213D01*
X102545991Y-187049351D01*
X102514857Y-187060491D01*
X102482781Y-187068525D01*
X102450071Y-187073377D01*
X102417044Y-187075000D01*
X101290956Y-187075000D01*
X101257929Y-187073377D01*
X101225219Y-187068525D01*
X101193143Y-187060491D01*
X101162009Y-187049351D01*
X101132116Y-187035213D01*
X101103753Y-187018213D01*
X101077193Y-186998515D01*
X101052692Y-186976308D01*
X101030485Y-186951807D01*
X101010787Y-186925247D01*
X100993787Y-186896884D01*
X100979649Y-186866991D01*
X100968509Y-186835857D01*
X100960475Y-186803781D01*
X100955623Y-186771071D01*
X100954000Y-186738044D01*
X100954000Y-185861956D01*
X100955623Y-185828929D01*
X100960475Y-185796219D01*
X100968509Y-185764143D01*
X100979649Y-185733009D01*
X100993787Y-185703116D01*
X101010787Y-185674753D01*
X101030485Y-185648193D01*
X101052692Y-185623692D01*
X101077193Y-185601485D01*
X101103753Y-185581787D01*
X101132116Y-185564787D01*
X101162009Y-185550649D01*
X101193143Y-185539509D01*
X101225219Y-185531475D01*
X101257929Y-185526623D01*
X101290956Y-185525000D01*
X102417044Y-185525000D01*
X102450071Y-185526623D01*
X102450071Y-185526623D01*
G37*
D20*
X101854000Y-186300000D03*
D19*
G36*
X102450071Y-187576623D02*
X102482781Y-187581475D01*
X102514857Y-187589509D01*
X102545991Y-187600649D01*
X102575884Y-187614787D01*
X102604247Y-187631787D01*
X102630807Y-187651485D01*
X102655308Y-187673692D01*
X102677515Y-187698193D01*
X102697213Y-187724753D01*
X102714213Y-187753116D01*
X102728351Y-187783009D01*
X102739491Y-187814143D01*
X102747525Y-187846219D01*
X102752377Y-187878929D01*
X102754000Y-187911956D01*
X102754000Y-188788044D01*
X102752377Y-188821071D01*
X102747525Y-188853781D01*
X102739491Y-188885857D01*
X102728351Y-188916991D01*
X102714213Y-188946884D01*
X102697213Y-188975247D01*
X102677515Y-189001807D01*
X102655308Y-189026308D01*
X102630807Y-189048515D01*
X102604247Y-189068213D01*
X102575884Y-189085213D01*
X102545991Y-189099351D01*
X102514857Y-189110491D01*
X102482781Y-189118525D01*
X102450071Y-189123377D01*
X102417044Y-189125000D01*
X101290956Y-189125000D01*
X101257929Y-189123377D01*
X101225219Y-189118525D01*
X101193143Y-189110491D01*
X101162009Y-189099351D01*
X101132116Y-189085213D01*
X101103753Y-189068213D01*
X101077193Y-189048515D01*
X101052692Y-189026308D01*
X101030485Y-189001807D01*
X101010787Y-188975247D01*
X100993787Y-188946884D01*
X100979649Y-188916991D01*
X100968509Y-188885857D01*
X100960475Y-188853781D01*
X100955623Y-188821071D01*
X100954000Y-188788044D01*
X100954000Y-187911956D01*
X100955623Y-187878929D01*
X100960475Y-187846219D01*
X100968509Y-187814143D01*
X100979649Y-187783009D01*
X100993787Y-187753116D01*
X101010787Y-187724753D01*
X101030485Y-187698193D01*
X101052692Y-187673692D01*
X101077193Y-187651485D01*
X101103753Y-187631787D01*
X101132116Y-187614787D01*
X101162009Y-187600649D01*
X101193143Y-187589509D01*
X101225219Y-187581475D01*
X101257929Y-187576623D01*
X101290956Y-187575000D01*
X102417044Y-187575000D01*
X102450071Y-187576623D01*
X102450071Y-187576623D01*
G37*
D20*
X101854000Y-188350000D03*
G04 #@! TD*
D19*
G04 #@! TO.C,C_MIXBP1*
G36*
X86956071Y-212196623D02*
X86988781Y-212201475D01*
X87020857Y-212209509D01*
X87051991Y-212220649D01*
X87081884Y-212234787D01*
X87110247Y-212251787D01*
X87136807Y-212271485D01*
X87161308Y-212293692D01*
X87183515Y-212318193D01*
X87203213Y-212344753D01*
X87220213Y-212373116D01*
X87234351Y-212403009D01*
X87245491Y-212434143D01*
X87253525Y-212466219D01*
X87258377Y-212498929D01*
X87260000Y-212531956D01*
X87260000Y-213408044D01*
X87258377Y-213441071D01*
X87253525Y-213473781D01*
X87245491Y-213505857D01*
X87234351Y-213536991D01*
X87220213Y-213566884D01*
X87203213Y-213595247D01*
X87183515Y-213621807D01*
X87161308Y-213646308D01*
X87136807Y-213668515D01*
X87110247Y-213688213D01*
X87081884Y-213705213D01*
X87051991Y-213719351D01*
X87020857Y-213730491D01*
X86988781Y-213738525D01*
X86956071Y-213743377D01*
X86923044Y-213745000D01*
X85796956Y-213745000D01*
X85763929Y-213743377D01*
X85731219Y-213738525D01*
X85699143Y-213730491D01*
X85668009Y-213719351D01*
X85638116Y-213705213D01*
X85609753Y-213688213D01*
X85583193Y-213668515D01*
X85558692Y-213646308D01*
X85536485Y-213621807D01*
X85516787Y-213595247D01*
X85499787Y-213566884D01*
X85485649Y-213536991D01*
X85474509Y-213505857D01*
X85466475Y-213473781D01*
X85461623Y-213441071D01*
X85460000Y-213408044D01*
X85460000Y-212531956D01*
X85461623Y-212498929D01*
X85466475Y-212466219D01*
X85474509Y-212434143D01*
X85485649Y-212403009D01*
X85499787Y-212373116D01*
X85516787Y-212344753D01*
X85536485Y-212318193D01*
X85558692Y-212293692D01*
X85583193Y-212271485D01*
X85609753Y-212251787D01*
X85638116Y-212234787D01*
X85668009Y-212220649D01*
X85699143Y-212209509D01*
X85731219Y-212201475D01*
X85763929Y-212196623D01*
X85796956Y-212195000D01*
X86923044Y-212195000D01*
X86956071Y-212196623D01*
X86956071Y-212196623D01*
G37*
D20*
X86360000Y-212970000D03*
D19*
G36*
X86956071Y-214246623D02*
X86988781Y-214251475D01*
X87020857Y-214259509D01*
X87051991Y-214270649D01*
X87081884Y-214284787D01*
X87110247Y-214301787D01*
X87136807Y-214321485D01*
X87161308Y-214343692D01*
X87183515Y-214368193D01*
X87203213Y-214394753D01*
X87220213Y-214423116D01*
X87234351Y-214453009D01*
X87245491Y-214484143D01*
X87253525Y-214516219D01*
X87258377Y-214548929D01*
X87260000Y-214581956D01*
X87260000Y-215458044D01*
X87258377Y-215491071D01*
X87253525Y-215523781D01*
X87245491Y-215555857D01*
X87234351Y-215586991D01*
X87220213Y-215616884D01*
X87203213Y-215645247D01*
X87183515Y-215671807D01*
X87161308Y-215696308D01*
X87136807Y-215718515D01*
X87110247Y-215738213D01*
X87081884Y-215755213D01*
X87051991Y-215769351D01*
X87020857Y-215780491D01*
X86988781Y-215788525D01*
X86956071Y-215793377D01*
X86923044Y-215795000D01*
X85796956Y-215795000D01*
X85763929Y-215793377D01*
X85731219Y-215788525D01*
X85699143Y-215780491D01*
X85668009Y-215769351D01*
X85638116Y-215755213D01*
X85609753Y-215738213D01*
X85583193Y-215718515D01*
X85558692Y-215696308D01*
X85536485Y-215671807D01*
X85516787Y-215645247D01*
X85499787Y-215616884D01*
X85485649Y-215586991D01*
X85474509Y-215555857D01*
X85466475Y-215523781D01*
X85461623Y-215491071D01*
X85460000Y-215458044D01*
X85460000Y-214581956D01*
X85461623Y-214548929D01*
X85466475Y-214516219D01*
X85474509Y-214484143D01*
X85485649Y-214453009D01*
X85499787Y-214423116D01*
X85516787Y-214394753D01*
X85536485Y-214368193D01*
X85558692Y-214343692D01*
X85583193Y-214321485D01*
X85609753Y-214301787D01*
X85638116Y-214284787D01*
X85668009Y-214270649D01*
X85699143Y-214259509D01*
X85731219Y-214251475D01*
X85763929Y-214246623D01*
X85796956Y-214245000D01*
X86923044Y-214245000D01*
X86956071Y-214246623D01*
X86956071Y-214246623D01*
G37*
D20*
X86360000Y-215020000D03*
G04 #@! TD*
D19*
G04 #@! TO.C,C_MIXBP2*
G36*
X89496071Y-212196623D02*
X89528781Y-212201475D01*
X89560857Y-212209509D01*
X89591991Y-212220649D01*
X89621884Y-212234787D01*
X89650247Y-212251787D01*
X89676807Y-212271485D01*
X89701308Y-212293692D01*
X89723515Y-212318193D01*
X89743213Y-212344753D01*
X89760213Y-212373116D01*
X89774351Y-212403009D01*
X89785491Y-212434143D01*
X89793525Y-212466219D01*
X89798377Y-212498929D01*
X89800000Y-212531956D01*
X89800000Y-213408044D01*
X89798377Y-213441071D01*
X89793525Y-213473781D01*
X89785491Y-213505857D01*
X89774351Y-213536991D01*
X89760213Y-213566884D01*
X89743213Y-213595247D01*
X89723515Y-213621807D01*
X89701308Y-213646308D01*
X89676807Y-213668515D01*
X89650247Y-213688213D01*
X89621884Y-213705213D01*
X89591991Y-213719351D01*
X89560857Y-213730491D01*
X89528781Y-213738525D01*
X89496071Y-213743377D01*
X89463044Y-213745000D01*
X88336956Y-213745000D01*
X88303929Y-213743377D01*
X88271219Y-213738525D01*
X88239143Y-213730491D01*
X88208009Y-213719351D01*
X88178116Y-213705213D01*
X88149753Y-213688213D01*
X88123193Y-213668515D01*
X88098692Y-213646308D01*
X88076485Y-213621807D01*
X88056787Y-213595247D01*
X88039787Y-213566884D01*
X88025649Y-213536991D01*
X88014509Y-213505857D01*
X88006475Y-213473781D01*
X88001623Y-213441071D01*
X88000000Y-213408044D01*
X88000000Y-212531956D01*
X88001623Y-212498929D01*
X88006475Y-212466219D01*
X88014509Y-212434143D01*
X88025649Y-212403009D01*
X88039787Y-212373116D01*
X88056787Y-212344753D01*
X88076485Y-212318193D01*
X88098692Y-212293692D01*
X88123193Y-212271485D01*
X88149753Y-212251787D01*
X88178116Y-212234787D01*
X88208009Y-212220649D01*
X88239143Y-212209509D01*
X88271219Y-212201475D01*
X88303929Y-212196623D01*
X88336956Y-212195000D01*
X89463044Y-212195000D01*
X89496071Y-212196623D01*
X89496071Y-212196623D01*
G37*
D20*
X88900000Y-212970000D03*
D19*
G36*
X89496071Y-214246623D02*
X89528781Y-214251475D01*
X89560857Y-214259509D01*
X89591991Y-214270649D01*
X89621884Y-214284787D01*
X89650247Y-214301787D01*
X89676807Y-214321485D01*
X89701308Y-214343692D01*
X89723515Y-214368193D01*
X89743213Y-214394753D01*
X89760213Y-214423116D01*
X89774351Y-214453009D01*
X89785491Y-214484143D01*
X89793525Y-214516219D01*
X89798377Y-214548929D01*
X89800000Y-214581956D01*
X89800000Y-215458044D01*
X89798377Y-215491071D01*
X89793525Y-215523781D01*
X89785491Y-215555857D01*
X89774351Y-215586991D01*
X89760213Y-215616884D01*
X89743213Y-215645247D01*
X89723515Y-215671807D01*
X89701308Y-215696308D01*
X89676807Y-215718515D01*
X89650247Y-215738213D01*
X89621884Y-215755213D01*
X89591991Y-215769351D01*
X89560857Y-215780491D01*
X89528781Y-215788525D01*
X89496071Y-215793377D01*
X89463044Y-215795000D01*
X88336956Y-215795000D01*
X88303929Y-215793377D01*
X88271219Y-215788525D01*
X88239143Y-215780491D01*
X88208009Y-215769351D01*
X88178116Y-215755213D01*
X88149753Y-215738213D01*
X88123193Y-215718515D01*
X88098692Y-215696308D01*
X88076485Y-215671807D01*
X88056787Y-215645247D01*
X88039787Y-215616884D01*
X88025649Y-215586991D01*
X88014509Y-215555857D01*
X88006475Y-215523781D01*
X88001623Y-215491071D01*
X88000000Y-215458044D01*
X88000000Y-214581956D01*
X88001623Y-214548929D01*
X88006475Y-214516219D01*
X88014509Y-214484143D01*
X88025649Y-214453009D01*
X88039787Y-214423116D01*
X88056787Y-214394753D01*
X88076485Y-214368193D01*
X88098692Y-214343692D01*
X88123193Y-214321485D01*
X88149753Y-214301787D01*
X88178116Y-214284787D01*
X88208009Y-214270649D01*
X88239143Y-214259509D01*
X88271219Y-214251475D01*
X88303929Y-214246623D01*
X88336956Y-214245000D01*
X89463044Y-214245000D01*
X89496071Y-214246623D01*
X89496071Y-214246623D01*
G37*
D20*
X88900000Y-215020000D03*
G04 #@! TD*
D19*
G04 #@! TO.C,C_MIXBP3*
G36*
X99148071Y-203814623D02*
X99180781Y-203819475D01*
X99212857Y-203827509D01*
X99243991Y-203838649D01*
X99273884Y-203852787D01*
X99302247Y-203869787D01*
X99328807Y-203889485D01*
X99353308Y-203911692D01*
X99375515Y-203936193D01*
X99395213Y-203962753D01*
X99412213Y-203991116D01*
X99426351Y-204021009D01*
X99437491Y-204052143D01*
X99445525Y-204084219D01*
X99450377Y-204116929D01*
X99452000Y-204149956D01*
X99452000Y-205026044D01*
X99450377Y-205059071D01*
X99445525Y-205091781D01*
X99437491Y-205123857D01*
X99426351Y-205154991D01*
X99412213Y-205184884D01*
X99395213Y-205213247D01*
X99375515Y-205239807D01*
X99353308Y-205264308D01*
X99328807Y-205286515D01*
X99302247Y-205306213D01*
X99273884Y-205323213D01*
X99243991Y-205337351D01*
X99212857Y-205348491D01*
X99180781Y-205356525D01*
X99148071Y-205361377D01*
X99115044Y-205363000D01*
X97988956Y-205363000D01*
X97955929Y-205361377D01*
X97923219Y-205356525D01*
X97891143Y-205348491D01*
X97860009Y-205337351D01*
X97830116Y-205323213D01*
X97801753Y-205306213D01*
X97775193Y-205286515D01*
X97750692Y-205264308D01*
X97728485Y-205239807D01*
X97708787Y-205213247D01*
X97691787Y-205184884D01*
X97677649Y-205154991D01*
X97666509Y-205123857D01*
X97658475Y-205091781D01*
X97653623Y-205059071D01*
X97652000Y-205026044D01*
X97652000Y-204149956D01*
X97653623Y-204116929D01*
X97658475Y-204084219D01*
X97666509Y-204052143D01*
X97677649Y-204021009D01*
X97691787Y-203991116D01*
X97708787Y-203962753D01*
X97728485Y-203936193D01*
X97750692Y-203911692D01*
X97775193Y-203889485D01*
X97801753Y-203869787D01*
X97830116Y-203852787D01*
X97860009Y-203838649D01*
X97891143Y-203827509D01*
X97923219Y-203819475D01*
X97955929Y-203814623D01*
X97988956Y-203813000D01*
X99115044Y-203813000D01*
X99148071Y-203814623D01*
X99148071Y-203814623D01*
G37*
D20*
X98552000Y-204588000D03*
D19*
G36*
X99148071Y-205864623D02*
X99180781Y-205869475D01*
X99212857Y-205877509D01*
X99243991Y-205888649D01*
X99273884Y-205902787D01*
X99302247Y-205919787D01*
X99328807Y-205939485D01*
X99353308Y-205961692D01*
X99375515Y-205986193D01*
X99395213Y-206012753D01*
X99412213Y-206041116D01*
X99426351Y-206071009D01*
X99437491Y-206102143D01*
X99445525Y-206134219D01*
X99450377Y-206166929D01*
X99452000Y-206199956D01*
X99452000Y-207076044D01*
X99450377Y-207109071D01*
X99445525Y-207141781D01*
X99437491Y-207173857D01*
X99426351Y-207204991D01*
X99412213Y-207234884D01*
X99395213Y-207263247D01*
X99375515Y-207289807D01*
X99353308Y-207314308D01*
X99328807Y-207336515D01*
X99302247Y-207356213D01*
X99273884Y-207373213D01*
X99243991Y-207387351D01*
X99212857Y-207398491D01*
X99180781Y-207406525D01*
X99148071Y-207411377D01*
X99115044Y-207413000D01*
X97988956Y-207413000D01*
X97955929Y-207411377D01*
X97923219Y-207406525D01*
X97891143Y-207398491D01*
X97860009Y-207387351D01*
X97830116Y-207373213D01*
X97801753Y-207356213D01*
X97775193Y-207336515D01*
X97750692Y-207314308D01*
X97728485Y-207289807D01*
X97708787Y-207263247D01*
X97691787Y-207234884D01*
X97677649Y-207204991D01*
X97666509Y-207173857D01*
X97658475Y-207141781D01*
X97653623Y-207109071D01*
X97652000Y-207076044D01*
X97652000Y-206199956D01*
X97653623Y-206166929D01*
X97658475Y-206134219D01*
X97666509Y-206102143D01*
X97677649Y-206071009D01*
X97691787Y-206041116D01*
X97708787Y-206012753D01*
X97728485Y-205986193D01*
X97750692Y-205961692D01*
X97775193Y-205939485D01*
X97801753Y-205919787D01*
X97830116Y-205902787D01*
X97860009Y-205888649D01*
X97891143Y-205877509D01*
X97923219Y-205869475D01*
X97955929Y-205864623D01*
X97988956Y-205863000D01*
X99115044Y-205863000D01*
X99148071Y-205864623D01*
X99148071Y-205864623D01*
G37*
D20*
X98552000Y-206638000D03*
G04 #@! TD*
D19*
G04 #@! TO.C,C_MIXBP4*
G36*
X102196071Y-203891241D02*
X102228781Y-203896093D01*
X102260857Y-203904127D01*
X102291991Y-203915267D01*
X102321884Y-203929405D01*
X102350247Y-203946405D01*
X102376807Y-203966103D01*
X102401308Y-203988310D01*
X102423515Y-204012811D01*
X102443213Y-204039371D01*
X102460213Y-204067734D01*
X102474351Y-204097627D01*
X102485491Y-204128761D01*
X102493525Y-204160837D01*
X102498377Y-204193547D01*
X102500000Y-204226574D01*
X102500000Y-205102662D01*
X102498377Y-205135689D01*
X102493525Y-205168399D01*
X102485491Y-205200475D01*
X102474351Y-205231609D01*
X102460213Y-205261502D01*
X102443213Y-205289865D01*
X102423515Y-205316425D01*
X102401308Y-205340926D01*
X102376807Y-205363133D01*
X102350247Y-205382831D01*
X102321884Y-205399831D01*
X102291991Y-205413969D01*
X102260857Y-205425109D01*
X102228781Y-205433143D01*
X102196071Y-205437995D01*
X102163044Y-205439618D01*
X101036956Y-205439618D01*
X101003929Y-205437995D01*
X100971219Y-205433143D01*
X100939143Y-205425109D01*
X100908009Y-205413969D01*
X100878116Y-205399831D01*
X100849753Y-205382831D01*
X100823193Y-205363133D01*
X100798692Y-205340926D01*
X100776485Y-205316425D01*
X100756787Y-205289865D01*
X100739787Y-205261502D01*
X100725649Y-205231609D01*
X100714509Y-205200475D01*
X100706475Y-205168399D01*
X100701623Y-205135689D01*
X100700000Y-205102662D01*
X100700000Y-204226574D01*
X100701623Y-204193547D01*
X100706475Y-204160837D01*
X100714509Y-204128761D01*
X100725649Y-204097627D01*
X100739787Y-204067734D01*
X100756787Y-204039371D01*
X100776485Y-204012811D01*
X100798692Y-203988310D01*
X100823193Y-203966103D01*
X100849753Y-203946405D01*
X100878116Y-203929405D01*
X100908009Y-203915267D01*
X100939143Y-203904127D01*
X100971219Y-203896093D01*
X101003929Y-203891241D01*
X101036956Y-203889618D01*
X102163044Y-203889618D01*
X102196071Y-203891241D01*
X102196071Y-203891241D01*
G37*
D20*
X101600000Y-204664618D03*
D19*
G36*
X102196071Y-205941241D02*
X102228781Y-205946093D01*
X102260857Y-205954127D01*
X102291991Y-205965267D01*
X102321884Y-205979405D01*
X102350247Y-205996405D01*
X102376807Y-206016103D01*
X102401308Y-206038310D01*
X102423515Y-206062811D01*
X102443213Y-206089371D01*
X102460213Y-206117734D01*
X102474351Y-206147627D01*
X102485491Y-206178761D01*
X102493525Y-206210837D01*
X102498377Y-206243547D01*
X102500000Y-206276574D01*
X102500000Y-207152662D01*
X102498377Y-207185689D01*
X102493525Y-207218399D01*
X102485491Y-207250475D01*
X102474351Y-207281609D01*
X102460213Y-207311502D01*
X102443213Y-207339865D01*
X102423515Y-207366425D01*
X102401308Y-207390926D01*
X102376807Y-207413133D01*
X102350247Y-207432831D01*
X102321884Y-207449831D01*
X102291991Y-207463969D01*
X102260857Y-207475109D01*
X102228781Y-207483143D01*
X102196071Y-207487995D01*
X102163044Y-207489618D01*
X101036956Y-207489618D01*
X101003929Y-207487995D01*
X100971219Y-207483143D01*
X100939143Y-207475109D01*
X100908009Y-207463969D01*
X100878116Y-207449831D01*
X100849753Y-207432831D01*
X100823193Y-207413133D01*
X100798692Y-207390926D01*
X100776485Y-207366425D01*
X100756787Y-207339865D01*
X100739787Y-207311502D01*
X100725649Y-207281609D01*
X100714509Y-207250475D01*
X100706475Y-207218399D01*
X100701623Y-207185689D01*
X100700000Y-207152662D01*
X100700000Y-206276574D01*
X100701623Y-206243547D01*
X100706475Y-206210837D01*
X100714509Y-206178761D01*
X100725649Y-206147627D01*
X100739787Y-206117734D01*
X100756787Y-206089371D01*
X100776485Y-206062811D01*
X100798692Y-206038310D01*
X100823193Y-206016103D01*
X100849753Y-205996405D01*
X100878116Y-205979405D01*
X100908009Y-205965267D01*
X100939143Y-205954127D01*
X100971219Y-205946093D01*
X101003929Y-205941241D01*
X101036956Y-205939618D01*
X102163044Y-205939618D01*
X102196071Y-205941241D01*
X102196071Y-205941241D01*
G37*
D20*
X101600000Y-206714618D03*
G04 #@! TD*
D19*
G04 #@! TO.C,R_FUNC1*
G36*
X58835752Y-96082321D02*
X58868462Y-96087173D01*
X58900538Y-96095207D01*
X58931672Y-96106347D01*
X58961565Y-96120485D01*
X58989928Y-96137485D01*
X59016488Y-96157183D01*
X59040989Y-96179390D01*
X59063196Y-96203891D01*
X59082894Y-96230451D01*
X59099894Y-96258814D01*
X59114032Y-96288707D01*
X59125172Y-96319841D01*
X59133206Y-96351917D01*
X59138058Y-96384627D01*
X59139681Y-96417654D01*
X59139681Y-97293742D01*
X59138058Y-97326769D01*
X59133206Y-97359479D01*
X59125172Y-97391555D01*
X59114032Y-97422689D01*
X59099894Y-97452582D01*
X59082894Y-97480945D01*
X59063196Y-97507505D01*
X59040989Y-97532006D01*
X59016488Y-97554213D01*
X58989928Y-97573911D01*
X58961565Y-97590911D01*
X58931672Y-97605049D01*
X58900538Y-97616189D01*
X58868462Y-97624223D01*
X58835752Y-97629075D01*
X58802725Y-97630698D01*
X57676637Y-97630698D01*
X57643610Y-97629075D01*
X57610900Y-97624223D01*
X57578824Y-97616189D01*
X57547690Y-97605049D01*
X57517797Y-97590911D01*
X57489434Y-97573911D01*
X57462874Y-97554213D01*
X57438373Y-97532006D01*
X57416166Y-97507505D01*
X57396468Y-97480945D01*
X57379468Y-97452582D01*
X57365330Y-97422689D01*
X57354190Y-97391555D01*
X57346156Y-97359479D01*
X57341304Y-97326769D01*
X57339681Y-97293742D01*
X57339681Y-96417654D01*
X57341304Y-96384627D01*
X57346156Y-96351917D01*
X57354190Y-96319841D01*
X57365330Y-96288707D01*
X57379468Y-96258814D01*
X57396468Y-96230451D01*
X57416166Y-96203891D01*
X57438373Y-96179390D01*
X57462874Y-96157183D01*
X57489434Y-96137485D01*
X57517797Y-96120485D01*
X57547690Y-96106347D01*
X57578824Y-96095207D01*
X57610900Y-96087173D01*
X57643610Y-96082321D01*
X57676637Y-96080698D01*
X58802725Y-96080698D01*
X58835752Y-96082321D01*
X58835752Y-96082321D01*
G37*
D20*
X58239681Y-96855698D03*
D19*
G36*
X58835752Y-98132321D02*
X58868462Y-98137173D01*
X58900538Y-98145207D01*
X58931672Y-98156347D01*
X58961565Y-98170485D01*
X58989928Y-98187485D01*
X59016488Y-98207183D01*
X59040989Y-98229390D01*
X59063196Y-98253891D01*
X59082894Y-98280451D01*
X59099894Y-98308814D01*
X59114032Y-98338707D01*
X59125172Y-98369841D01*
X59133206Y-98401917D01*
X59138058Y-98434627D01*
X59139681Y-98467654D01*
X59139681Y-99343742D01*
X59138058Y-99376769D01*
X59133206Y-99409479D01*
X59125172Y-99441555D01*
X59114032Y-99472689D01*
X59099894Y-99502582D01*
X59082894Y-99530945D01*
X59063196Y-99557505D01*
X59040989Y-99582006D01*
X59016488Y-99604213D01*
X58989928Y-99623911D01*
X58961565Y-99640911D01*
X58931672Y-99655049D01*
X58900538Y-99666189D01*
X58868462Y-99674223D01*
X58835752Y-99679075D01*
X58802725Y-99680698D01*
X57676637Y-99680698D01*
X57643610Y-99679075D01*
X57610900Y-99674223D01*
X57578824Y-99666189D01*
X57547690Y-99655049D01*
X57517797Y-99640911D01*
X57489434Y-99623911D01*
X57462874Y-99604213D01*
X57438373Y-99582006D01*
X57416166Y-99557505D01*
X57396468Y-99530945D01*
X57379468Y-99502582D01*
X57365330Y-99472689D01*
X57354190Y-99441555D01*
X57346156Y-99409479D01*
X57341304Y-99376769D01*
X57339681Y-99343742D01*
X57339681Y-98467654D01*
X57341304Y-98434627D01*
X57346156Y-98401917D01*
X57354190Y-98369841D01*
X57365330Y-98338707D01*
X57379468Y-98308814D01*
X57396468Y-98280451D01*
X57416166Y-98253891D01*
X57438373Y-98229390D01*
X57462874Y-98207183D01*
X57489434Y-98187485D01*
X57517797Y-98170485D01*
X57547690Y-98156347D01*
X57578824Y-98145207D01*
X57610900Y-98137173D01*
X57643610Y-98132321D01*
X57676637Y-98130698D01*
X58802725Y-98130698D01*
X58835752Y-98132321D01*
X58835752Y-98132321D01*
G37*
D20*
X58239681Y-98905698D03*
G04 #@! TD*
D15*
G04 #@! TO.C,RV_AMP1*
X71882000Y-195580000D03*
X71882000Y-193040000D03*
X71882000Y-190500000D03*
X77216000Y-195580000D03*
X77216000Y-193040000D03*
X77216000Y-190500000D03*
G04 #@! TD*
G04 #@! TO.C,RV_TIME1*
X77216000Y-165100000D03*
X77216000Y-167640000D03*
X77216000Y-170180000D03*
X71882000Y-165100000D03*
X71882000Y-167640000D03*
X71882000Y-170180000D03*
G04 #@! TD*
D11*
G04 #@! TO.C,RV_LOWOFF1*
X71200000Y-207010000D03*
X73700000Y-202010000D03*
X76200000Y-207010000D03*
G04 #@! TD*
D10*
G04 #@! TO.C,REF\002A\002A*
X53794681Y-110834698D03*
G04 #@! TD*
D19*
G04 #@! TO.C,CPWRBP1*
G36*
X77696071Y-121021623D02*
X77728781Y-121026475D01*
X77760857Y-121034509D01*
X77791991Y-121045649D01*
X77821884Y-121059787D01*
X77850247Y-121076787D01*
X77876807Y-121096485D01*
X77901308Y-121118692D01*
X77923515Y-121143193D01*
X77943213Y-121169753D01*
X77960213Y-121198116D01*
X77974351Y-121228009D01*
X77985491Y-121259143D01*
X77993525Y-121291219D01*
X77998377Y-121323929D01*
X78000000Y-121356956D01*
X78000000Y-122483044D01*
X77998377Y-122516071D01*
X77993525Y-122548781D01*
X77985491Y-122580857D01*
X77974351Y-122611991D01*
X77960213Y-122641884D01*
X77943213Y-122670247D01*
X77923515Y-122696807D01*
X77901308Y-122721308D01*
X77876807Y-122743515D01*
X77850247Y-122763213D01*
X77821884Y-122780213D01*
X77791991Y-122794351D01*
X77760857Y-122805491D01*
X77728781Y-122813525D01*
X77696071Y-122818377D01*
X77663044Y-122820000D01*
X76786956Y-122820000D01*
X76753929Y-122818377D01*
X76721219Y-122813525D01*
X76689143Y-122805491D01*
X76658009Y-122794351D01*
X76628116Y-122780213D01*
X76599753Y-122763213D01*
X76573193Y-122743515D01*
X76548692Y-122721308D01*
X76526485Y-122696807D01*
X76506787Y-122670247D01*
X76489787Y-122641884D01*
X76475649Y-122611991D01*
X76464509Y-122580857D01*
X76456475Y-122548781D01*
X76451623Y-122516071D01*
X76450000Y-122483044D01*
X76450000Y-121356956D01*
X76451623Y-121323929D01*
X76456475Y-121291219D01*
X76464509Y-121259143D01*
X76475649Y-121228009D01*
X76489787Y-121198116D01*
X76506787Y-121169753D01*
X76526485Y-121143193D01*
X76548692Y-121118692D01*
X76573193Y-121096485D01*
X76599753Y-121076787D01*
X76628116Y-121059787D01*
X76658009Y-121045649D01*
X76689143Y-121034509D01*
X76721219Y-121026475D01*
X76753929Y-121021623D01*
X76786956Y-121020000D01*
X77663044Y-121020000D01*
X77696071Y-121021623D01*
X77696071Y-121021623D01*
G37*
D20*
X77225000Y-121920000D03*
D19*
G36*
X75646071Y-121021623D02*
X75678781Y-121026475D01*
X75710857Y-121034509D01*
X75741991Y-121045649D01*
X75771884Y-121059787D01*
X75800247Y-121076787D01*
X75826807Y-121096485D01*
X75851308Y-121118692D01*
X75873515Y-121143193D01*
X75893213Y-121169753D01*
X75910213Y-121198116D01*
X75924351Y-121228009D01*
X75935491Y-121259143D01*
X75943525Y-121291219D01*
X75948377Y-121323929D01*
X75950000Y-121356956D01*
X75950000Y-122483044D01*
X75948377Y-122516071D01*
X75943525Y-122548781D01*
X75935491Y-122580857D01*
X75924351Y-122611991D01*
X75910213Y-122641884D01*
X75893213Y-122670247D01*
X75873515Y-122696807D01*
X75851308Y-122721308D01*
X75826807Y-122743515D01*
X75800247Y-122763213D01*
X75771884Y-122780213D01*
X75741991Y-122794351D01*
X75710857Y-122805491D01*
X75678781Y-122813525D01*
X75646071Y-122818377D01*
X75613044Y-122820000D01*
X74736956Y-122820000D01*
X74703929Y-122818377D01*
X74671219Y-122813525D01*
X74639143Y-122805491D01*
X74608009Y-122794351D01*
X74578116Y-122780213D01*
X74549753Y-122763213D01*
X74523193Y-122743515D01*
X74498692Y-122721308D01*
X74476485Y-122696807D01*
X74456787Y-122670247D01*
X74439787Y-122641884D01*
X74425649Y-122611991D01*
X74414509Y-122580857D01*
X74406475Y-122548781D01*
X74401623Y-122516071D01*
X74400000Y-122483044D01*
X74400000Y-121356956D01*
X74401623Y-121323929D01*
X74406475Y-121291219D01*
X74414509Y-121259143D01*
X74425649Y-121228009D01*
X74439787Y-121198116D01*
X74456787Y-121169753D01*
X74476485Y-121143193D01*
X74498692Y-121118692D01*
X74523193Y-121096485D01*
X74549753Y-121076787D01*
X74578116Y-121059787D01*
X74608009Y-121045649D01*
X74639143Y-121034509D01*
X74671219Y-121026475D01*
X74703929Y-121021623D01*
X74736956Y-121020000D01*
X75613044Y-121020000D01*
X75646071Y-121021623D01*
X75646071Y-121021623D01*
G37*
D20*
X75175000Y-121920000D03*
G04 #@! TD*
D19*
G04 #@! TO.C,CPWRBP2*
G36*
X77696071Y-128641623D02*
X77728781Y-128646475D01*
X77760857Y-128654509D01*
X77791991Y-128665649D01*
X77821884Y-128679787D01*
X77850247Y-128696787D01*
X77876807Y-128716485D01*
X77901308Y-128738692D01*
X77923515Y-128763193D01*
X77943213Y-128789753D01*
X77960213Y-128818116D01*
X77974351Y-128848009D01*
X77985491Y-128879143D01*
X77993525Y-128911219D01*
X77998377Y-128943929D01*
X78000000Y-128976956D01*
X78000000Y-130103044D01*
X77998377Y-130136071D01*
X77993525Y-130168781D01*
X77985491Y-130200857D01*
X77974351Y-130231991D01*
X77960213Y-130261884D01*
X77943213Y-130290247D01*
X77923515Y-130316807D01*
X77901308Y-130341308D01*
X77876807Y-130363515D01*
X77850247Y-130383213D01*
X77821884Y-130400213D01*
X77791991Y-130414351D01*
X77760857Y-130425491D01*
X77728781Y-130433525D01*
X77696071Y-130438377D01*
X77663044Y-130440000D01*
X76786956Y-130440000D01*
X76753929Y-130438377D01*
X76721219Y-130433525D01*
X76689143Y-130425491D01*
X76658009Y-130414351D01*
X76628116Y-130400213D01*
X76599753Y-130383213D01*
X76573193Y-130363515D01*
X76548692Y-130341308D01*
X76526485Y-130316807D01*
X76506787Y-130290247D01*
X76489787Y-130261884D01*
X76475649Y-130231991D01*
X76464509Y-130200857D01*
X76456475Y-130168781D01*
X76451623Y-130136071D01*
X76450000Y-130103044D01*
X76450000Y-128976956D01*
X76451623Y-128943929D01*
X76456475Y-128911219D01*
X76464509Y-128879143D01*
X76475649Y-128848009D01*
X76489787Y-128818116D01*
X76506787Y-128789753D01*
X76526485Y-128763193D01*
X76548692Y-128738692D01*
X76573193Y-128716485D01*
X76599753Y-128696787D01*
X76628116Y-128679787D01*
X76658009Y-128665649D01*
X76689143Y-128654509D01*
X76721219Y-128646475D01*
X76753929Y-128641623D01*
X76786956Y-128640000D01*
X77663044Y-128640000D01*
X77696071Y-128641623D01*
X77696071Y-128641623D01*
G37*
D20*
X77225000Y-129540000D03*
D19*
G36*
X75646071Y-128641623D02*
X75678781Y-128646475D01*
X75710857Y-128654509D01*
X75741991Y-128665649D01*
X75771884Y-128679787D01*
X75800247Y-128696787D01*
X75826807Y-128716485D01*
X75851308Y-128738692D01*
X75873515Y-128763193D01*
X75893213Y-128789753D01*
X75910213Y-128818116D01*
X75924351Y-128848009D01*
X75935491Y-128879143D01*
X75943525Y-128911219D01*
X75948377Y-128943929D01*
X75950000Y-128976956D01*
X75950000Y-130103044D01*
X75948377Y-130136071D01*
X75943525Y-130168781D01*
X75935491Y-130200857D01*
X75924351Y-130231991D01*
X75910213Y-130261884D01*
X75893213Y-130290247D01*
X75873515Y-130316807D01*
X75851308Y-130341308D01*
X75826807Y-130363515D01*
X75800247Y-130383213D01*
X75771884Y-130400213D01*
X75741991Y-130414351D01*
X75710857Y-130425491D01*
X75678781Y-130433525D01*
X75646071Y-130438377D01*
X75613044Y-130440000D01*
X74736956Y-130440000D01*
X74703929Y-130438377D01*
X74671219Y-130433525D01*
X74639143Y-130425491D01*
X74608009Y-130414351D01*
X74578116Y-130400213D01*
X74549753Y-130383213D01*
X74523193Y-130363515D01*
X74498692Y-130341308D01*
X74476485Y-130316807D01*
X74456787Y-130290247D01*
X74439787Y-130261884D01*
X74425649Y-130231991D01*
X74414509Y-130200857D01*
X74406475Y-130168781D01*
X74401623Y-130136071D01*
X74400000Y-130103044D01*
X74400000Y-128976956D01*
X74401623Y-128943929D01*
X74406475Y-128911219D01*
X74414509Y-128879143D01*
X74425649Y-128848009D01*
X74439787Y-128818116D01*
X74456787Y-128789753D01*
X74476485Y-128763193D01*
X74498692Y-128738692D01*
X74523193Y-128716485D01*
X74549753Y-128696787D01*
X74578116Y-128679787D01*
X74608009Y-128665649D01*
X74639143Y-128654509D01*
X74671219Y-128646475D01*
X74703929Y-128641623D01*
X74736956Y-128640000D01*
X75613044Y-128640000D01*
X75646071Y-128641623D01*
X75646071Y-128641623D01*
G37*
D20*
X75175000Y-129540000D03*
G04 #@! TD*
M02*
