M48
;DRILL file {KiCad (5.0.0)} date 10/20/18 19:08:51
;FORMAT={-:-/ absolute / metric / decimal}
FMAT,2
METRIC,TZ
T1C0.400
T2C0.800
T3C0.900
T4C1.000
T5C1.100
T6C1.200
T7C1.500
T8C2.200
%
G90
G05
M71
T1
X55.626Y-98.933
X68.834Y-218.567
X68.834Y-210.82
X71.882Y-158.115
X77.216Y-158.115
X90.805Y-212.725
X90.932Y-194.31
X93.218Y-176.784
X94.488Y-182.118
X97.79Y-90.941
X97.79Y-176.784
X98.552Y-208.153
X99.314Y-190.5
X100.33Y-210.82
X101.6Y-217.805
X102.87Y-196.85
X102.87Y-201.93
X104.394Y-73.914
X107.442Y-73.914
X108.585Y-137.795
X108.585Y-139.7
X109.982Y-198.12
X114.3Y-165.354
X114.3Y-172.974
X114.3Y-175.514
X114.427Y-137.795
X114.427Y-139.7
X121.666Y-175.514
X124.714Y-172.974
X128.27Y-135.89
T2
X109.855Y-92.71
X109.855Y-95.25
X109.855Y-97.79
X109.855Y-100.33
X109.855Y-102.87
X109.855Y-105.41
X109.855Y-107.95
X109.855Y-110.49
X109.855Y-113.03
X109.855Y-115.57
X109.855Y-118.11
X109.855Y-120.65
X109.855Y-123.19
X109.855Y-125.73
X109.855Y-128.27
X125.095Y-92.71
X125.095Y-95.25
X125.095Y-97.79
X125.095Y-100.33
X125.095Y-102.87
X125.095Y-105.41
X125.095Y-107.95
X125.095Y-110.49
X125.095Y-113.03
X125.095Y-115.57
X125.095Y-118.11
X125.095Y-120.65
X125.095Y-123.19
X125.095Y-125.73
X125.095Y-128.27
T3
X71.2Y-207.01
X73.7Y-202.01
X76.2Y-207.01
X78.9Y-207.01
X81.4Y-202.01
X83.9Y-207.01
T4
X80.592Y-75.148
X80.592Y-77.688
X80.592Y-80.228
X80.592Y-82.768
X80.592Y-85.308
X83.132Y-75.148
X83.132Y-77.688
X83.132Y-80.228
X83.132Y-82.768
X83.132Y-85.308
X111.194Y-162.822
X111.194Y-165.362
X111.194Y-167.902
X111.194Y-170.442
X111.194Y-172.982
X111.194Y-175.522
X111.194Y-178.062
X96.52Y-96.52
X96.52Y-99.06
X96.52Y-101.6
X96.52Y-104.14
X96.52Y-106.68
X99.06Y-96.52
X99.06Y-99.06
X99.06Y-101.6
X99.06Y-104.14
X99.06Y-106.68
X124.46Y-71.12
X124.46Y-73.66
X124.46Y-76.2
X124.46Y-78.74
X124.46Y-81.28
X127.Y-71.12
X127.Y-73.66
X127.Y-76.2
X127.Y-78.74
X127.Y-81.28
X90.424Y-204.47
X92.964Y-204.47
X66.726Y-73.193
X69.266Y-73.193
X71.806Y-73.193
X74.346Y-73.193
T5
X79.576Y-102.453
X79.576Y-106.953
X86.076Y-102.453
X86.076Y-106.953
X67.13Y-102.453
X67.13Y-106.953
X73.63Y-102.453
X73.63Y-106.953
X95.25Y-85.598
X97.79Y-85.598
X100.33Y-85.598
X54.43Y-102.453
X54.43Y-106.953
X60.93Y-102.453
X60.93Y-106.953
T6
X71.882Y-165.1
X71.882Y-167.64
X71.882Y-170.18
X77.216Y-165.1
X77.216Y-167.64
X77.216Y-170.18
X71.882Y-139.7
X71.882Y-142.24
X71.882Y-144.78
X77.216Y-139.7
X77.216Y-142.24
X77.216Y-144.78
X71.882Y-190.5
X71.882Y-193.04
X71.882Y-195.58
X77.216Y-190.5
X77.216Y-193.04
X77.216Y-195.58
T7
X80.264Y-118.968
X80.264Y-124.968
X84.264Y-118.968
X84.264Y-124.968
X88.264Y-118.968
X88.264Y-124.968
T8
X86.815Y-71.465
X53.795Y-110.835
X86.815Y-110.835
X53.795Y-71.465
T0
M30
